{"glyphs":{"0":{"ha":776,"x_min":0,"x_max":0,"o":"m 686 629 b 626 668 672 651 653 664 b 636 686 631 674 633 681 b 664 835 658 731 668 781 b 604 982 660 900 639 950 b 464 1024 546 1036 469 1025 b 274 924 417 1017 346 994 b 90 586 194 849 133 735 b 51 308 61 482 47 388 b 101 125 54 236 71 175 b 203 29 126 83 160 51 b 317 1 238 11 278 1 b 325 1 318 1 321 1 b 468 44 346 1 403 6 b 593 167 515 74 557 114 b 696 413 638 232 672 314 b 686 629 699 419 732 558 z m 289 39 b 135 479 169 65 75 215 b 449 526 351 485 439 521 b 561 592 456 529 510 547 b 606 636 578 606 592 621 b 606 636 606 636 606 636 b 607 636 606 636 606 636 b 638 514 619 636 649 624 b 289 39 624 382 521 1 z m 392 568 b 146 519 308 539 222 526 b 185 633 156 556 168 594 b 404 953 260 821 339 911 b 442 971 411 957 425 965 b 604 936 478 983 557 1000 b 635 838 621 911 632 878 b 392 568 636 794 624 646 z "},"1":{"ha":432,"x_min":0,"x_max":0,"o":"m 424 1008 b 392 1025 414 1019 403 1025 b 349 1007 374 1025 357 1014 b 179 938 268 960 179 938 b 168 918 171 936 167 926 b 182 904 169 910 175 904 b 185 904 182 904 183 904 b 297 944 188 906 238 918 b 194 754 267 900 232 839 b 85 465 171 701 125 593 b 57 375 74 435 65 404 b 31 231 43 322 35 274 b 38 108 26 183 29 142 b 103 13 50 65 71 33 l 103 13 b 118 4 108 10 118 4 b 172 7 135 -4 161 -12 b 175 14 174 10 174 11 b 168 56 182 31 176 47 b 136 71 156 68 136 71 b 119 78 131 72 125 74 b 89 164 90 94 88 139 b 89 168 89 165 89 167 b 135 379 94 229 110 297 b 250 699 179 532 229 653 b 424 996 307 842 365 944 b 424 1008 428 1001 425 1006 z "},"2":{"ha":632,"x_min":0,"x_max":0,"o":"m 557 978 b 461 1035 521 1032 467 1035 b 214 835 332 1043 253 919 b 193 786 200 807 193 786 b 204 651 193 786 150 676 b 249 693 204 651 240 635 b 250 722 250 700 250 710 l 250 722 b 271 849 253 790 265 832 b 443 1000 294 910 344 996 b 507 971 458 1001 489 999 l 507 971 b 526 822 524 947 538 903 b 28 47 503 664 351 322 b 21 31 26 46 21 40 b 21 29 21 31 21 29 b 21 26 21 28 21 26 b 49 8 24 13 40 10 b 49 8 49 8 49 8 l 49 8 b 226 -8 103 1 167 -6 b 268 -8 240 -8 256 -8 b 367 -1 308 -8 342 -6 b 446 47 410 8 436 24 b 442 88 449 54 454 74 b 419 94 442 88 432 99 b 388 65 406 92 403 76 b 93 39 349 40 260 22 b 296 222 167 92 235 154 b 471 469 363 297 422 381 b 579 744 554 622 579 740 b 579 746 579 744 579 744 b 557 978 600 849 592 926 z "},"3":{"ha":678,"x_min":0,"x_max":0,"o":"m 593 978 b 496 1035 556 1032 503 1035 b 249 835 368 1043 289 919 b 229 786 235 807 229 786 b 239 651 229 786 186 676 b 283 693 239 651 276 635 b 285 722 285 700 285 710 l 286 722 b 306 849 289 790 300 832 b 479 1000 331 910 381 996 b 543 971 493 1001 524 999 l 543 971 b 561 822 558 947 572 903 b 504 636 554 774 536 710 b 392 508 494 613 458 540 b 369 471 385 504 367 492 b 418 438 371 453 386 429 b 478 468 439 444 458 454 b 475 331 493 428 494 382 b 292 68 421 179 349 107 b 256 50 285 64 272 57 b 119 76 221 39 168 22 l 119 76 b 113 292 69 136 108 250 b 79 350 119 349 79 350 b 38 229 22 350 38 229 b 74 94 38 229 40 157 b 114 39 83 72 97 54 b 213 -4 156 1 183 -4 b 236 -1 225 -4 235 -3 b 422 97 283 6 353 28 b 513 224 456 132 486 174 b 550 324 533 265 544 304 b 560 393 554 343 558 367 b 535 526 561 436 556 483 b 549 554 539 536 544 546 b 551 561 549 557 550 558 b 615 744 599 667 614 740 b 615 746 615 744 615 744 b 593 978 635 849 628 926 z "},"4":{"ha":675,"x_min":0,"x_max":0,"o":"m 650 1008 b 618 1025 640 1019 629 1025 b 575 1006 600 1025 583 1014 b 421 754 535 967 482 892 b 318 489 399 704 357 606 b 147 467 260 485 199 475 b 143 465 146 465 144 465 l 143 465 b 94 479 143 465 104 457 b 101 524 88 494 97 515 b 217 683 153 601 196 657 b 453 914 304 803 385 882 b 456 925 458 917 457 922 b 428 950 449 939 438 947 b 381 946 410 956 392 951 b 175 753 333 921 265 867 b 32 556 144 715 89 644 b 24 479 26 549 13 519 b 32 460 25 471 28 465 b 79 426 43 439 64 429 b 121 428 92 425 106 425 b 151 433 131 429 140 431 b 307 454 199 440 254 450 b 283 375 299 426 290 400 b 257 231 269 322 261 274 b 264 108 253 183 256 142 b 329 13 276 65 297 33 l 329 13 b 344 4 335 10 344 4 b 399 7 361 -4 388 -12 b 401 14 400 10 400 11 b 394 56 408 31 403 47 b 363 71 382 68 363 71 b 346 78 356 72 351 74 b 315 164 317 94 314 139 b 315 168 315 165 315 167 b 361 379 321 229 336 297 b 385 457 369 406 378 432 b 489 414 444 454 481 439 b 501 403 490 407 496 403 b 507 404 503 403 506 403 b 515 425 514 407 518 417 b 458 478 507 450 488 468 b 396 489 440 483 421 488 b 476 699 429 589 461 664 b 650 996 533 842 592 944 b 650 1008 654 1001 651 1006 z "},"5":{"ha":743,"x_min":0,"x_max":0,"o":"m 714 971 b 633 1019 703 994 676 1011 b 492 1026 599 1026 551 1029 b 419 1022 468 1025 443 1024 b 396 1017 411 1021 403 1019 b 336 976 363 1006 340 981 b 336 976 336 976 336 976 b 336 976 336 976 336 976 b 207 757 300 935 257 867 b 203 722 206 753 200 738 b 203 718 203 721 203 719 b 226 688 206 706 214 693 b 251 676 235 683 243 681 b 483 331 361 629 550 511 b 300 68 428 179 356 107 b 264 50 293 64 281 57 b 126 76 229 39 176 22 l 126 76 b 121 292 78 136 115 250 b 88 350 126 349 88 350 b 46 229 29 350 46 229 b 81 94 46 229 49 157 b 122 39 92 72 106 54 b 219 -4 164 1 190 -4 b 244 -1 233 -4 243 -3 b 431 97 290 6 361 28 b 519 224 464 132 494 174 b 558 324 540 265 553 304 b 567 393 563 343 565 367 b 511 574 569 451 560 521 b 268 718 438 653 331 697 b 428 985 321 843 374 935 b 657 953 551 990 624 975 b 690 924 674 942 676 928 b 713 931 704 919 713 931 b 714 971 724 944 717 964 z "},"6":{"ha":721,"x_min":0,"x_max":0,"o":"m 681 833 b 626 982 678 899 660 949 b 488 1024 571 1036 493 1025 b 293 924 440 1017 368 994 b 96 586 211 849 146 735 b 43 307 61 482 43 388 b 88 124 44 235 58 172 b 185 29 111 82 143 50 b 297 1 218 11 257 1 b 310 1 299 1 303 1 b 408 22 328 1 367 4 b 493 93 443 39 471 63 b 549 239 522 131 540 179 b 474 451 564 351 517 417 b 379 500 431 488 385 499 b 314 511 375 501 349 510 b 179 471 263 513 217 499 b 118 399 156 453 135 429 b 192 633 129 468 153 546 b 426 953 275 821 358 910 b 463 971 433 957 446 965 b 632 925 503 985 589 1001 b 651 832 644 900 650 869 b 575 640 654 757 628 693 l 575 640 b 572 638 574 639 574 639 b 567 633 571 636 569 635 b 392 606 503 574 426 607 b 351 558 342 604 351 558 b 464 529 365 493 464 529 b 564 586 464 529 514 542 b 593 614 578 599 592 613 b 646 685 615 636 632 660 b 681 833 669 731 682 779 z m 194 443 b 311 478 235 472 281 478 b 372 468 346 476 371 468 b 372 468 372 468 372 468 b 472 244 389 463 504 418 b 258 42 436 46 314 29 b 119 281 160 74 113 199 b 160 408 125 356 151 396 b 194 443 169 421 182 433 z "},"7":{"ha":568,"x_min":0,"x_max":0,"o":"m 563 982 b 542 1004 558 997 547 1003 b 540 1004 540 1004 540 1004 b 540 1004 540 1004 540 1004 b 303 1029 476 1014 386 1026 b 163 1022 244 1032 197 1029 b 88 976 122 1014 97 999 l 86 976 b 90 933 86 976 75 951 b 114 926 90 933 100 922 b 144 956 128 931 129 944 b 504 975 186 985 293 1003 b 367 810 467 939 419 888 b 150 476 333 764 211 590 b 107 396 133 449 119 421 b 56 263 83 347 67 303 b 43 140 43 217 39 176 b 90 33 46 97 63 61 l 90 33 b 104 22 94 29 104 22 b 158 13 119 10 144 -4 b 163 17 160 14 161 15 b 163 60 172 32 169 49 b 133 82 153 74 133 82 b 118 92 128 85 122 88 b 101 183 92 117 96 160 b 103 188 101 185 103 186 b 185 382 118 246 146 307 b 411 743 254 519 383 704 b 543 917 457 814 501 872 b 565 967 557 932 565 950 b 563 982 565 972 564 976 z "},"8":{"ha":725,"x_min":0,"x_max":0,"o":"m 594 625 b 658 765 625 663 646 710 b 601 971 682 874 640 936 b 514 1017 563 1004 519 1015 b 451 1026 510 1018 486 1025 b 374 1015 425 1028 399 1024 b 197 833 240 974 203 853 b 186 771 192 814 188 794 b 293 558 178 650 229 586 b 268 551 285 556 276 554 b 63 339 113 503 69 363 b 50 267 56 317 51 293 b 301 -4 36 50 182 -7 b 313 -6 304 -6 308 -6 b 425 19 333 -6 376 -1 b 525 97 464 38 497 63 b 599 260 560 140 585 194 b 533 499 626 386 578 460 b 460 543 507 521 481 535 b 508 558 475 546 492 551 b 594 625 542 574 571 596 z m 514 267 b 258 40 457 44 319 26 b 218 61 244 46 231 53 b 153 136 197 76 172 101 b 138 171 147 147 143 160 b 142 357 122 219 118 281 b 342 526 189 507 303 525 b 354 526 346 526 350 526 b 421 517 393 526 421 517 b 421 517 421 517 421 517 b 514 267 440 510 564 460 z m 365 576 b 358 579 364 578 361 578 b 264 828 300 606 226 692 b 419 993 306 982 419 993 l 419 993 b 447 994 429 994 439 994 b 504 986 481 993 504 986 b 506 986 504 986 506 986 b 586 771 521 981 628 938 b 365 576 536 581 418 565 z "},"9":{"ha":701,"x_min":0,"x_max":0,"o":"m 601 899 b 500 993 576 940 542 972 b 386 1021 465 1011 426 1021 b 276 999 381 1021 329 1024 b 194 929 243 983 215 960 b 146 783 168 890 151 842 b 229 569 135 671 185 604 b 326 521 275 535 321 522 b 393 511 332 519 357 513 b 525 550 443 510 489 524 b 583 622 549 568 568 593 b 519 388 575 554 556 475 b 300 68 446 201 365 111 b 264 50 293 64 281 57 b 128 76 228 39 175 22 l 128 76 b 131 292 81 136 124 250 b 100 350 140 349 100 350 b 53 229 42 350 53 229 b 82 94 53 229 53 157 b 121 39 92 72 106 54 b 217 -4 161 1 188 -4 b 242 -1 231 -4 240 -3 b 432 97 289 6 360 28 b 614 435 510 174 571 288 b 653 715 644 540 657 635 b 601 899 650 788 632 849 z m 508 579 b 393 544 469 549 424 543 b 332 554 358 546 333 553 b 332 554 332 554 332 554 b 222 776 314 560 199 604 b 426 979 250 976 371 993 b 576 742 526 949 579 824 b 542 614 574 667 550 625 b 508 579 532 600 521 589 z "},"B":{"ha":1404,"x_min":0,"x_max":0,"o":"m 868 1033 b 569 981 867 1033 729 1021 b 322 894 476 957 393 928 b 121 746 235 851 167 801 b 49 511 64 676 39 597 b 126 378 54 460 81 415 b 253 306 158 350 200 326 b 290 161 258 244 272 194 b 429 40 347 60 418 42 b 490 31 450 35 469 31 b 586 54 522 31 554 39 b 736 194 640 79 690 126 b 779 188 750 192 764 189 b 846 176 801 183 824 181 b 639 -79 779 44 700 -37 b 574 -62 615 -74 590 -67 b 403 -58 533 -51 413 -14 b 675 -117 394 -101 526 -181 b 1239 85 906 -192 1160 -121 b 1349 3 1290 63 1329 36 b 1360 -25 1353 -6 1357 -15 l 1360 -25 b 1344 -75 1364 -51 1344 -75 b 1342 -119 1336 -86 1321 -111 b 1365 -101 1354 -124 1361 -110 b 1369 -90 1367 -99 1368 -94 b 1360 10 1381 -53 1378 -19 b 1243 97 1339 46 1299 74 b 1247 107 1244 100 1246 104 b 1158 451 1317 332 1158 451 b 1356 647 1322 456 1356 647 b 1232 943 1379 794 1306 888 b 1403 1013 1281 993 1332 1014 b 1438 1008 1417 1013 1428 1011 b 1475 974 1464 999 1475 974 b 1529 924 1483 954 1497 911 b 1524 981 1553 932 1529 972 b 1524 981 1524 981 1524 981 b 1404 1043 1515 994 1483 1042 b 1304 1028 1365 1044 1333 1039 b 1210 964 1269 1015 1239 994 b 1207 960 1208 963 1207 961 b 1094 1013 1149 999 1094 1013 b 890 1035 1040 1029 969 1039 b 868 1033 883 1033 875 1033 z m 136 388 b 63 513 92 424 68 465 b 131 738 54 596 76 671 b 329 882 176 792 242 840 b 574 967 399 915 481 943 b 686 993 613 978 651 986 b 425 810 594 958 503 900 b 253 321 283 646 244 460 b 136 388 204 342 165 364 z m 572 81 b 432 71 528 60 481 56 b 303 201 406 81 336 113 b 292 292 294 224 290 256 b 297 289 293 290 296 290 b 703 199 414 249 557 222 b 572 81 653 131 606 97 z m 782 758 b 822 726 793 754 810 744 b 803 396 850 685 869 594 b 743 264 803 394 782 333 b 711 213 733 244 722 228 b 301 303 565 236 418 263 b 292 306 299 303 296 304 b 479 772 299 443 365 647 b 1086 985 629 936 838 1050 b 1185 936 1086 985 1136 974 b 1133 860 1168 914 1150 889 b 915 357 1125 846 1004 661 b 851 189 897 294 875 239 b 781 201 828 193 804 197 b 744 207 769 203 757 204 b 771 250 753 219 763 235 b 832 386 811 321 832 383 b 879 621 864 479 879 558 b 847 744 879 672 868 714 b 764 794 814 790 769 794 b 575 678 692 800 626 760 b 519 556 538 618 519 558 b 514 538 519 556 515 543 b 508 504 510 518 508 504 b 529 449 508 504 499 451 b 557 511 564 447 558 490 b 563 586 557 511 553 557 b 761 764 589 651 653 772 b 782 758 768 763 775 761 z m 472 -104 b 428 -65 472 -104 426 -86 b 613 -96 429 -44 553 -76 b 567 -112 594 -106 578 -111 b 472 -104 567 -112 517 -122 z m 711 -99 b 929 163 825 -35 886 61 b 1157 113 1013 147 1090 132 b 711 -99 1124 28 1014 -161 z m 1271 657 b 1122 476 1271 657 1239 474 b 1065 486 1122 476 1076 503 b 1079 451 1065 486 1050 468 b 1128 447 1101 440 1128 447 b 1169 153 1128 447 1231 379 b 1161 126 1169 153 1167 142 b 935 175 1096 146 1018 161 b 963 249 944 200 954 225 b 1138 806 994 339 1076 686 b 1208 915 1161 850 1185 886 b 1271 657 1258 867 1299 786 z "},"C":{"ha":911,"x_min":0,"x_max":0,"o":"m 1469 908 b 1456 867 1447 908 1451 879 b 1453 819 1456 867 1463 842 b 1399 749 1443 796 1425 772 b 1167 667 1347 704 1268 676 b 1006 679 1118 661 1064 665 b 846 736 956 692 901 711 b 801 757 831 743 817 750 b 911 879 853 792 893 835 b 913 999 933 931 933 971 b 775 1035 874 1047 785 1036 b 600 968 768 1033 697 1026 b 531 919 576 954 553 938 b 232 1019 458 965 318 1047 b 172 961 204 1011 183 992 b 175 875 161 933 161 904 b 219 815 183 856 199 835 b 310 749 239 797 268 772 b 349 728 322 742 335 735 b 247 565 313 679 279 625 b 121 214 178 436 135 317 b 150 -21 107 119 117 40 b 343 -143 188 -92 257 -136 b 392 -146 360 -144 376 -146 b 638 -65 488 -146 569 -118 b 774 122 693 -21 739 43 b 810 265 793 167 806 218 b 786 407 814 321 806 369 b 675 488 764 450 726 478 b 618 475 668 490 621 500 b 683 439 614 442 661 440 b 742 418 683 439 721 439 b 760 393 749 411 754 403 b 746 135 797 322 779 213 b 618 -40 713 60 671 0 b 392 -115 556 -90 481 -115 b 346 -112 376 -115 361 -114 b 258 403 57 -82 258 403 b 335 557 282 461 306 510 b 426 697 367 610 397 657 b 496 683 449 692 471 686 b 556 679 515 681 535 679 b 704 707 604 679 656 689 b 789 749 735 718 763 732 b 839 724 806 740 822 732 b 1003 667 897 697 951 678 b 1128 650 1046 656 1088 650 b 1168 653 1142 650 1154 651 b 1408 739 1272 663 1354 692 b 1483 875 1463 785 1479 839 b 1483 875 1483 875 1483 875 b 1469 908 1485 882 1486 908 z m 449 726 b 576 874 494 788 538 836 b 750 768 625 842 685 804 b 724 756 742 764 733 760 b 449 726 724 756 581 685 z m 888 981 b 897 960 892 975 896 968 b 894 926 897 956 899 943 b 885 894 893 917 889 906 b 765 776 869 861 836 818 b 588 883 697 813 636 851 b 847 1003 729 1013 822 1007 b 888 981 864 999 879 992 z m 236 1006 b 518 910 314 1032 447 956 b 431 828 488 886 458 858 b 368 753 408 804 388 779 b 188 961 156 856 182 946 b 236 1006 197 985 214 999 z "},"D":{"ha":1546,"x_min":0,"x_max":0,"o":"m 1368 -92 b 1360 10 1381 -54 1378 -19 b 1308 63 1349 29 1331 47 b 1465 443 1436 233 1465 443 b 1271 947 1525 722 1388 872 b 1438 1013 1318 994 1368 1014 b 1472 1008 1450 1013 1463 1011 b 1508 974 1499 999 1508 974 b 1563 924 1517 954 1532 911 b 1558 981 1588 932 1563 972 b 1558 981 1558 981 1558 981 b 1438 1043 1550 994 1517 1042 b 1338 1028 1400 1044 1368 1039 b 1244 964 1304 1015 1274 994 b 1244 964 1244 964 1244 964 b 1129 1013 1181 1000 1129 1013 b 881 1031 1065 1032 976 1042 b 579 979 858 1029 728 1017 b 326 892 483 956 397 926 b 119 743 236 849 167 799 b 49 511 64 675 39 597 b 126 378 54 460 81 415 b 290 292 165 344 219 317 b 325 161 296 238 308 192 b 465 39 379 58 456 40 b 524 31 486 33 506 31 b 619 54 557 31 589 39 b 767 189 672 79 722 124 b 779 188 771 189 775 188 b 876 171 813 182 844 176 b 672 -79 811 42 733 -39 b 607 -62 650 -74 625 -67 b 438 -58 568 -51 446 -14 b 708 -117 429 -101 560 -181 b 1064 -124 821 -153 951 -164 b 1300 53 1165 -86 1242 -21 b 1349 3 1321 38 1338 21 b 1360 -25 1353 -6 1357 -15 l 1360 -25 b 1344 -75 1364 -51 1344 -75 b 1342 -119 1336 -86 1321 -111 b 1365 -101 1353 -124 1361 -110 b 1368 -92 1367 -99 1368 -96 z m 136 388 b 63 513 92 424 68 465 b 131 733 54 594 76 669 b 332 879 176 789 243 838 b 582 965 403 913 488 942 b 732 997 636 979 688 989 b 458 810 636 963 540 904 b 289 307 313 640 278 446 b 136 388 222 331 172 357 z m 607 81 b 465 71 561 60 514 56 b 338 201 440 81 371 113 b 325 279 329 222 326 249 b 733 194 444 242 589 218 b 607 81 699 147 657 106 z m 811 761 b 856 726 824 757 842 747 b 838 396 885 686 904 596 b 742 207 838 394 804 296 b 326 294 596 231 447 256 b 514 772 329 432 396 643 b 1121 985 663 936 872 1050 b 1224 940 1121 985 1167 975 b 1167 858 1204 918 1186 890 b 950 357 1156 842 1038 658 b 883 185 931 292 908 235 b 781 201 850 190 815 196 b 775 201 779 201 778 201 b 804 250 785 217 794 232 b 867 386 844 321 865 383 b 913 621 897 479 914 558 b 881 744 913 672 901 714 b 797 794 849 790 804 794 b 608 678 726 800 661 760 b 553 556 571 618 554 558 b 553 554 553 554 553 554 b 543 504 546 528 543 504 b 563 449 543 504 533 451 b 592 511 597 447 592 490 b 597 588 592 511 586 557 b 635 663 606 608 618 636 b 796 764 681 735 735 768 b 811 761 801 763 806 763 z m 507 -104 b 463 -65 507 -104 461 -86 b 647 -96 464 -44 588 -76 b 600 -112 629 -106 613 -111 b 507 -104 600 -112 550 -122 z m 1054 -72 b 746 -99 975 -108 874 -125 b 961 157 857 -36 918 57 b 1233 88 1067 138 1161 117 b 1054 -72 1186 19 1128 -39 z m 1389 474 b 1240 99 1389 474 1350 264 b 967 169 1168 129 1072 150 b 997 249 978 196 988 222 b 1168 799 1029 338 1108 674 b 1249 924 1196 850 1222 892 b 1389 474 1339 857 1436 725 z "},"E":{"ha":908,"x_min":0,"x_max":0,"o":"m 635 622 b 565 679 594 628 574 651 b 753 735 629 683 694 703 b 775 749 761 739 768 744 b 826 724 792 740 810 732 b 989 667 883 697 939 678 b 1114 650 1033 656 1075 650 b 1154 653 1128 650 1142 651 b 1394 739 1260 663 1340 692 b 1471 875 1449 785 1465 839 b 1471 875 1471 875 1471 875 b 1457 908 1471 882 1474 908 b 1442 867 1435 908 1439 879 b 1440 819 1442 867 1449 842 b 1386 749 1429 796 1413 772 b 1153 667 1333 704 1256 676 b 993 679 1104 661 1050 665 b 832 736 943 692 889 711 b 789 757 818 743 803 750 b 899 879 840 792 879 836 b 899 999 921 931 921 971 b 763 1035 861 1047 771 1036 b 651 997 757 1033 707 1028 b 546 901 618 979 578 949 l 538 906 b 218 1019 476 946 314 1050 b 160 961 190 1011 171 992 b 161 875 147 933 149 904 b 285 758 179 835 221 796 b 375 715 331 732 371 717 b 510 679 379 714 436 689 b 533 644 517 665 525 653 b 567 617 544 633 556 624 b 446 588 533 611 492 603 b 274 496 382 565 324 535 b 128 311 213 446 163 385 b 82 132 99 249 83 188 b 117 -8 82 79 93 33 b 329 -143 160 -85 239 -135 b 383 -146 349 -146 367 -146 b 636 -65 481 -146 565 -119 b 781 122 714 -8 758 68 b 794 401 814 199 838 318 b 679 482 771 444 732 472 b 578 474 678 483 633 492 b 417 314 528 458 460 418 b 393 233 415 311 401 276 b 400 110 382 181 385 139 b 442 85 408 96 424 72 b 429 157 469 103 440 140 b 419 215 429 157 414 174 b 422 226 421 219 421 222 b 444 301 431 268 444 301 b 444 301 444 301 444 301 b 586 444 475 376 522 425 b 674 453 633 460 674 453 b 724 433 693 449 710 443 b 746 183 743 421 803 361 b 401 -115 679 -24 518 -110 b 367 -115 390 -115 378 -115 b 193 254 60 -100 193 254 b 615 590 296 540 544 585 b 640 592 625 592 633 593 b 743 610 704 560 756 579 b 647 622 735 632 682 628 l 635 622 z m 875 981 b 871 892 889 963 888 932 b 757 774 853 849 811 807 b 596 868 697 804 643 839 b 807 1006 664 1003 786 1007 b 875 981 832 1004 861 999 z m 539 889 b 501 796 524 863 510 832 b 504 694 492 754 494 721 b 381 728 433 704 381 728 b 381 728 381 728 381 728 b 174 881 379 729 215 790 b 172 956 163 906 163 932 b 222 1006 182 982 199 999 b 531 894 313 1035 471 933 l 539 889 z m 707 747 b 560 710 660 725 608 713 b 576 821 556 764 576 821 b 590 856 581 833 585 846 b 743 765 635 828 688 796 b 707 747 731 757 718 751 z "},"F":{"ha":1189,"x_min":0,"x_max":0,"o":"m 976 467 b 1043 465 1000 468 1024 467 b 1103 449 1085 463 1103 449 b 1176 425 1119 433 1158 400 b 1150 468 1188 440 1165 458 b 974 497 1121 490 1064 499 b 1115 829 1010 624 1057 767 b 1299 813 1175 807 1243 801 b 1400 892 1347 822 1388 854 b 1383 958 1403 915 1397 939 b 1204 946 1349 1000 1264 982 b 1150 907 1183 933 1164 919 b 1100 867 1140 900 1124 888 b 1003 918 1069 882 1038 899 b 792 1014 943 951 876 989 b 774 1018 786 1015 781 1017 b 654 1038 736 1028 697 1035 b 551 1046 624 1042 588 1044 b 346 1036 475 1050 406 1046 b 161 968 271 1024 208 1001 b 57 765 94 921 60 853 b 171 551 54 681 99 611 b 129 317 143 482 129 403 b 142 194 129 313 128 261 b 251 -32 161 103 200 24 b 492 -144 313 -99 393 -136 b 524 -146 494 -144 506 -146 b 669 -112 556 -146 610 -140 b 811 6 724 -87 772 -47 b 907 208 851 60 883 128 b 978 168 932 196 956 182 b 1090 72 1029 136 1064 106 b 1114 33 1100 60 1108 46 l 1114 33 b 1114 -21 1125 7 1114 -21 b 1125 -65 1110 -33 1104 -60 b 1143 -36 1142 -68 1142 -43 b 1101 79 1143 4 1128 43 b 985 179 1075 114 1038 146 b 910 221 961 193 936 207 b 919 260 913 233 915 247 b 918 261 919 260 919 260 b 965 467 919 263 938 354 l 976 467 z m 456 936 b 506 971 461 942 478 957 b 704 990 546 992 610 1008 b 892 932 704 990 779 979 b 1079 844 968 900 1031 865 b 888 493 1022 783 946 675 b 790 482 832 489 792 482 b 781 465 782 481 776 474 b 801 451 782 457 793 451 b 876 461 803 451 831 457 b 858 396 871 440 865 418 b 818 264 846 347 832 304 b 706 310 781 279 744 294 b 749 422 724 344 739 382 b 761 563 750 426 765 488 b 646 785 757 664 715 742 b 522 815 610 806 568 815 b 407 792 485 814 444 806 b 436 907 406 832 414 872 b 456 936 439 918 449 928 z m 604 544 b 643 571 624 543 646 547 b 569 590 639 604 590 594 b 511 608 569 590 549 585 b 468 644 496 618 481 631 b 431 700 443 674 431 700 b 431 701 431 700 431 701 b 413 743 424 714 418 729 b 569 782 483 788 547 785 b 633 758 593 778 614 769 b 707 674 664 739 692 710 b 729 567 719 643 729 607 b 718 435 733 496 718 435 b 718 433 718 435 718 433 b 675 322 707 393 696 356 b 625 342 658 329 643 335 b 239 518 488 396 347 451 b 238 519 239 518 238 519 b 388 726 286 624 339 688 b 403 692 393 714 397 703 b 444 628 406 686 418 658 b 588 546 483 585 533 556 b 604 544 592 544 597 544 z m 303 -43 b 228 492 238 15 107 194 b 233 507 229 497 231 503 b 622 329 340 439 483 383 b 668 311 639 322 654 317 b 632 257 658 292 646 274 b 619 244 629 253 625 249 b 557 210 601 224 557 210 b 521 161 539 204 499 192 b 579 163 536 133 579 163 b 636 214 579 163 613 185 b 657 236 643 221 651 228 b 699 299 674 256 686 276 b 815 251 739 282 778 267 b 433 -106 711 -46 579 -133 b 303 -43 383 -93 339 -72 z m 560 1032 b 407 925 493 1018 439 981 b 375 807 388 890 376 850 b 378 778 376 797 375 788 b 204 617 306 743 249 688 b 175 564 194 600 185 582 b 114 628 150 585 131 607 b 71 763 85 671 71 715 b 172 957 75 846 110 911 b 350 1022 217 989 275 1011 b 536 1033 404 1032 468 1035 b 560 1032 544 1032 553 1032 z m 1368 904 b 1286 842 1361 875 1328 850 b 1138 853 1242 833 1188 838 b 1222 919 1157 869 1188 897 b 1358 942 1282 954 1344 960 b 1368 904 1368 931 1371 917 z "},"G":{"ha":1235,"x_min":0,"x_max":0,"o":"m 744 288 b 696 482 688 325 682 403 b 847 504 749 483 799 490 b 1025 599 913 524 972 556 b 1157 758 1114 671 1153 751 b 1199 860 1160 764 1183 807 b 1210 944 1207 892 1211 919 b 1172 1017 1207 976 1194 1001 b 1021 1026 1139 1040 1083 1043 b 849 925 979 1014 915 986 b 824 900 840 917 832 908 b 668 992 776 943 724 974 b 581 1008 665 992 629 1004 b 407 976 514 1014 454 1003 b 293 813 350 944 311 889 b 319 636 290 804 268 719 b 582 492 365 563 454 514 b 639 485 601 489 621 486 b 638 454 639 475 638 464 b 657 338 636 408 643 369 b 765 243 678 290 715 260 b 829 233 769 242 793 233 b 894 243 847 233 869 236 b 1015 311 936 254 978 278 b 1053 349 1028 322 1042 335 b 942 44 1043 307 1007 179 b 679 108 833 96 764 108 b 688 197 688 139 690 169 b 571 339 683 243 660 307 b 388 346 508 361 446 363 b 253 267 340 332 294 304 b 144 124 183 203 147 128 b 103 -232 74 -15 60 -135 b 233 -376 128 -290 174 -339 b 318 -415 278 -403 314 -414 b 458 -437 365 -429 413 -437 b 513 -433 476 -437 494 -436 b 689 -372 574 -426 632 -406 b 815 -269 733 -346 776 -311 b 922 -128 854 -229 890 -181 b 956 -65 933 -107 946 -86 b 1154 -189 1024 -104 1090 -147 b 1735 -436 1346 -314 1528 -432 b 1761 -437 1736 -436 1746 -437 b 1906 -417 1793 -437 1847 -435 b 2035 -347 1957 -401 2000 -378 b 2115 -201 2076 -310 2103 -260 b 2117 -194 2117 -199 2117 -197 b 2106 -167 2118 -185 2118 -168 b 2086 -207 2083 -164 2085 -193 b 2082 -260 2086 -207 2093 -235 b 2025 -336 2068 -289 2050 -315 b 1901 -404 1993 -367 1951 -389 b 1735 -422 1817 -429 1736 -422 b 1735 -422 1735 -422 1735 -422 b 1161 -178 1532 -418 1351 -301 b 963 -53 1097 -135 1031 -93 b 982 -11 969 -39 975 -25 b 1099 -79 1017 -31 1057 -54 b 1675 -317 1271 -183 1493 -317 b 1810 -285 1722 -317 1768 -307 l 1810 -285 b 1825 -274 1814 -282 1819 -278 b 1835 -225 1836 -261 1849 -240 b 1769 -258 1811 -201 1782 -242 b 1729 -281 1769 -258 1754 -275 b 1471 -242 1661 -294 1575 -282 b 1114 -53 1349 -194 1224 -119 b 993 18 1071 -28 1029 -3 b 1061 249 1022 89 1044 168 b 1129 457 1076 328 1099 397 b 1131 461 1129 458 1131 460 b 1144 561 1178 511 1176 564 b 1100 468 1118 560 1106 503 b 996 335 1068 413 1033 368 b 888 272 963 304 926 283 b 776 272 836 258 792 265 b 744 288 764 276 754 281 z m 1129 772 b 1004 621 1129 771 1090 692 b 838 533 954 581 899 551 b 703 513 794 521 750 514 b 788 735 729 626 788 735 b 846 833 807 772 826 804 b 868 806 854 824 861 814 b 893 736 885 781 893 736 b 938 685 897 717 904 672 b 942 743 965 694 942 743 b 900 814 942 743 925 782 b 864 858 890 828 878 843 b 1131 1003 1004 1043 1131 1003 l 1131 1003 b 1154 992 1140 1000 1147 997 b 1169 868 1189 968 1182 911 b 1140 794 1161 839 1149 813 b 1129 772 1136 786 1133 778 z m 328 824 b 422 950 346 882 378 925 b 546 979 461 972 506 979 b 658 963 607 979 657 963 b 658 963 658 963 658 963 b 803 878 717 943 765 913 b 697 703 761 828 725 769 b 654 574 696 697 672 643 b 643 515 650 553 646 533 b 588 522 625 517 607 519 b 346 651 468 543 388 586 b 322 804 300 726 322 804 b 328 824 324 808 325 817 z m 928 17 b 906 -21 921 4 914 -8 b 826 19 881 -7 853 7 b 663 63 771 46 715 60 b 668 78 664 68 667 72 b 928 17 754 79 821 68 z m 628 63 b 538 46 599 61 568 56 b 635 76 568 60 603 71 b 628 63 633 71 631 67 z m 447 -33 b 451 -26 449 -31 450 -28 b 522 26 458 -14 478 10 b 621 47 557 39 589 46 b 518 -69 594 -4 556 -49 b 468 -76 504 -78 483 -86 b 447 -33 457 -68 442 -56 z m 132 -221 b 119 -31 107 -165 103 -101 b 324 251 128 4 171 149 b 604 288 324 251 486 364 b 657 193 636 265 654 233 b 646 108 660 167 656 138 b 513 68 604 104 556 90 b 419 -24 463 42 429 8 b 451 -101 410 -53 421 -81 b 533 -96 479 -121 511 -110 b 643 25 572 -74 614 -29 b 656 49 649 33 653 40 b 821 7 710 47 765 33 b 899 -33 847 -6 874 -19 b 672 -279 842 -131 767 -222 b 256 -340 672 -279 467 -418 b 175 -289 229 -331 197 -311 b 132 -221 158 -269 143 -247 z "},"H":{"ha":1565,"x_min":0,"x_max":0,"o":"m 99 354 b 114 1 53 208 58 90 b 254 -115 146 -49 194 -90 b 338 -140 299 -135 333 -140 b 413 -146 364 -144 389 -146 b 506 -135 444 -146 476 -143 b 657 -60 560 -122 608 -97 b 854 174 722 -8 788 67 b 1271 111 997 156 1144 138 b 1329 -64 1282 32 1304 -26 l 1329 -62 b 1343 -81 1333 -69 1338 -75 b 1479 -147 1386 -136 1444 -147 l 1479 -147 b 1483 -147 1479 -147 1481 -147 b 1486 -147 1485 -147 1485 -147 b 1488 -147 1486 -147 1488 -147 b 1531 -119 1503 -146 1533 -142 b 1458 -103 1526 -86 1479 -99 b 1400 -93 1458 -103 1429 -111 b 1367 -62 1389 -85 1376 -75 b 1319 100 1333 -21 1321 38 b 1376 86 1339 96 1358 90 b 1432 53 1399 78 1432 53 b 1475 51 1443 46 1468 31 b 1449 78 1482 67 1451 76 b 1319 114 1410 92 1365 104 b 1350 329 1319 186 1333 263 b 1407 513 1367 393 1386 454 b 1681 742 1547 576 1633 671 b 1749 878 1710 786 1733 833 b 1765 983 1761 918 1768 956 b 1732 1035 1763 1022 1743 1032 b 1650 1010 1707 1040 1681 1032 b 1332 553 1617 988 1438 861 b 1319 511 1328 539 1324 525 b 1042 481 1213 476 1122 478 l 1019 481 b 1096 654 1042 528 1067 586 b 1238 918 1144 769 1194 858 b 1303 1036 1321 958 1342 1025 b 1222 957 1275 1043 1243 994 b 1199 949 1215 954 1208 951 b 964 910 1128 925 1032 915 b 901 903 942 908 922 906 b 531 843 838 897 686 882 b 238 732 411 814 313 776 b 68 538 143 678 86 611 b 90 397 56 485 63 438 b 107 378 96 390 101 383 b 99 354 104 371 101 363 z m 103 406 b 82 533 76 442 69 485 b 244 721 99 604 153 667 b 535 829 318 764 415 800 b 813 879 636 854 738 871 b 790 869 804 876 797 874 b 707 796 750 851 722 826 b 707 672 686 757 686 711 b 757 635 710 667 731 622 b 740 706 788 649 753 689 b 729 771 740 706 717 735 b 733 781 731 775 732 778 b 967 879 754 819 811 868 b 1199 917 1079 888 1153 903 b 1124 788 1174 879 1149 835 b 949 483 1094 732 1028 614 b 869 475 921 482 894 481 b 744 390 817 463 778 436 b 749 368 740 383 742 374 b 757 365 751 367 754 365 b 769 372 763 365 767 368 b 931 451 814 432 865 449 b 764 199 878 365 819 276 b 581 225 701 207 640 215 b 643 358 604 261 625 306 b 643 632 685 478 685 571 b 519 703 599 697 525 703 b 324 663 449 710 382 696 b 196 547 276 636 233 597 b 111 393 149 486 122 424 b 103 406 108 397 106 401 z m 324 264 b 385 249 342 258 363 254 b 536 218 432 238 483 226 b 493 176 522 201 508 188 b 381 156 447 146 407 147 b 381 156 381 156 381 156 b 331 199 379 156 347 164 b 324 264 322 217 319 239 z m 296 288 b 154 354 236 307 189 329 b 201 451 167 385 182 418 b 544 668 201 451 340 713 b 618 615 565 661 596 646 b 643 526 633 592 642 561 b 614 368 644 482 635 429 b 546 231 594 311 572 265 b 388 261 490 240 436 250 b 325 278 365 267 344 272 b 360 339 335 315 360 339 b 368 407 372 356 400 390 b 322 369 343 421 322 369 b 300 306 322 369 308 340 b 296 288 299 299 296 292 z m 146 8 b 128 47 142 14 135 26 b 149 342 110 99 93 199 b 206 308 165 329 183 318 b 293 274 231 296 260 285 b 303 186 289 240 292 211 b 372 126 325 139 368 126 b 510 151 418 113 467 122 b 571 213 532 167 553 188 b 756 186 631 203 693 194 b 604 11 701 113 650 50 b 194 -44 440 -132 278 -108 b 146 8 176 -31 160 -12 z m 863 186 b 931 306 885 224 907 263 b 1006 451 933 311 960 357 b 1019 450 1010 451 1015 450 b 1308 476 1100 447 1196 443 b 1269 125 1268 332 1261 215 b 863 186 1144 151 1003 169 z m 1656 760 b 1422 554 1614 696 1540 614 b 1582 882 1475 690 1535 804 b 1615 931 1592 900 1604 917 b 1653 974 1636 957 1653 974 l 1653 974 b 1726 1004 1676 993 1704 1010 b 1735 981 1729 1004 1733 997 b 1656 760 1739 935 1715 849 z "},"I":{"ha":1124,"x_min":0,"x_max":0,"o":"m 1249 1036 b 1179 956 1219 1043 1194 993 b 1157 947 1172 953 1165 950 b 931 910 1090 925 997 915 b 881 904 913 908 896 907 b 499 867 807 903 653 894 b 197 774 374 844 272 814 b 46 589 104 725 53 663 b 82 464 42 544 54 503 b 149 397 99 442 121 419 b 144 372 146 383 144 375 b 199 7 114 222 132 99 b 357 -115 246 -60 311 -96 b 446 -140 406 -135 442 -140 b 521 -146 472 -144 497 -146 b 614 -135 554 -146 585 -143 b 754 -60 665 -122 711 -97 b 857 63 790 -28 824 13 b 944 -31 899 33 929 4 b 939 -82 954 -54 939 -82 b 946 -126 933 -94 925 -124 b 965 -103 958 -129 964 -112 b 946 -3 972 -68 965 -35 b 864 74 928 24 901 49 b 979 307 903 136 940 213 b 1094 656 982 315 1029 422 b 1199 918 1126 771 1164 858 b 1249 1036 1278 957 1290 1025 z m 1108 793 b 788 118 1068 692 921 331 b 618 193 736 144 679 168 b 683 360 647 232 669 289 b 649 631 708 478 696 569 b 514 703 596 697 519 703 b 322 661 442 710 378 694 b 211 546 279 635 242 596 b 153 411 179 496 163 446 b 93 472 128 432 108 451 b 60 588 67 510 57 547 b 204 763 65 656 114 715 b 500 853 276 800 376 831 b 804 888 613 874 724 883 b 765 872 790 883 778 878 b 689 801 728 854 703 831 b 681 726 679 778 675 753 b 704 669 685 707 692 688 b 758 633 708 663 735 621 b 732 704 788 647 747 688 b 710 767 732 704 706 732 b 717 788 711 774 714 781 b 932 879 733 824 785 868 b 1163 918 1047 888 1119 903 b 1118 821 1147 889 1133 856 b 1108 793 1115 811 1111 803 z m 376 269 b 376 274 376 271 376 272 b 535 210 428 251 482 231 b 578 193 550 204 564 199 b 549 168 569 183 560 175 b 451 156 511 146 475 149 b 392 206 450 156 413 165 b 376 269 382 224 376 244 l 376 269 z m 540 222 b 379 288 486 244 431 265 b 403 339 385 319 403 339 b 403 407 413 356 436 390 b 361 369 375 421 361 369 b 347 301 361 369 350 338 b 201 378 294 325 244 350 b 201 378 201 378 201 378 b 229 451 208 401 218 426 b 535 668 229 451 329 707 b 624 611 558 663 596 647 b 654 365 667 557 676 475 b 608 233 643 313 628 268 b 588 204 601 222 594 213 b 540 222 572 211 557 217 z m 239 6 b 214 47 233 13 224 26 b 197 364 188 103 154 210 b 347 286 242 336 293 311 b 365 190 344 250 350 217 b 443 126 392 140 439 126 b 565 143 474 118 518 114 b 608 181 581 153 596 165 b 779 107 671 157 729 132 b 701 3 753 64 726 29 b 271 -26 553 -150 360 -101 b 239 6 260 -17 249 -7 z "},"J":{"ha":1215,"x_min":0,"x_max":0,"o":"m 1274 963 b 1226 940 1264 957 1249 949 b 949 879 1146 908 1031 890 b 750 825 865 869 799 851 b 661 735 706 800 676 771 b 656 644 650 707 649 675 b 693 569 663 618 675 592 b 703 558 696 565 700 561 b 750 540 715 546 733 531 b 717 610 776 557 733 594 b 682 668 717 610 686 632 b 690 722 681 688 682 706 b 951 850 708 768 769 828 b 1239 913 1099 867 1186 892 b 936 225 1057 711 936 225 b 883 61 924 174 906 117 b 657 108 796 99 732 108 b 665 197 665 139 668 169 b 549 339 661 243 638 307 b 365 346 486 361 424 363 b 231 267 318 332 272 304 b 122 124 161 203 125 128 b 81 -232 51 -15 38 -135 b 211 -376 106 -290 151 -339 b 296 -415 256 -403 292 -414 b 436 -437 343 -429 390 -437 b 490 -433 454 -437 474 -436 b 669 -371 553 -426 613 -406 b 901 -126 757 -318 838 -235 b 935 -65 913 -107 924 -86 b 1132 -189 1003 -106 1068 -147 b 1713 -436 1324 -314 1506 -432 b 1739 -437 1714 -436 1724 -437 b 1883 -417 1771 -437 1825 -435 b 2013 -347 1935 -401 1978 -378 b 2093 -201 2054 -310 2082 -260 b 2094 -194 2094 -199 2094 -197 b 2083 -167 2096 -185 2096 -168 b 2064 -207 2061 -164 2063 -193 b 2060 -260 2064 -207 2071 -235 b 2003 -336 2046 -289 2028 -315 b 1879 -404 1971 -367 1929 -389 b 1713 -422 1794 -429 1714 -422 b 1713 -422 1713 -422 1713 -422 b 1139 -178 1510 -418 1329 -301 b 940 -53 1075 -136 1010 -93 b 960 -11 947 -39 954 -25 b 1076 -79 994 -31 1035 -54 b 1653 -317 1249 -183 1471 -317 b 1788 -285 1700 -317 1746 -307 b 1803 -274 1792 -283 1797 -279 b 1813 -225 1814 -261 1826 -240 b 1747 -258 1789 -201 1760 -242 b 1707 -281 1747 -258 1732 -275 b 1449 -242 1638 -294 1553 -282 b 1092 -53 1326 -194 1201 -119 b 972 17 1049 -28 1007 -3 b 1039 249 1000 89 1024 167 b 1121 549 1060 353 1092 460 b 1197 753 1149 622 1168 682 b 1286 928 1242 849 1264 893 b 1361 1035 1375 950 1400 1017 b 1285 979 1338 1047 1306 1011 l 1274 963 z m 872 32 b 854 -6 867 19 861 7 b 804 19 838 3 821 11 b 640 63 749 46 693 60 b 646 78 642 68 644 72 b 872 32 722 79 785 71 z m 606 63 b 515 46 576 61 546 56 b 613 76 546 60 581 71 b 606 63 611 71 608 67 z m 425 -33 b 429 -26 426 -31 428 -29 b 500 26 436 -15 456 10 b 599 47 535 39 567 46 b 496 -69 572 -4 533 -49 b 446 -76 482 -78 461 -86 b 425 -33 435 -68 419 -56 z m 110 -221 b 97 -31 85 -165 81 -101 b 301 251 106 4 149 149 b 582 288 301 251 464 364 b 635 193 614 265 632 233 b 624 108 638 167 633 138 b 490 68 582 104 533 90 b 397 -24 440 42 407 8 b 429 -101 388 -53 399 -81 b 511 -96 457 -121 489 -110 b 621 25 550 -74 592 -29 b 633 49 626 33 629 40 b 799 7 688 47 743 33 b 849 -18 815 -1 832 -10 b 650 -279 799 -122 732 -219 b 233 -340 650 -279 449 -422 b 153 -289 207 -331 175 -311 b 110 -221 136 -269 121 -247 z "},"Æ":{"ha":2389,"x_min":0,"x_max":0,"o":"m 2279 999 b 2143 1035 2242 1047 2151 1036 b 2032 997 2138 1033 2088 1028 b 1882 796 1978 968 1908 908 b 1914 644 1864 719 1890 671 b 1947 617 1925 633 1936 624 b 1826 588 1914 611 1872 603 b 1654 496 1763 565 1704 535 b 1557 393 1617 465 1585 432 b 1792 918 1625 628 1729 817 b 1829 964 1799 926 1813 944 b 1901 1028 1892 968 1925 1003 b 1774 996 1879 1053 1808 1017 b 1774 996 1774 996 1774 996 b 1771 996 1772 996 1771 996 b 1726 1001 1758 997 1744 999 b 1332 1028 1642 1011 1485 1029 b 1175 1018 1275 1028 1222 1025 b 769 965 1113 1014 950 1000 b 421 868 635 939 518 907 b 151 700 299 821 208 764 b 82 500 100 640 76 574 b 285 285 90 399 157 328 b 318 0 260 171 271 75 b 458 -119 349 -51 397 -92 b 542 -144 504 -139 540 -144 b 542 -144 542 -144 542 -144 b 600 -149 563 -147 582 -149 b 608 -147 603 -149 606 -149 b 1097 178 806 -151 985 11 b 1100 182 1099 179 1100 181 b 1228 114 1158 167 1203 146 b 1242 90 1233 106 1239 99 b 1238 36 1250 69 1238 36 b 1244 -8 1232 24 1222 -6 b 1264 24 1261 -11 1264 19 b 1239 122 1268 63 1260 96 b 1108 194 1213 156 1167 178 b 1178 301 1135 233 1158 269 b 1242 304 1197 301 1219 303 b 1463 315 1319 311 1399 317 b 1518 -64 1436 126 1475 1 l 1518 -62 b 1532 -81 1522 -69 1526 -75 b 1668 -147 1575 -136 1633 -147 l 1668 -147 b 1672 -147 1668 -147 1669 -147 b 1675 -147 1674 -147 1674 -147 b 1676 -147 1675 -147 1676 -147 b 1701 -143 1683 -147 1693 -146 b 1710 -143 1704 -143 1707 -143 b 1764 -146 1729 -146 1747 -146 b 2017 -65 1861 -146 1946 -119 b 2161 122 2094 -8 2139 68 b 2175 401 2194 199 2218 318 b 2060 482 2151 444 2113 472 b 1958 474 2058 483 2014 492 b 1797 314 1908 458 1839 418 b 1772 233 1796 311 1782 276 b 1781 110 1763 181 1765 139 b 1822 85 1789 96 1804 72 b 1810 157 1850 103 1821 140 b 1800 215 1810 157 1794 174 b 1803 226 1801 219 1801 222 b 1825 301 1811 268 1825 301 b 1825 301 1825 301 1825 301 b 1967 444 1856 376 1903 425 b 2054 453 2014 460 2054 453 b 2104 433 2074 449 2090 443 b 2126 183 2124 421 2183 361 b 1782 -115 2060 -24 1899 -110 b 1747 -115 1771 -115 1758 -115 b 1717 -112 1738 -115 1726 -114 b 1663 -99 1710 -93 1683 -96 b 1574 254 1468 -28 1574 254 b 1996 590 1676 540 1925 583 b 2017 592 2004 592 2011 592 b 2021 592 2018 592 2019 592 b 2124 610 2085 560 2136 579 b 2028 622 2115 632 2063 628 b 2017 622 2025 622 2021 622 b 2015 622 2015 622 2015 622 b 1946 679 1975 628 1954 651 b 2133 735 2010 683 2075 703 b 2279 879 2203 774 2256 826 b 2279 999 2301 931 2301 971 z m 161 367 b 96 501 122 403 100 447 b 163 690 90 571 113 633 b 425 856 217 753 306 808 b 772 951 522 893 639 925 b 1064 994 882 972 985 986 b 951 933 1015 979 979 958 b 900 804 915 900 899 856 b 947 706 901 797 903 743 b 1047 674 972 685 1007 674 b 1094 678 1063 674 1078 675 b 1104 679 1097 678 1100 679 b 1104 679 1104 679 1104 679 b 1104 679 1104 679 1104 679 b 1140 714 1119 683 1143 692 b 1067 719 1135 747 1086 726 b 994 713 1067 719 1021 704 l 994 713 b 967 729 985 717 975 722 b 931 804 932 758 931 804 b 931 806 931 804 931 806 b 972 911 929 849 943 883 b 1703 972 1107 1038 1524 994 b 1624 933 1679 963 1653 950 b 1447 797 1564 899 1504 853 b 1250 546 1378 728 1311 643 b 1215 490 1238 526 1226 508 b 1117 335 1179 435 1147 382 b 1038 363 1068 340 1047 353 b 1031 381 1029 372 1031 381 b 1031 381 1031 381 1031 381 l 1001 388 b 1014 343 1000 385 996 364 b 1099 306 1031 325 1058 313 b 1035 210 1076 272 1056 240 b 790 233 963 222 878 228 b 847 358 811 268 831 310 b 847 632 889 478 889 571 b 724 703 803 697 729 703 b 528 663 653 710 586 696 b 400 547 481 636 438 597 b 310 375 338 465 311 381 b 288 299 300 349 293 322 b 161 367 233 317 193 339 z m 747 236 b 526 253 674 240 599 244 b 529 278 526 260 528 268 b 564 339 539 315 564 339 b 572 407 575 356 604 390 b 526 369 546 421 526 369 b 501 294 526 369 508 333 b 496 256 499 281 496 268 b 333 285 438 263 383 272 b 406 451 347 335 371 390 b 749 668 406 451 544 713 b 822 615 769 661 800 646 b 847 526 838 592 846 561 b 818 368 849 482 839 429 b 754 236 800 314 779 269 b 747 236 751 236 750 236 z m 744 222 b 697 176 729 204 714 189 b 585 156 651 146 611 147 b 535 200 583 156 551 165 b 526 239 529 211 526 224 b 744 222 597 231 671 226 z m 546 -114 b 349 7 542 -114 418 -94 b 331 271 339 25 290 115 b 496 242 381 258 438 249 b 507 186 496 221 500 203 b 576 126 529 139 572 126 b 714 151 622 113 671 122 b 781 219 739 168 761 192 b 1026 197 868 215 954 208 b 878 10 974 121 925 60 b 546 -114 775 -93 676 -129 z m 1239 335 b 1197 332 1225 333 1211 332 b 1265 444 1242 403 1265 444 b 1354 588 1296 494 1329 549 b 1782 965 1529 851 1746 950 b 1783 965 1782 965 1783 965 b 1521 553 1714 901 1596 771 b 1467 346 1494 478 1478 408 b 1239 335 1401 347 1319 342 z m 2251 892 b 2118 763 2231 844 2182 797 b 1940 710 2063 731 2000 714 b 1957 821 1936 764 1957 821 b 2190 1006 2019 1010 2176 1007 b 2256 981 2214 1004 2242 997 b 2251 892 2269 963 2268 932 z "},"Œ":{"ha":1667,"x_min":0,"x_max":0,"o":"m 1575 858 b 1554 818 1553 861 1553 832 b 1542 765 1554 818 1558 786 l 1542 765 b 1476 708 1528 747 1507 728 b 1231 651 1415 672 1331 653 b 1215 679 1224 660 1219 669 b 1403 735 1279 683 1344 703 b 1549 879 1472 774 1526 826 b 1549 999 1571 931 1571 971 b 1413 1035 1511 1047 1421 1036 b 1301 997 1407 1033 1357 1028 b 1151 796 1247 968 1178 908 b 1178 653 1136 728 1156 681 b 844 747 1082 658 969 690 b 819 760 836 751 828 756 b 924 881 868 794 906 836 b 925 999 946 932 946 971 b 789 1035 888 1047 797 1036 b 613 968 781 1033 710 1026 b 543 919 589 954 565 938 b 244 1019 471 965 331 1047 b 185 961 217 1011 197 992 b 188 875 174 933 175 904 b 233 815 196 856 211 835 b 322 749 251 797 281 772 b 361 728 335 742 347 735 b 260 567 325 679 292 625 b 133 217 192 436 149 319 b 161 -17 119 124 129 44 b 242 -106 181 -54 208 -83 b 356 -143 275 -125 313 -139 b 406 -146 372 -146 389 -146 b 636 -68 493 -146 569 -119 b 742 54 681 -32 715 13 b 767 -8 747 32 756 11 b 979 -143 810 -85 889 -135 b 1035 -146 999 -146 1017 -146 b 1288 -65 1131 -146 1215 -119 b 1432 122 1364 -8 1408 68 b 1444 401 1465 199 1488 318 b 1329 482 1421 444 1382 472 b 1229 474 1328 483 1283 492 b 1067 314 1178 458 1110 418 b 1043 233 1065 311 1051 276 b 1050 110 1032 181 1035 139 b 1092 85 1058 96 1074 72 b 1079 157 1119 103 1090 140 b 1071 215 1079 157 1065 174 b 1072 226 1071 219 1072 222 b 1094 301 1081 268 1094 301 b 1094 301 1094 301 1094 301 b 1236 444 1125 376 1174 425 b 1324 453 1283 460 1324 453 b 1374 433 1343 449 1360 443 b 1396 183 1393 421 1453 361 b 1051 -115 1329 -24 1168 -110 b 1017 -115 1040 -115 1029 -115 b 843 254 710 -100 843 254 b 1267 590 946 540 1194 583 b 1286 592 1274 592 1281 592 b 1290 592 1288 592 1289 592 b 1393 610 1354 560 1406 579 b 1297 622 1385 632 1332 628 b 1286 622 1294 622 1292 622 b 1285 622 1286 622 1285 622 b 1244 638 1268 625 1254 631 b 1483 697 1342 640 1424 661 b 1585 831 1563 744 1582 803 b 1575 858 1588 840 1588 856 z m 1525 981 b 1521 892 1539 963 1538 932 b 1389 763 1500 844 1453 797 b 1210 710 1332 731 1269 714 b 1226 821 1206 764 1226 821 b 1460 1006 1289 1010 1446 1007 b 1525 981 1485 1004 1511 997 z m 839 735 b 1183 639 968 675 1085 643 b 1190 638 1185 639 1188 638 b 1217 617 1199 629 1208 622 b 1096 588 1183 611 1142 603 b 925 496 1032 565 974 535 b 851 425 897 475 874 451 b 854 450 853 433 853 442 b 839 619 858 517 853 574 b 764 728 824 668 799 704 b 806 751 778 735 793 743 b 839 735 817 746 828 740 z m 738 756 b 461 728 738 756 593 685 b 589 874 507 788 550 836 b 767 771 638 843 699 806 b 738 756 757 765 747 761 z m 900 981 b 910 960 906 975 908 968 b 907 926 910 956 911 943 b 897 896 906 917 901 906 b 782 779 882 861 850 819 b 600 883 711 815 649 853 b 860 1003 742 1014 836 1007 b 900 981 876 999 892 992 z m 249 1007 b 531 911 328 1032 460 956 b 443 828 501 886 471 858 b 381 754 421 804 400 779 b 200 961 168 856 194 947 b 249 1007 210 985 226 999 z m 358 -112 b 326 -107 347 -111 336 -110 b 271 403 86 -43 271 403 b 356 575 300 474 328 529 b 439 699 385 621 413 661 b 508 683 461 692 483 686 b 568 679 528 681 547 679 b 717 707 617 679 668 689 b 731 713 721 708 726 711 b 733 710 731 711 732 711 b 790 654 758 697 776 678 b 803 617 794 647 799 635 b 779 313 814 567 819 472 b 779 311 779 313 779 311 b 735 163 754 260 739 210 b 683 54 722 132 706 93 b 485 -107 639 -21 575 -85 b 358 -112 446 -117 403 -118 z "},"K":{"ha":1469,"x_min":0,"x_max":0,"o":"m 932 313 b 1094 264 989 297 1044 282 b 1207 218 1136 249 1174 235 b 1219 76 1222 161 1222 108 l 1218 58 b 1217 -12 1217 39 1215 14 b 1246 -124 1218 -65 1228 -103 b 1253 -131 1249 -126 1250 -128 b 1304 -136 1263 -140 1286 -157 b 1263 -78 1321 -117 1271 -87 b 1249 -36 1263 -78 1253 -68 b 1247 -12 1247 -29 1247 -21 b 1249 60 1246 15 1247 42 l 1251 83 b 1249 196 1256 125 1254 163 b 1371 89 1306 164 1346 128 b 1401 4 1388 63 1399 33 l 1401 4 b 1386 -50 1403 -19 1386 -50 b 1389 -94 1379 -62 1368 -89 b 1408 -75 1400 -97 1406 -85 b 1411 -65 1410 -74 1411 -69 b 1383 96 1422 -6 1414 49 b 1247 213 1356 139 1310 178 b 1206 336 1235 285 1210 331 b 1151 418 1192 367 1174 394 b 1244 503 1183 440 1214 468 b 1399 736 1296 561 1346 638 b 1400 736 1400 736 1400 736 b 1485 875 1400 738 1436 807 b 1571 974 1517 919 1546 951 b 1610 992 1594 992 1610 992 b 1679 1006 1624 994 1678 979 b 1629 1036 1682 1040 1629 1036 b 1560 1003 1629 1036 1600 1035 b 1543 990 1554 999 1549 994 b 1460 893 1518 967 1489 935 b 1403 804 1438 861 1418 829 b 1101 464 1365 743 1240 554 b 1006 521 1071 488 1039 507 b 1046 656 1018 560 1032 606 b 1149 918 1078 771 1115 858 b 1200 1036 1229 957 1240 1025 b 1135 967 1174 1042 1150 1003 b 618 924 1032 938 622 924 b 256 865 468 918 346 899 b 76 654 133 819 74 749 b 131 553 78 617 96 582 b 154 533 138 546 146 540 b 94 372 110 456 96 379 b 149 7 65 222 83 99 b 308 -115 197 -60 263 -96 b 397 -140 356 -135 393 -140 b 472 -146 424 -144 449 -146 b 565 -135 506 -146 536 -143 b 706 -60 617 -122 663 -97 b 922 289 785 10 853 119 l 932 313 z m 992 478 b 1040 447 1007 468 1024 458 b 1053 438 1046 444 1049 442 b 971 417 1026 426 999 418 b 992 478 978 435 985 454 z m 774 522 b 832 531 774 522 793 533 b 936 504 858 529 893 524 b 900 424 925 478 913 451 b 767 474 861 429 799 443 b 758 508 757 483 751 496 b 774 522 763 514 765 518 z m 1058 793 b 953 542 1040 749 1003 653 b 890 557 932 549 910 554 b 743 538 822 569 767 563 b 724 485 722 518 721 499 b 789 414 729 444 782 417 b 876 375 818 397 847 383 b 861 344 871 365 867 354 b 674 386 800 358 736 372 b 640 393 663 388 651 390 b 599 631 656 494 642 575 b 464 703 547 697 471 703 b 274 661 393 710 329 694 b 161 546 231 635 192 596 b 161 546 161 546 161 546 b 90 654 118 576 92 611 b 135 775 89 700 104 742 b 261 853 164 806 206 832 b 618 910 349 885 469 904 b 1103 946 635 911 964 922 b 881 910 1036 925 946 915 b 717 872 813 904 757 892 b 640 801 679 854 654 831 b 632 726 629 778 626 753 b 654 669 635 707 643 688 b 710 633 660 663 686 621 b 683 704 738 647 699 688 b 661 767 683 704 656 732 b 668 788 663 774 664 781 b 883 879 685 824 735 868 b 1114 918 999 888 1069 903 b 1069 821 1099 889 1083 856 l 1069 821 l 1058 793 z m 485 669 b 575 611 508 663 546 649 b 611 400 613 563 625 492 b 213 515 456 433 311 468 b 485 669 257 589 347 693 z m 189 6 b 164 47 185 13 174 26 b 181 451 133 114 93 250 b 206 504 181 451 189 474 b 264 479 224 496 243 488 b 608 386 358 442 479 414 b 606 365 607 379 607 372 b 558 233 594 313 579 268 b 500 168 542 204 522 182 b 401 156 463 146 426 149 b 343 206 400 156 364 165 b 328 269 332 224 328 244 l 328 269 b 354 339 329 311 354 339 b 354 407 364 356 386 390 b 311 369 325 421 311 369 b 297 290 311 369 299 331 l 297 290 b 315 190 294 251 300 218 b 394 126 343 140 390 126 b 515 143 424 118 469 114 b 635 360 572 178 613 251 b 639 379 636 367 638 372 b 671 372 650 376 660 375 b 856 331 732 358 794 346 b 653 3 788 196 715 68 b 224 -29 504 -149 314 -103 b 189 6 213 -18 200 -7 z m 1100 276 b 938 325 1049 294 994 311 b 951 360 940 333 944 346 b 1054 371 986 357 1021 361 b 1107 392 1072 376 1090 383 b 1201 236 1156 342 1185 288 b 1100 276 1171 250 1138 264 z "},"L":{"ha":1046,"x_min":0,"x_max":0,"o":"m 1057 -312 b 828 -283 978 -312 900 -303 b 647 -208 765 -265 704 -240 b 436 -49 556 -157 485 -96 b 461 -31 444 -43 453 -37 b 507 -69 475 -43 490 -56 b 1010 -244 636 -185 811 -256 b 1038 -242 1018 -243 1028 -243 b 1181 -183 1093 -235 1140 -215 b 1204 -162 1188 -178 1196 -171 b 1229 -135 1213 -154 1221 -144 b 1238 -124 1235 -128 1238 -124 b 1246 -62 1238 -124 1271 -79 b 1192 -104 1217 -44 1200 -86 b 1151 -167 1192 -104 1175 -147 b 1033 -211 1118 -190 1079 -206 b 701 -136 919 -225 789 -178 b 494 -8 607 -90 529 -37 b 676 224 564 46 625 128 b 713 247 689 231 701 239 b 983 571 807 313 893 415 b 1064 725 985 574 1026 643 b 1122 976 1117 840 1136 925 b 1085 1026 1117 1000 1104 1017 b 1019 1031 1081 1029 1057 1042 b 919 953 988 1021 953 994 b 792 718 876 900 833 821 b 715 518 765 654 740 585 b 596 219 676 415 638 310 b 367 197 526 193 450 186 b 222 254 311 206 263 224 b 190 282 211 263 200 272 b 119 433 151 322 129 382 b 156 742 88 589 156 742 b 246 879 186 817 213 847 b 443 969 319 953 400 967 b 604 921 508 971 569 953 b 657 735 654 878 671 815 b 619 624 647 674 621 625 b 619 624 619 624 619 624 b 531 525 597 579 567 546 b 463 515 504 511 463 515 b 390 492 440 517 385 522 b 457 472 396 464 451 471 b 521 486 469 472 493 475 b 647 610 557 501 608 535 b 688 729 649 614 676 664 b 625 944 704 819 682 893 b 419 999 579 985 501 1006 b 278 960 371 994 322 982 b 154 863 229 936 188 903 b 75 696 118 817 90 760 b 68 469 58 624 56 547 b 114 332 69 463 76 400 b 203 231 138 292 167 257 b 363 167 247 197 301 175 b 578 181 440 156 511 161 b 533 100 564 151 549 125 b 468 14 511 64 489 36 b 275 88 403 68 325 97 b 224 50 251 83 233 69 b 221 3 215 33 215 18 b 299 -60 238 -37 292 -58 b 299 -60 299 -60 299 -60 b 356 -71 318 -67 336 -71 b 422 -56 378 -71 400 -65 b 640 -221 472 -103 544 -167 b 824 -296 699 -254 760 -279 b 1050 -326 896 -317 971 -326 l 1074 -326 b 1283 -301 1107 -325 1189 -321 b 1481 -239 1356 -286 1422 -265 b 1660 -111 1554 -204 1614 -162 b 1665 -104 1661 -108 1664 -107 b 1667 -78 1671 -96 1676 -85 b 1631 -103 1650 -64 1636 -90 b 1593 -154 1631 -103 1617 -135 b 1475 -226 1560 -181 1519 -206 b 1281 -287 1418 -253 1353 -274 b 1078 -312 1190 -307 1113 -311 l 1057 -312 z m 1093 968 b 1036 739 1101 938 1097 874 b 957 586 999 657 957 588 b 957 586 957 586 957 586 b 831 400 914 513 872 451 b 704 278 789 350 747 310 b 783 465 733 338 760 401 b 900 785 825 575 863 688 b 1064 999 975 985 1038 1003 b 1079 994 1072 997 1076 996 b 1093 968 1085 988 1090 979 z m 356 44 b 383 28 364 40 372 35 b 438 -11 399 18 415 6 b 413 -26 429 -18 421 -22 b 363 18 392 -7 375 8 b 267 53 325 46 292 58 b 281 58 271 56 275 57 b 335 53 296 61 314 58 b 356 44 342 51 349 49 z m 308 -32 b 250 14 296 -26 258 -8 b 249 28 247 18 247 22 b 268 39 251 31 257 36 b 354 7 283 42 311 39 b 399 -32 365 -1 381 -15 b 308 -32 369 -43 339 -42 z "},"M":{"ha":1750,"x_min":0,"x_max":0,"o":"m 1558 -81 b 1685 -147 1599 -131 1650 -144 b 1703 -147 1690 -147 1696 -147 b 1746 -119 1718 -146 1749 -142 b 1674 -103 1742 -86 1694 -99 b 1617 -93 1674 -103 1644 -111 b 1582 -62 1604 -85 1593 -75 b 1567 329 1511 29 1533 200 b 1726 753 1608 494 1669 639 b 1892 885 1794 797 1850 843 b 1958 999 1947 943 1958 979 b 1942 1031 1958 1013 1953 1024 b 1882 1022 1926 1040 1907 1038 b 1826 981 1872 1015 1851 1001 b 1621 721 1775 938 1693 854 b 1376 504 1526 657 1443 583 b 1286 375 1342 461 1311 418 b 1265 585 1286 436 1279 500 b 1267 929 1254 657 1226 794 b 1311 1036 1333 969 1347 1026 b 1231 957 1285 1043 1251 994 b 974 910 1194 942 1119 921 b 911 903 951 908 931 906 b 540 843 847 897 696 882 b 246 732 419 814 321 776 b 76 538 151 678 94 611 b 94 425 67 497 74 460 b 121 394 103 414 111 404 b 114 375 117 383 115 376 b 122 1 61 219 64 94 b 264 -115 154 -49 203 -90 b 347 -140 307 -135 343 -140 b 421 -146 372 -144 397 -146 b 515 -135 454 -146 485 -143 b 665 -60 568 -122 617 -97 b 857 164 729 -10 792 63 b 1196 82 983 139 1101 114 b 1333 17 1257 61 1301 39 b 1356 -3 1342 10 1350 4 b 1369 -47 1371 -19 1369 -47 b 1392 -86 1369 -61 1371 -92 b 1400 -50 1410 -82 1400 -53 b 865 176 1371 67 1133 124 b 940 306 889 215 914 258 b 1104 654 944 314 1006 419 b 1215 872 1142 743 1181 815 b 1196 578 1201 807 1189 706 b 1194 254 1203 422 1200 319 b 1214 160 1194 254 1182 167 b 1269 217 1238 154 1256 156 b 1446 535 1325 383 1410 493 b 1592 663 1489 581 1539 624 b 1549 553 1576 629 1561 593 b 1546 -62 1438 226 1486 26 b 1558 -81 1550 -69 1554 -76 z m 765 811 b 975 879 797 842 858 871 b 1207 917 1089 888 1161 903 b 1133 788 1183 879 1157 835 b 769 194 1081 692 919 403 b 593 231 711 207 650 218 b 653 358 615 265 635 308 b 651 632 693 478 693 571 b 528 703 607 697 533 703 b 332 663 457 710 392 696 b 204 547 285 636 242 597 b 126 408 165 494 140 442 b 107 433 119 417 113 425 b 90 533 88 464 82 497 b 253 721 107 604 161 667 b 543 829 326 764 425 800 b 821 879 646 854 746 871 b 799 869 813 876 806 874 b 715 796 760 851 731 826 b 715 672 694 757 696 711 b 765 635 718 667 739 622 b 750 706 796 649 763 689 b 738 771 750 706 725 735 b 765 811 744 788 751 799 z m 335 282 b 551 225 400 261 474 242 b 501 176 536 206 519 189 b 389 156 457 146 415 147 b 389 156 389 156 389 156 b 340 199 389 156 356 164 b 331 240 335 211 331 225 b 335 282 331 263 335 282 z m 340 296 b 368 339 351 322 368 339 b 378 407 381 356 408 390 b 331 369 351 421 331 369 b 308 306 331 369 317 340 b 169 372 254 325 207 347 b 211 451 181 397 194 424 b 554 667 211 451 349 714 b 626 615 575 661 606 646 b 653 526 642 592 651 563 b 624 368 654 482 644 429 b 560 238 606 315 585 271 b 340 296 482 254 406 274 z m 156 7 b 136 47 151 13 143 26 b 164 360 117 101 101 207 b 306 292 203 333 250 313 b 313 186 296 251 299 215 b 381 126 333 139 378 126 b 519 151 426 113 476 122 b 585 218 543 168 564 190 b 761 182 642 206 701 194 b 614 11 708 111 657 50 b 201 -43 447 -132 285 -108 b 156 7 185 -29 168 -12 z m 1869 907 b 1757 811 1840 876 1801 843 b 1797 882 1771 838 1785 861 b 1831 931 1808 900 1819 917 b 1851 954 1838 940 1844 947 b 1874 976 1857 961 1865 969 b 1926 1006 1906 1006 1921 1008 b 1928 999 1926 1004 1928 1004 b 1869 907 1928 983 1913 951 z "},"N":{"ha":1604,"x_min":0,"x_max":0,"o":"m 1776 1024 b 1410 528 1675 988 1515 856 b 1364 331 1386 457 1372 390 b 1333 449 1356 367 1344 406 b 1275 935 1307 549 1246 739 b 1311 1036 1333 974 1344 1026 b 1231 957 1283 1043 1251 994 b 972 910 1194 942 1118 921 b 911 903 950 908 929 906 b 538 843 847 897 694 882 b 243 733 417 814 318 776 b 76 536 149 678 93 611 b 96 421 67 494 74 456 b 119 392 103 410 110 400 b 114 375 115 382 114 376 b 121 1 61 219 64 94 b 263 -115 153 -49 201 -90 b 346 -140 307 -135 342 -140 b 421 -146 371 -144 396 -146 b 514 -135 453 -146 483 -143 b 664 -60 567 -122 617 -97 b 839 138 724 -14 781 50 b 871 131 850 135 860 133 b 1292 31 1015 100 1165 68 b 1306 26 1296 29 1301 28 b 1308 -17 1307 11 1308 -3 b 1349 -143 1308 -17 1310 -137 b 1406 -7 1382 -147 1406 -140 b 1515 -56 1449 -22 1485 -39 b 1560 -103 1535 -68 1560 -103 b 1601 -118 1569 -114 1589 -135 b 1590 -89 1610 -107 1597 -96 b 1406 8 1549 -54 1489 -22 b 1406 53 1406 24 1406 38 b 1414 133 1407 72 1410 101 b 1558 697 1429 271 1468 481 b 1804 1000 1608 819 1693 971 b 1850 1004 1821 1004 1836 1006 b 1903 978 1885 1003 1903 978 b 1969 947 1917 961 1946 924 b 1960 990 1983 961 1971 979 b 1946 1001 1956 994 1950 997 l 1946 1001 b 1796 1029 1917 1021 1865 1047 b 1776 1024 1789 1028 1782 1026 z m 108 428 b 89 533 86 461 81 496 b 250 721 106 604 160 668 b 540 829 324 764 422 800 b 821 879 643 856 746 871 b 797 869 813 876 806 874 b 714 796 758 851 731 826 b 715 672 694 757 694 711 b 765 635 717 667 739 622 b 749 706 796 649 761 689 b 736 771 749 706 724 735 b 742 781 738 775 739 778 b 975 879 761 819 818 868 b 1207 917 1088 888 1160 903 b 1132 788 1182 879 1157 835 b 751 171 1078 688 906 379 b 578 211 692 183 633 197 b 651 358 606 249 631 297 b 650 632 693 478 693 571 b 526 703 607 697 533 703 b 331 663 456 710 390 696 b 204 547 285 636 242 597 b 125 406 163 493 138 439 b 108 428 118 413 113 421 z m 332 269 b 392 249 350 263 371 256 b 535 207 436 233 485 221 b 500 176 524 196 513 185 b 388 156 456 146 414 147 b 388 156 388 156 388 156 b 339 199 388 156 356 164 b 332 269 331 218 328 242 z m 335 283 b 368 339 344 317 368 339 b 376 407 379 356 407 390 b 329 369 350 421 329 369 b 306 294 329 369 313 333 b 167 368 250 317 203 340 b 210 451 179 394 193 422 b 553 667 210 451 349 714 b 625 615 575 661 604 646 b 651 526 642 592 650 563 b 622 368 653 482 643 429 b 546 219 601 304 575 256 b 335 283 469 239 397 260 z m 154 7 b 135 47 150 14 142 26 b 161 354 117 100 100 206 b 210 324 176 344 192 333 b 303 281 236 308 267 294 b 311 186 296 244 299 213 b 379 126 333 139 376 126 b 518 151 426 113 475 122 b 568 199 536 164 553 179 b 742 158 625 185 683 171 b 613 11 696 97 651 46 b 200 -43 446 -132 283 -108 b 154 7 183 -29 168 -14 z m 1296 44 b 874 144 1169 81 1019 114 b 847 150 865 146 856 149 b 939 306 876 196 907 247 b 1103 654 943 314 1006 419 b 1225 889 1144 751 1188 831 b 1251 429 1218 806 1214 643 b 1304 42 1282 256 1297 131 b 1296 44 1301 42 1299 43 z "},"O":{"ha":958,"x_min":0,"x_max":0,"o":"m 1469 908 b 1456 867 1447 908 1451 879 b 1453 819 1456 867 1463 842 b 1399 749 1443 796 1425 772 b 1167 667 1347 704 1268 676 b 1006 679 1118 661 1064 665 b 846 736 956 692 901 711 b 801 757 831 743 817 750 b 911 879 853 792 893 835 b 913 999 933 931 933 971 b 775 1035 874 1047 785 1036 b 600 968 768 1033 697 1026 b 531 919 576 954 553 938 b 232 1019 458 965 318 1047 b 172 961 204 1011 183 992 b 175 875 161 933 161 904 b 219 815 183 856 199 835 b 310 749 239 797 268 772 b 349 728 322 742 335 735 b 247 565 313 679 279 625 b 121 217 178 436 136 319 b 149 -17 107 124 117 44 b 229 -106 168 -54 196 -83 b 342 -143 261 -125 300 -139 b 393 -146 360 -146 376 -146 b 622 -68 479 -146 557 -119 b 771 138 700 -7 746 78 b 842 450 800 211 835 336 b 825 619 844 517 840 574 b 751 728 811 668 786 704 b 789 749 764 733 776 740 b 839 724 806 740 822 732 b 1003 667 897 697 951 678 b 1128 650 1046 656 1088 650 b 1168 653 1142 650 1154 651 b 1408 739 1272 663 1354 692 b 1483 875 1463 785 1479 839 b 1483 875 1483 875 1483 875 b 1469 908 1485 882 1486 908 z m 447 728 b 576 874 494 788 538 836 b 750 768 625 842 685 804 b 724 756 742 764 733 760 b 447 728 724 756 581 685 z m 888 981 b 897 960 892 975 896 968 b 894 926 897 956 899 943 b 885 894 893 917 889 906 b 765 776 869 861 836 818 b 588 883 697 813 636 851 b 847 1003 729 1014 824 1007 b 888 981 864 999 879 992 z m 236 1006 b 518 910 314 1032 447 956 b 431 828 488 886 458 858 b 368 753 408 804 388 779 b 188 961 156 856 182 946 b 236 1006 197 985 214 999 z m 778 654 b 790 617 782 647 786 635 b 742 222 803 558 808 438 b 671 54 742 222 719 136 b 472 -107 626 -21 563 -85 b 346 -112 433 -117 390 -118 b 314 -107 335 -111 324 -110 b 258 403 74 -44 258 403 b 343 575 288 472 315 529 b 426 699 372 621 400 661 b 496 683 449 692 471 686 b 556 679 515 681 535 679 b 704 707 604 679 656 689 b 718 713 708 708 713 711 b 778 654 740 701 761 686 z "},"P":{"ha":1496,"x_min":0,"x_max":0,"o":"m 461 31 b 558 54 494 31 526 39 b 742 250 625 86 688 151 b 743 253 743 250 743 251 b 843 232 778 246 811 239 b 611 -79 774 68 682 -31 b 539 -58 588 -72 558 -64 b 375 -58 499 -49 385 -14 b 647 -122 365 -104 497 -189 b 789 -146 681 -132 735 -146 b 882 -126 821 -146 854 -140 l 882 -126 b 917 -78 882 -126 932 -101 b 844 -94 899 -50 861 -82 b 783 -115 844 -94 821 -117 l 783 -115 b 688 -101 750 -114 715 -108 b 882 121 782 -46 840 35 b 1132 133 981 107 1064 114 b 1207 60 1168 111 1193 86 b 1219 -21 1219 35 1224 8 l 1219 -21 b 1194 -69 1215 -47 1194 -69 b 1183 -114 1182 -79 1164 -103 b 1213 -93 1197 -122 1210 -99 b 1217 -82 1214 -90 1215 -86 b 1219 65 1240 -26 1242 24 b 1149 139 1206 94 1181 118 b 1457 556 1426 235 1457 556 b 1218 957 1486 768 1339 892 b 1375 1013 1263 997 1311 1014 b 1410 1008 1388 1013 1400 1011 b 1446 974 1436 999 1446 974 b 1500 924 1454 954 1469 911 b 1496 981 1525 932 1501 972 b 1496 981 1496 981 1496 981 b 1375 1043 1488 994 1454 1042 b 1275 1028 1338 1044 1306 1039 b 1189 972 1244 1017 1217 997 b 1069 1017 1122 1004 1069 1017 b 851 1036 1013 1033 936 1042 b 574 1004 819 1035 706 1029 b 335 935 483 986 403 964 b 138 806 250 900 183 857 b 63 583 81 743 54 668 b 224 389 69 496 132 435 b 263 161 218 292 236 208 b 372 50 299 96 343 64 b 461 31 401 38 428 32 z m 444 -104 b 400 -65 444 -104 399 -86 b 576 -99 401 -44 511 -82 b 538 -112 561 -107 549 -111 b 444 -104 538 -112 488 -122 z m 76 585 b 147 796 69 665 93 736 b 340 922 192 846 257 888 b 576 990 407 950 488 974 b 711 1011 625 1000 671 1006 b 396 810 601 979 489 918 b 225 404 282 676 235 529 b 76 585 140 447 83 504 z m 544 81 b 403 71 499 60 451 56 b 275 201 378 81 308 113 b 271 368 261 239 260 300 b 682 264 386 322 535 293 b 713 258 692 263 701 260 b 544 81 674 190 617 115 z m 758 757 b 793 726 769 751 782 743 b 775 396 822 686 842 596 b 719 271 775 394 756 338 b 685 278 707 274 696 275 b 272 383 538 307 388 336 b 451 772 294 513 357 668 b 1058 985 600 936 810 1050 b 1163 942 1058 985 1104 974 b 1104 860 1143 919 1124 892 b 888 357 1096 846 975 661 b 847 244 875 317 863 279 b 750 265 817 251 783 258 b 804 386 785 331 803 383 b 850 621 835 479 851 558 b 818 744 850 672 839 714 b 735 794 786 790 742 794 b 546 678 664 800 599 760 b 490 556 508 618 492 558 b 485 532 488 546 485 532 b 481 504 482 517 481 504 b 500 449 481 504 471 451 b 529 511 535 447 529 490 b 535 586 529 511 524 557 b 733 764 560 651 625 772 b 758 757 742 763 749 761 z m 892 143 b 921 213 903 167 913 190 b 1014 186 954 204 985 196 b 1085 158 1039 178 1063 168 b 892 143 1031 140 967 133 z m 1372 561 b 1103 165 1372 561 1329 260 b 926 226 1053 190 993 210 b 935 249 929 233 932 242 b 1110 806 967 339 1049 686 b 1189 926 1136 856 1163 896 b 1372 561 1288 867 1400 754 z "},"Q":{"ha":1039,"x_min":0,"x_max":0,"o":"m 67 0 b 75 -46 61 -15 54 -39 b 124 10 107 -57 117 -11 b 154 49 124 10 131 36 b 175 56 161 51 168 53 b 226 54 190 58 208 58 b 253 -17 232 28 242 4 b 333 -106 272 -54 299 -83 b 446 -143 365 -125 404 -139 b 489 -146 461 -144 475 -146 b 669 -219 539 -186 596 -217 b 693 -218 678 -219 685 -219 b 725 -210 703 -217 713 -214 b 781 -168 749 -201 768 -187 b 790 -103 783 -164 818 -117 b 736 -151 760 -87 744 -132 b 689 -187 736 -151 728 -182 l 689 -187 b 671 -189 679 -189 672 -189 b 671 -189 671 -189 671 -189 b 538 -144 618 -187 576 -169 b 726 -68 607 -137 671 -111 b 874 138 804 -7 850 78 b 944 450 904 211 938 336 b 929 619 949 517 943 574 b 856 728 914 668 889 704 b 892 749 868 733 881 740 b 943 724 908 740 926 732 b 1106 667 1001 697 1056 678 b 1231 650 1150 656 1192 650 b 1272 653 1244 650 1258 651 b 1513 739 1376 663 1457 692 b 1588 875 1565 785 1583 839 b 1588 875 1588 875 1588 875 b 1574 908 1588 882 1590 908 b 1558 867 1551 908 1556 879 b 1557 819 1558 867 1565 842 b 1503 749 1546 796 1529 772 b 1271 667 1450 704 1372 676 b 1110 679 1221 661 1167 665 b 949 736 1060 692 1006 711 b 906 757 935 743 919 750 b 1015 879 957 792 996 835 b 1015 999 1038 931 1038 971 b 879 1035 978 1047 889 1036 b 703 968 871 1033 801 1026 b 633 919 679 954 657 938 b 335 1019 563 965 421 1047 b 276 961 307 1011 288 992 b 278 875 265 933 265 904 b 324 815 288 856 303 835 b 414 749 343 797 372 772 b 451 728 425 742 439 735 b 351 565 417 679 382 625 b 225 217 282 436 239 319 b 221 86 217 169 217 125 b 168 85 203 89 185 89 b 74 14 117 74 88 36 b 67 0 71 8 69 4 z m 681 874 b 854 768 729 842 788 804 b 828 756 846 764 838 760 b 551 728 828 756 685 685 b 681 874 597 788 640 836 z m 290 961 b 340 1006 301 985 317 999 b 622 910 418 1032 551 956 b 533 828 592 886 563 858 b 471 753 513 804 492 779 b 290 961 260 856 285 946 z m 333 -4 b 408 -72 360 -24 383 -47 b 450 -112 422 -86 436 -100 b 450 -112 450 -112 450 -112 b 417 -107 439 -111 428 -110 b 301 21 349 -89 315 -40 b 333 -4 313 13 324 4 z m 882 654 b 894 617 885 647 890 635 b 844 222 907 558 911 438 b 775 54 844 222 824 136 b 576 -107 729 -21 667 -85 b 500 -115 551 -112 526 -115 b 431 -51 476 -96 453 -74 b 324 42 397 -18 363 17 b 296 60 314 49 304 54 b 361 403 282 210 361 403 b 447 575 392 472 419 529 b 531 699 476 621 503 661 b 600 683 551 692 575 686 b 660 679 618 681 639 679 b 808 707 708 679 760 689 b 821 713 813 708 817 711 b 882 654 844 701 865 686 z m 868 776 b 690 883 801 813 740 851 b 951 1003 833 1014 926 1007 b 992 981 968 999 982 992 b 1000 960 996 975 999 968 b 999 926 1001 956 1001 943 b 989 894 996 917 993 906 b 868 776 974 861 940 818 z "},"R":{"ha":1469,"x_min":0,"x_max":0,"o":"m 1226 960 b 1115 1013 1168 999 1115 1013 b 833 1026 1043 1033 943 1043 b 444 932 792 1021 617 996 b 172 781 328 890 236 839 b 53 531 89 708 50 624 b 103 410 56 483 72 443 b 222 333 131 379 169 356 b 272 317 239 328 254 321 b 310 161 276 250 290 196 b 421 50 347 96 392 64 b 426 47 422 49 424 47 b 510 31 454 36 482 31 b 606 54 542 31 575 39 b 772 219 665 82 722 138 b 874 194 807 211 842 204 b 660 -79 807 53 724 -35 b 586 -58 635 -72 606 -64 b 422 -58 547 -49 432 -14 b 694 -122 413 -104 544 -189 b 836 -146 729 -132 783 -146 b 929 -126 869 -146 901 -140 b 944 -118 935 -124 939 -121 b 965 -78 957 -108 975 -93 b 893 -94 946 -50 910 -82 b 844 -114 893 -94 874 -111 b 832 -115 840 -115 836 -115 b 735 -101 797 -114 763 -108 b 951 168 846 -36 907 65 b 978 156 960 164 969 160 b 1100 58 1035 129 1075 97 b 1133 -31 1118 32 1129 3 l 1133 -31 b 1121 -83 1135 -57 1121 -83 b 1122 -128 1114 -96 1101 -124 b 1146 -99 1142 -132 1146 -101 b 1146 -99 1146 -99 1146 -99 b 1113 67 1154 -35 1143 21 b 983 168 1085 107 1043 140 b 957 181 975 172 965 176 b 982 249 965 203 975 226 b 1157 806 1015 339 1096 686 b 1228 915 1181 850 1204 886 b 1290 657 1278 867 1318 786 b 1142 476 1290 657 1258 474 b 1085 486 1142 476 1096 503 b 1100 451 1085 486 1069 468 b 1125 444 1108 447 1117 446 b 1210 244 1144 429 1190 381 b 1419 -144 1232 92 1208 -137 b 1493 -122 1464 -149 1493 -122 b 1511 -99 1500 -115 1504 -111 b 1519 -33 1515 -93 1546 -46 b 1465 -85 1488 -19 1474 -65 b 1429 -115 1465 -85 1456 -115 b 1403 -111 1421 -115 1411 -112 b 1365 -87 1390 -107 1378 -100 b 1281 253 1303 -28 1294 100 b 1171 450 1271 372 1214 426 b 1217 456 1189 451 1203 453 b 1375 647 1347 486 1375 647 b 1251 943 1399 794 1326 888 b 1422 1013 1300 993 1351 1014 b 1457 1008 1436 1013 1447 1011 b 1494 974 1483 999 1494 974 b 1549 924 1503 954 1517 911 b 1544 981 1574 932 1549 972 b 1533 996 1540 988 1533 996 b 1424 1043 1517 1015 1483 1042 b 1324 1028 1385 1044 1353 1039 b 1236 971 1292 1015 1264 997 b 1226 960 1232 967 1229 964 z m 492 -104 b 447 -65 492 -104 446 -86 b 625 -99 449 -44 558 -82 b 586 -112 610 -107 596 -111 b 492 -104 586 -112 536 -122 z m 228 346 b 113 419 176 367 139 390 b 67 531 83 450 69 488 b 181 771 64 619 101 700 b 449 919 244 828 335 878 b 693 988 535 951 622 974 b 444 810 606 953 519 896 b 271 331 307 650 267 468 b 228 346 256 336 242 340 z m 593 81 b 451 71 547 60 500 56 b 322 201 425 81 356 113 b 311 304 314 226 310 263 b 578 253 392 283 483 268 b 740 225 632 244 688 236 b 593 81 703 168 653 110 z m 810 756 b 842 726 819 749 832 740 b 822 396 869 686 890 596 b 747 238 822 394 797 318 b 581 267 693 249 636 258 b 313 318 485 282 392 297 b 499 772 322 456 389 650 b 1106 985 649 936 857 1050 b 1204 936 1106 985 1156 974 b 1153 860 1188 914 1169 889 b 935 357 1144 846 1024 661 b 879 207 919 301 900 251 b 779 232 847 217 814 225 b 790 250 783 238 786 243 b 851 386 831 321 851 383 b 899 621 883 479 899 558 b 867 744 899 672 888 714 b 783 794 833 790 789 794 b 594 678 711 800 646 760 b 539 556 557 618 539 558 b 533 533 536 549 535 540 b 528 504 529 517 528 504 b 549 449 528 504 518 451 b 576 511 583 447 578 490 b 582 588 576 511 572 557 b 621 663 590 608 604 636 b 781 764 667 735 721 768 b 810 756 781 764 800 761 z "},"S":{"ha":1100,"x_min":0,"x_max":0,"o":"m 474 828 b 201 750 372 825 276 799 b 99 650 158 722 124 689 b 47 514 71 608 53 563 b 115 289 35 424 58 346 b 189 236 136 268 161 250 b 272 -58 181 108 208 10 b 417 -140 310 -97 360 -126 b 493 -151 458 -151 490 -151 b 499 -151 496 -151 497 -151 b 579 -142 526 -151 554 -149 b 608 -135 589 -140 599 -137 b 679 -211 622 -165 647 -190 b 778 -242 713 -231 746 -242 b 818 -236 792 -242 804 -239 b 983 -82 899 -214 956 -131 b 983 -82 983 -82 983 -82 b 982 -47 988 -74 994 -56 b 951 -81 963 -37 954 -67 b 929 -137 951 -81 946 -114 b 814 -222 900 -174 861 -210 b 686 -199 772 -233 729 -225 b 621 -132 657 -181 636 -158 b 983 565 917 -43 958 304 b 1174 807 1042 622 1122 713 b 1225 999 1224 897 1240 960 b 1183 1036 1218 1017 1204 1029 b 1139 1038 1172 1040 1156 1040 b 1079 1014 1119 1033 1099 1025 b 974 888 1039 988 1003 944 b 900 614 938 817 914 725 b 888 514 896 581 892 547 b 739 322 856 478 796 407 b 626 122 690 250 653 183 b 590 -76 594 46 582 -21 b 596 -106 592 -86 593 -96 b 494 -121 565 -115 531 -121 b 493 -121 493 -121 493 -121 b 294 -36 492 -121 375 -122 b 219 222 239 22 213 110 b 375 194 265 204 318 194 b 439 199 396 194 417 196 b 654 293 511 207 589 240 b 785 467 717 343 764 406 b 743 643 807 536 792 599 b 494 667 681 700 594 708 b 365 589 424 638 369 593 b 249 442 325 557 275 494 b 192 268 210 367 196 300 b 138 310 171 281 153 294 b 78 510 88 361 67 431 b 218 724 89 597 138 672 b 443 796 281 764 358 789 b 518 779 475 796 518 779 b 586 789 538 772 579 756 b 538 824 592 818 538 824 b 508 826 538 824 526 826 b 474 828 497 828 486 828 z m 756 476 b 635 317 738 421 693 363 b 435 229 574 268 503 236 b 221 254 354 219 281 229 b 458 579 233 324 281 458 b 565 631 458 579 506 613 b 736 606 625 650 696 654 b 756 476 772 564 767 513 z m 603 -74 b 639 117 596 -22 608 43 b 724 274 660 165 688 218 b 882 469 778 354 842 425 b 790 99 863 338 836 203 b 675 -62 758 26 721 -26 b 610 -101 654 -79 633 -92 b 603 -74 607 -92 604 -83 z m 1147 821 b 988 614 1106 744 1040 669 b 1018 810 996 694 1003 764 b 1154 1007 1069 967 1126 1001 b 1169 1008 1161 1008 1167 1008 b 1174 1007 1172 1008 1174 1007 b 1196 988 1186 1003 1193 997 b 1147 821 1204 967 1203 922 z "},"T":{"ha":1096,"x_min":0,"x_max":0,"o":"m 1517 911 b 1451 872 1489 931 1463 889 b 1400 844 1451 872 1439 850 l 1400 844 b 1143 886 1290 826 1146 885 b 1143 886 1143 886 1143 886 b 1029 938 1106 900 1068 918 b 683 1035 932 983 824 1036 b 424 1019 601 1042 507 1036 b 171 904 315 997 228 957 b 86 694 113 847 83 778 b 131 564 89 647 103 603 b 171 515 142 546 156 531 b 133 315 149 454 136 388 b 165 99 133 308 128 206 b 265 -58 189 35 222 -18 b 474 -144 321 -108 390 -137 b 506 -146 476 -144 489 -146 b 654 -112 539 -146 593 -140 b 801 7 710 -86 760 -47 b 882 146 833 46 860 92 b 953 56 914 117 938 88 b 971 -22 964 31 969 6 l 971 -22 b 954 -76 972 -44 954 -76 b 958 -121 947 -89 938 -117 b 979 -92 975 -125 979 -93 b 979 -92 979 -92 979 -92 b 965 61 990 -36 986 15 b 888 158 949 96 924 128 b 921 261 900 190 911 225 b 921 263 921 261 921 263 b 1149 842 921 267 1028 707 b 1375 811 1224 818 1301 804 b 1396 813 1382 811 1389 811 b 1496 853 1436 818 1469 831 b 1508 864 1497 853 1503 857 b 1517 911 1521 876 1536 897 z m 481 926 b 729 989 490 936 572 1017 b 908 935 729 989 826 969 b 1110 854 971 908 1039 878 b 865 396 1040 778 935 629 b 803 217 846 329 825 269 b 688 274 768 238 728 256 b 757 424 718 318 742 368 b 776 564 758 429 776 490 b 671 785 776 665 740 742 b 539 814 635 807 589 817 b 431 790 503 813 467 804 b 454 886 431 824 439 857 b 481 926 461 900 469 914 z m 407 724 b 435 658 414 700 422 678 b 482 601 438 654 453 628 b 628 536 524 563 574 540 b 629 536 628 536 628 536 b 631 536 629 536 631 536 b 647 536 633 536 640 536 b 683 568 664 538 689 544 b 607 579 674 600 628 585 b 560 585 607 579 592 572 b 504 622 539 594 521 607 b 461 674 476 649 463 674 b 461 675 461 674 461 674 b 435 743 449 694 439 718 b 586 782 503 783 561 785 b 656 758 613 778 636 771 b 728 672 688 738 713 710 b 746 564 740 642 746 606 b 728 433 746 493 728 433 b 728 432 728 432 728 432 b 658 286 713 378 689 329 b 544 332 621 303 583 318 b 242 475 438 375 325 419 b 235 481 239 478 236 479 b 239 492 236 485 238 489 b 407 724 292 611 351 682 z m 279 -29 b 229 468 217 39 122 204 b 235 464 231 467 232 465 b 540 319 318 407 431 363 b 650 275 576 306 614 290 b 635 257 644 269 640 263 b 622 243 631 253 626 247 l 622 244 b 557 210 601 224 557 210 b 517 161 539 204 497 192 b 576 163 533 133 576 163 b 638 214 576 163 611 185 l 636 214 b 657 236 643 221 650 229 b 679 263 665 244 672 254 b 799 204 721 244 761 225 b 421 -106 689 -53 557 -132 b 288 -36 368 -93 324 -69 b 279 -29 285 -33 282 -32 z m 142 571 b 100 694 115 608 101 650 b 181 893 97 774 125 840 b 426 1006 235 946 321 985 b 589 1024 478 1017 535 1022 b 426 900 515 1006 458 963 b 400 776 407 863 399 819 b 388 771 396 775 392 772 b 214 604 318 733 258 675 b 176 529 200 581 188 556 b 142 571 163 543 151 557 z "},"U":{"ha":1511,"x_min":0,"x_max":0,"o":"m 1304 -81 b 1440 -147 1347 -136 1406 -147 l 1440 -147 l 1449 -147 b 1492 -119 1464 -146 1494 -142 b 1419 -103 1488 -86 1440 -99 b 1361 -93 1419 -103 1390 -111 b 1328 -62 1350 -85 1338 -75 b 1311 329 1256 29 1279 200 b 1472 753 1353 494 1415 639 b 1636 885 1539 797 1596 843 b 1704 999 1693 943 1704 979 b 1688 1031 1704 1013 1699 1024 b 1628 1022 1672 1040 1651 1038 b 1571 981 1617 1015 1596 1001 b 1347 685 1515 933 1424 840 b 1078 251 1228 540 1146 383 b 1008 124 1053 206 1031 163 b 813 233 953 161 885 197 b 1056 913 872 475 1010 807 b 1060 918 1057 914 1058 917 b 1125 1036 1143 958 1164 1025 b 1044 957 1097 1043 1064 994 b 1035 953 1042 956 1038 954 b 636 953 974 956 811 961 b 307 915 507 947 396 935 b 72 817 194 892 115 858 b 33 722 44 789 31 757 b 86 617 35 688 51 653 b 215 515 115 585 158 551 b 599 319 319 450 463 383 b 728 260 642 300 686 279 b 719 219 725 246 722 232 b 728 -8 700 118 703 42 b 803 -68 744 -40 769 -61 b 835 -71 814 -69 824 -71 b 968 7 882 -71 925 -46 b 1028 94 988 32 1007 61 b 1153 -28 1086 54 1131 14 b 1156 -79 1165 -50 1156 -79 b 1168 -121 1151 -92 1147 -121 b 1183 -96 1181 -121 1183 -106 b 1143 13 1186 -61 1172 -25 b 1035 107 1118 43 1082 74 b 1081 192 1049 133 1064 161 b 1281 513 1153 321 1229 438 b 1290 -62 1188 210 1235 22 b 1304 -81 1296 -69 1300 -76 z m 606 332 b 222 528 468 396 326 463 b 47 724 107 600 49 664 b 82 807 46 754 57 782 b 310 903 124 847 200 879 b 638 939 399 921 508 933 b 994 940 782 946 918 943 b 786 910 929 924 846 914 b 611 869 714 904 656 892 b 528 796 572 851 544 826 b 528 672 508 757 508 711 b 579 635 531 667 551 622 b 563 706 608 649 575 689 b 550 771 563 706 538 735 b 554 781 551 775 553 778 b 788 879 575 819 632 868 b 1022 917 903 888 976 903 b 822 531 978 846 901 710 b 731 272 782 440 751 351 b 606 332 689 293 647 313 z m 944 26 b 853 -39 913 -11 883 -33 b 810 219 772 -50 774 65 b 1001 113 881 183 946 149 b 944 26 982 79 964 50 z m 1615 907 b 1501 811 1585 876 1547 843 b 1543 882 1517 838 1531 861 b 1576 931 1553 900 1565 917 b 1596 954 1583 940 1590 947 b 1619 976 1603 961 1611 969 b 1671 1006 1650 1006 1667 1008 b 1674 999 1672 1004 1674 1004 b 1615 907 1674 983 1658 951 z "},"V":{"ha":1289,"x_min":0,"x_max":0,"o":"m 1639 1004 b 1686 978 1674 1003 1686 978 b 1747 947 1697 961 1718 924 b 1738 997 1768 965 1747 988 b 1614 1035 1718 1015 1676 1042 b 1454 954 1564 1028 1510 1001 b 1253 711 1390 900 1322 818 b 997 218 1142 540 1056 363 b 997 449 1001 286 1000 360 b 1035 892 993 542 979 713 b 1061 1038 1107 961 1108 1042 b 1000 933 1032 1035 1011 979 b 385 818 921 878 732 853 b 92 688 249 804 150 761 b 39 519 29 608 38 525 b 104 393 42 474 64 431 b 251 299 139 360 188 328 b 669 168 371 246 522 206 b 883 110 744 149 818 129 b 865 -17 878 60 871 18 b 876 -143 865 -17 839 -137 b 956 -46 906 -146 928 -142 b 996 71 964 -19 978 21 b 1143 -31 1068 42 1121 10 b 1149 -44 1146 -35 1147 -39 l 1149 -44 b 1138 -94 1157 -68 1138 -94 b 1136 -139 1129 -106 1114 -133 b 1163 -103 1154 -143 1163 -106 b 1156 -25 1171 -75 1168 -49 b 1000 83 1133 15 1083 50 b 1221 601 1053 232 1138 450 b 1278 694 1239 633 1258 664 b 1618 1004 1433 935 1549 996 b 1639 1004 1625 1004 1632 1006 z m 249 406 b 283 390 256 393 268 382 b 279 461 317 406 289 444 b 261 521 279 461 260 490 b 297 622 265 553 276 588 b 626 785 368 733 515 772 b 985 875 819 808 928 847 b 910 429 958 788 921 632 b 885 124 903 304 894 203 b 674 182 821 143 749 163 b 257 311 526 219 375 258 b 114 403 194 340 147 371 b 53 521 76 439 56 478 b 53 521 53 521 53 521 b 103 679 53 522 43 604 b 386 804 158 749 253 792 b 829 861 590 825 728 840 b 958 896 883 871 925 883 b 942 889 953 894 947 892 b 622 815 844 849 715 826 b 396 749 533 806 457 782 b 272 638 342 719 300 682 b 231 525 250 603 236 565 b 240 425 228 490 231 456 b 249 406 243 417 246 410 z "},"W":{"ha":1615,"x_min":0,"x_max":0,"o":"m 2100 997 b 1978 1035 2081 1015 2040 1042 b 1818 954 1928 1028 1874 1001 b 1615 711 1753 900 1685 818 b 1361 218 1506 540 1419 363 b 1360 449 1365 286 1364 360 b 1383 796 1357 525 1353 663 b 1393 838 1383 796 1386 815 b 1378 928 1404 875 1415 926 b 1346 900 1365 928 1354 917 b 1275 793 1331 881 1306 844 b 1121 456 1232 719 1169 603 b 1060 263 1099 390 1079 325 b 1025 150 1049 224 1036 186 b 1000 154 1017 151 1008 153 b 1004 449 1010 240 1010 331 b 1043 892 1000 542 986 713 b 1068 1038 1114 961 1117 1042 b 1007 933 1040 1035 1019 979 b 393 818 928 878 739 853 b 99 688 256 804 157 761 b 46 519 36 608 46 525 b 129 392 50 474 78 431 b 321 299 174 358 236 328 b 869 167 475 244 676 204 b 897 161 879 164 888 163 b 874 -17 889 88 881 29 b 885 -143 874 -17 847 -137 b 921 -135 899 -144 910 -144 b 1051 129 971 -96 1010 1 b 1244 85 1119 115 1185 100 b 1229 -17 1239 46 1233 13 b 1240 -143 1229 -17 1203 -137 b 1318 -46 1269 -146 1292 -142 b 1351 51 1326 -24 1338 10 b 1504 -44 1435 21 1485 -10 b 1508 -51 1506 -47 1507 -49 b 1499 -96 1517 -72 1499 -96 b 1499 -140 1492 -107 1475 -136 b 1525 -101 1515 -143 1524 -110 b 1517 -37 1532 -79 1528 -57 b 1357 64 1494 0 1443 33 b 1585 601 1408 213 1497 443 b 1642 694 1603 633 1621 664 b 1981 1004 1796 935 1911 996 b 2003 1006 1989 1004 1996 1006 l 2003 1004 b 2050 978 2038 1003 2050 978 b 2111 947 2060 961 2082 924 b 2100 997 2131 965 2111 988 z m 249 425 b 292 390 251 413 267 376 b 288 461 325 406 297 444 b 269 521 288 461 268 490 b 306 622 274 553 283 588 b 635 785 376 733 524 772 b 993 875 828 808 936 847 b 918 429 967 788 928 632 b 899 175 913 329 906 244 b 872 181 890 176 881 178 b 325 311 679 218 479 257 b 60 521 153 371 67 440 b 60 521 60 521 60 521 b 110 679 60 522 50 604 b 394 804 165 749 261 792 b 836 861 597 825 736 840 b 967 896 890 871 933 883 b 950 889 961 894 956 892 b 631 815 853 849 722 826 b 403 749 540 806 464 782 b 279 638 350 719 308 682 b 239 525 257 603 243 565 b 243 440 236 496 238 467 l 249 425 z m 978 14 b 999 140 988 57 994 99 b 1021 136 1007 139 1014 138 b 978 14 1007 92 992 50 z m 1056 143 b 1089 254 1067 178 1078 215 b 1150 446 1108 317 1128 381 b 1301 776 1197 590 1258 706 b 1314 799 1306 785 1310 792 b 1306 763 1311 785 1308 772 b 1274 429 1285 674 1281 571 b 1246 99 1265 290 1256 182 b 1056 143 1188 114 1124 129 z "},"X":{"ha":1369,"x_min":0,"x_max":0,"o":"m 1561 1011 b 1449 1036 1531 1033 1490 1043 b 1289 947 1399 1028 1344 997 b 1088 688 1224 889 1157 801 b 1075 665 1083 681 1079 674 b 1060 899 1063 735 1054 814 b 1051 1046 1114 985 1097 1063 b 1017 915 1021 1035 1017 965 b 389 794 938 856 747 831 b 172 733 301 786 229 765 b 65 632 126 707 90 672 b 26 497 24 564 26 501 b 96 369 28 450 51 407 b 264 278 135 336 190 307 b 751 154 401 226 579 190 b 821 140 775 150 797 144 b 738 -33 792 74 764 13 b 689 -76 719 -62 689 -76 b 647 -135 672 -85 629 -101 b 694 -135 658 -156 682 -143 b 792 3 724 -115 756 -71 b 851 133 811 42 831 86 b 1100 74 942 114 1028 94 b 1108 -28 1104 33 1107 0 b 1150 -146 1108 -28 1111 -151 b 1204 24 1183 -140 1206 -128 b 1204 35 1204 28 1204 32 b 1303 -40 1253 14 1288 -11 b 1307 -47 1304 -43 1306 -44 b 1296 -92 1314 -68 1296 -92 b 1296 -136 1289 -103 1274 -131 b 1322 -99 1314 -140 1322 -99 l 1322 -99 b 1315 -33 1329 -75 1326 -54 b 1203 50 1299 -3 1263 25 b 1126 464 1199 183 1174 299 b 1083 621 1115 503 1099 556 b 1114 671 1094 638 1104 654 b 1454 1006 1268 926 1383 994 b 1471 1007 1460 1007 1465 1007 l 1469 1007 b 1518 983 1504 1008 1518 983 b 1579 958 1528 968 1550 931 b 1576 999 1594 972 1586 988 b 1561 1011 1572 1003 1567 1007 z m 228 389 b 263 369 235 375 244 361 b 264 442 297 385 272 425 b 250 501 264 442 247 471 b 289 594 257 535 269 565 b 629 763 365 708 517 749 b 1015 864 854 789 965 835 b 1024 583 1013 800 1011 703 b 863 243 968 500 915 369 b 826 153 851 213 839 183 b 754 168 803 158 778 163 b 269 292 582 203 406 240 b 40 497 118 349 43 417 b 40 497 40 497 40 497 b 78 625 40 499 36 560 b 179 721 101 664 135 696 b 390 781 235 753 306 772 b 835 838 594 801 733 817 b 958 869 885 847 925 857 b 953 867 956 868 954 868 b 626 792 853 826 719 804 b 393 725 535 782 456 758 b 264 613 338 696 294 657 b 219 500 240 578 226 540 b 222 410 214 469 215 438 b 228 389 224 401 226 393 z m 857 147 b 892 232 868 174 879 203 b 1029 533 936 340 982 453 b 1047 419 1033 497 1039 458 b 1099 88 1072 283 1089 174 b 857 147 1028 110 944 128 z "},"Y":{"ha":1274,"x_min":0,"x_max":0,"o":"m 1747 -422 b 1174 -178 1544 -418 1364 -301 b 975 -53 1110 -136 1043 -93 b 994 -11 982 -39 988 -25 b 1111 -79 1029 -31 1069 -54 b 1688 -317 1283 -183 1506 -317 b 1821 -285 1735 -317 1781 -307 l 1821 -285 b 1838 -274 1826 -282 1832 -278 b 1847 -225 1849 -261 1861 -240 b 1781 -258 1824 -201 1794 -242 b 1742 -281 1781 -258 1767 -275 b 1483 -242 1672 -294 1588 -282 b 1126 -53 1361 -194 1236 -119 b 1006 17 1083 -28 1042 -3 b 1074 249 1035 89 1057 167 b 1094 344 1079 281 1086 313 b 1221 688 1125 458 1167 574 b 1251 753 1231 710 1240 731 b 1417 885 1319 797 1376 843 b 1485 999 1474 943 1485 979 b 1468 1031 1485 1013 1479 1024 b 1408 1022 1453 1040 1432 1038 b 1351 981 1397 1015 1376 1001 b 1144 717 1300 936 1217 853 b 964 544 1078 660 1018 600 b 782 382 894 475 836 414 b 686 360 744 360 714 351 b 833 915 585 401 783 817 b 906 1036 922 954 946 1025 b 825 957 878 1043 844 994 b 800 949 818 954 810 951 b 567 910 731 925 635 915 b 392 869 494 904 436 892 b 308 796 353 851 325 826 b 308 672 289 757 289 711 b 360 635 311 667 333 622 b 343 706 389 649 356 689 b 331 771 343 706 318 735 b 335 781 332 775 333 778 b 568 879 356 819 413 868 b 789 913 672 888 742 900 b 657 713 757 871 703 794 b 583 519 618 639 592 574 b 626 358 571 447 585 394 b 707 326 651 336 678 326 b 797 356 735 326 765 336 b 900 438 831 375 864 404 b 1099 621 949 483 1039 565 b 1074 553 1090 599 1082 576 b 968 224 1007 381 968 224 b 917 61 956 172 939 117 b 692 108 829 99 767 108 b 700 197 700 139 703 169 b 583 339 696 243 672 307 b 399 346 521 361 458 363 b 265 267 353 332 307 304 b 157 124 196 203 158 128 b 115 -232 86 -15 72 -135 b 246 -376 140 -290 186 -339 b 331 -415 289 -403 326 -414 b 471 -437 378 -429 425 -437 b 525 -433 489 -437 507 -436 b 703 -371 588 -426 647 -406 b 936 -126 792 -318 872 -235 b 969 -65 947 -107 958 -86 b 1167 -189 1038 -106 1103 -147 b 1747 -436 1358 -314 1539 -432 b 1774 -437 1749 -436 1758 -437 b 1918 -417 1806 -437 1860 -435 b 2047 -347 1969 -401 2013 -378 b 2128 -201 2089 -310 2115 -260 b 2129 -194 2129 -199 2129 -196 b 2118 -167 2131 -185 2131 -168 b 2099 -207 2096 -164 2097 -193 b 2094 -260 2099 -207 2106 -235 b 2038 -336 2081 -289 2061 -315 b 1914 -404 2006 -367 1964 -389 b 1764 -424 1851 -422 1792 -424 l 1747 -422 z m 1451 1006 b 1454 999 1453 1004 1454 1004 b 1396 907 1454 983 1439 951 b 1282 811 1365 876 1328 843 b 1315 869 1293 831 1304 850 l 1315 869 b 1357 931 1328 892 1343 914 b 1376 954 1364 940 1371 947 b 1400 976 1383 961 1392 969 b 1451 1006 1431 1006 1447 1008 z m 904 33 b 888 -6 900 21 893 8 b 839 19 872 3 856 11 b 675 63 783 46 728 60 b 681 78 676 68 679 72 b 904 33 757 79 818 71 z m 640 63 b 550 46 611 61 581 56 b 647 76 581 60 614 71 b 640 63 644 71 643 67 z m 460 -33 b 463 -26 460 -32 463 -29 b 535 26 471 -15 490 10 b 633 47 568 39 601 46 b 531 -69 606 -4 568 -49 b 481 -76 515 -78 494 -86 b 460 -33 469 -68 453 -56 z m 143 -219 b 132 -31 119 -165 115 -101 b 336 251 140 4 183 149 b 617 288 336 251 499 364 b 669 193 649 265 667 233 b 658 108 672 167 668 138 b 525 68 615 104 568 90 b 432 -24 475 42 442 8 b 463 -101 422 -53 433 -81 b 546 -96 490 -121 524 -110 b 656 25 585 -74 625 -29 b 668 49 660 33 664 40 b 833 7 722 47 776 33 b 882 -18 849 -1 865 -10 b 682 -281 832 -122 764 -221 b 267 -342 682 -281 481 -424 b 208 -310 247 -335 226 -324 b 143 -219 183 -286 160 -257 z "},"Z":{"ha":1004,"x_min":0,"x_max":0,"o":"m 713 1024 b 488 1026 653 1029 571 1033 b 247 965 390 1018 310 999 b 103 788 169 925 121 865 b 119 665 93 746 100 706 b 211 557 139 629 168 594 b 378 443 258 518 315 481 b 158 183 299 361 226 275 b 92 -21 154 176 68 60 b 142 -82 100 -46 117 -68 b 254 -94 171 -97 210 -101 b 281 -89 264 -92 272 -90 b 479 -71 317 -83 389 -72 b 703 -85 557 -69 632 -74 b 843 -115 751 -92 799 -103 b 919 -160 883 -128 919 -160 b 989 -172 933 -171 968 -203 b 957 -124 1010 -143 957 -124 l 957 -124 b 707 -54 881 -90 797 -68 b 478 -40 633 -43 557 -39 b 249 -64 346 -43 256 -62 b 217 -67 238 -67 226 -67 b 174 -53 197 -68 183 -64 b 458 396 128 8 338 258 b 515 364 478 385 497 375 b 811 176 622 304 732 243 b 904 75 854 142 885 108 b 922 38 913 63 918 50 b 918 -22 931 14 918 -22 b 929 -65 914 -35 906 -67 b 946 -32 942 -65 946 -44 b 917 82 949 7 939 44 b 821 188 896 117 864 151 b 522 376 740 254 629 315 b 468 406 504 386 486 396 b 542 486 511 454 542 486 b 1040 896 774 707 936 824 b 1101 874 1056 890 1078 881 b 1161 863 1125 867 1144 863 b 1215 890 1188 863 1206 872 b 1207 960 1229 915 1226 943 b 1128 975 1194 971 1171 983 b 1028 936 1099 971 1065 957 b 814 1011 953 971 881 996 b 713 1024 790 1015 751 1019 z m 449 921 b 454 893 444 913 444 903 b 517 915 481 867 507 894 b 576 976 517 915 538 960 b 714 993 617 990 663 996 b 996 917 797 989 894 963 b 996 917 996 917 996 917 b 993 914 994 917 993 915 b 981 908 989 913 985 910 b 736 751 906 872 821 817 b 388 453 610 663 493 563 b 221 568 325 490 267 529 b 132 672 179 604 150 638 b 117 785 113 710 108 746 b 254 953 133 857 179 914 b 488 1013 314 985 393 1004 b 606 1015 528 1015 568 1017 b 568 1006 593 1013 581 1010 b 464 939 528 992 492 969 b 449 921 457 933 453 928 z m 1189 904 b 1111 903 1182 890 1153 890 b 1069 917 1096 907 1082 913 b 1075 921 1072 918 1074 919 b 1119 942 1089 931 1106 938 b 1151 947 1135 946 1147 947 b 1186 938 1167 947 1179 944 b 1189 904 1194 929 1196 917 z "},"a":{"ha":550,"x_min":0,"x_max":0,"o":"m 601 386 b 581 378 593 389 585 386 b 481 192 581 376 538 281 b 317 42 417 92 358 39 b 297 176 285 44 269 83 b 413 522 324 265 393 467 b 403 538 415 531 410 538 l 349 538 b 322 519 336 538 326 531 b 304 467 318 504 311 486 b 229 538 299 503 279 535 b 28 383 107 544 28 383 b 46 0 -56 232 -67 14 b 204 117 113 -8 169 60 b 225 32 204 79 213 49 b 364 21 278 -33 364 21 l 363 21 b 506 175 406 42 454 93 b 608 365 565 267 608 365 b 601 386 613 374 608 382 z m 56 31 b 68 272 -4 46 68 272 b 228 508 133 497 228 508 b 263 338 304 515 269 364 b 222 211 249 296 235 253 b 56 31 197 154 113 15 z "},"b":{"ha":438,"x_min":0,"x_max":0,"o":"m 488 386 b 467 378 479 389 471 386 b 407 258 467 378 443 324 b 407 258 407 258 407 258 b 240 108 406 257 338 131 b 311 260 267 150 290 201 b 238 538 367 419 325 538 b 149 499 199 538 169 519 l 281 893 b 269 907 283 900 278 907 l 215 907 b 192 890 204 907 194 901 b -50 167 156 783 -40 201 b 17 1 -50 167 -100 14 b 25 11 22 0 26 6 b 21 111 18 25 10 56 b 96 0 25 53 46 0 b 217 75 136 0 178 26 b 364 151 267 76 317 103 b 433 243 407 194 432 240 b 496 365 471 310 494 365 b 488 386 499 374 494 382 z m 238 508 b 243 279 310 501 260 324 b 169 108 243 279 211 181 b 133 111 158 110 146 110 b 53 103 96 114 69 111 b 72 269 49 157 61 231 l 111 388 b 238 508 126 421 176 515 z m 92 36 b 68 51 82 36 74 42 b 67 65 67 53 64 58 b 113 78 71 72 81 81 b 147 75 126 76 138 75 b 92 36 129 50 110 33 z "},"c":{"ha":418,"x_min":0,"x_max":0,"o":"m 467 386 b 446 378 458 389 449 386 b 339 182 446 376 400 274 b 113 38 296 119 217 13 b 71 272 10 63 71 272 b 229 507 136 497 229 507 b 274 426 269 510 278 469 b 292 408 274 417 282 408 l 292 408 b 308 426 301 410 308 417 b 231 538 311 476 299 533 b 29 383 108 544 29 383 b -10 293 14 354 1 324 b 94 3 -10 293 -93 35 b 360 157 236 -31 349 140 b 474 365 424 253 474 364 b 467 386 478 374 474 382 z "},"d":{"ha":554,"x_min":0,"x_max":0,"o":"m 604 386 b 583 378 596 389 586 386 b 482 190 583 376 540 281 b 319 42 418 90 361 39 b 300 176 288 44 272 83 b 539 890 328 269 503 786 b 525 908 542 899 535 908 l 474 908 b 450 892 463 908 454 901 b 307 465 386 700 342 567 b 231 538 301 503 282 535 b 31 383 108 544 31 383 b 47 0 -53 232 -65 14 b 207 117 115 -8 172 60 b 228 32 206 79 214 49 b 365 21 281 -33 365 21 l 365 21 b 508 175 408 42 457 93 b 611 365 567 267 611 365 b 604 386 615 374 611 382 z m 57 31 b 71 272 -1 46 71 272 b 229 508 136 497 229 508 b 264 335 314 515 264 335 b 264 335 264 335 264 335 b 225 211 249 286 236 247 b 57 31 200 154 115 15 z "},"e":{"ha":414,"x_min":0,"x_max":0,"o":"m 465 386 b 446 378 458 389 449 386 b 339 182 444 376 399 274 b 113 38 296 119 217 13 b 57 207 47 53 49 143 b 286 421 136 206 256 283 b 231 538 311 536 231 538 b 29 383 108 544 29 383 b -10 293 14 354 0 324 b 94 3 -10 293 -93 35 b 360 157 236 -31 349 140 b 474 365 424 253 474 364 b 465 386 476 374 474 382 z m 228 507 b 253 422 228 507 275 506 b 63 239 229 336 142 244 b 71 272 67 260 71 272 b 228 507 136 497 228 507 z "},"f":{"ha":307,"x_min":0,"x_max":0,"o":"m 271 907 l 215 907 b 192 890 206 907 196 901 b 36 426 171 828 97 607 l 4 426 b -11 411 -4 426 -11 419 b 4 396 -11 403 -4 396 l 26 396 b -3 306 15 364 6 333 b 8 -318 -3 306 -206 -297 b 189 -36 107 -328 165 -192 b 125 396 214 138 189 314 l 207 396 b 222 411 215 396 222 403 b 207 426 222 419 215 426 l 125 426 l 281 893 b 271 907 283 900 278 907 z m 17 -283 b 75 276 -75 -269 75 276 l 106 368 b 17 -283 229 160 133 -300 z "},"g":{"ha":554,"x_min":0,"x_max":0,"o":"m 1192 -129 b 1161 -162 1172 -121 1164 -149 b 1140 -221 1161 -162 1158 -193 b 1063 -303 1117 -251 1090 -279 b 915 -385 1019 -339 969 -365 b 567 -406 818 -417 701 -425 b 214 -314 461 -392 343 -361 b 106 -274 176 -301 139 -287 b 147 -211 119 -254 133 -233 b 382 -262 229 -232 310 -250 b 433 -271 400 -267 417 -269 b 511 -276 461 -275 486 -276 b 696 -217 590 -276 651 -257 b 733 -160 699 -214 722 -194 b 725 -103 736 -151 751 -107 b 683 -161 696 -99 689 -137 b 632 -222 678 -182 664 -207 b 438 -240 583 -246 519 -251 b 168 -176 353 -231 260 -204 b 181 -151 172 -168 176 -160 b 247 13 210 -94 232 -36 b 364 21 299 -21 364 21 l 364 21 b 507 175 407 42 456 93 b 610 365 565 267 610 365 b 603 386 614 374 610 382 b 582 378 594 389 585 386 b 481 190 582 376 539 281 b 318 42 417 90 360 39 b 299 176 286 44 271 83 b 414 522 325 265 394 467 b 403 538 417 531 411 538 l 349 538 b 324 519 338 538 328 531 b 306 467 318 504 313 486 b 229 538 300 503 281 535 b 29 383 107 544 29 383 b 46 0 -54 232 -67 14 b 181 81 99 -7 146 35 b 83 -151 164 29 132 -64 b -204 -83 -21 -119 -121 -90 b -408 -167 -311 -74 -376 -100 b -411 -319 -435 -225 -436 -276 b -194 -421 -358 -408 -206 -421 b -162 -422 -183 -422 -172 -422 b 35 -347 -92 -422 -25 -397 b 96 -285 56 -329 76 -308 b 208 -328 132 -299 169 -314 b 564 -419 339 -374 458 -406 b 704 -429 614 -426 660 -429 b 1192 -167 932 -429 1094 -342 b 1192 -165 1192 -165 1192 -165 b 1192 -129 1194 -160 1206 -136 z m 57 31 b 69 272 -3 46 69 272 b 229 508 135 497 229 508 b 264 338 306 515 269 364 b 224 211 250 296 236 253 b 57 31 199 154 114 15 z m -143 -136 b 61 -190 -76 -153 -7 -172 b 26 -240 50 -207 39 -224 b -61 -201 -6 -226 -35 -214 b -135 -169 -90 -189 -115 -178 b -332 -142 -215 -137 -281 -128 b -143 -136 -293 -124 -231 -114 z m -136 -362 b -364 -328 -136 -362 -279 -404 b -385 -303 -372 -321 -379 -312 b -387 -197 -403 -275 -403 -239 b -385 -193 -387 -197 -386 -194 b -383 -190 -385 -192 -385 -192 b -336 -157 -383 -190 -372 -169 b -140 -183 -276 -137 -196 -160 b -67 -214 -121 -190 -96 -201 b 18 -251 -42 -225 -12 -239 b -136 -362 -25 -307 -76 -350 z "},"h":{"ha":535,"x_min":0,"x_max":0,"o":"m 583 386 b 563 378 575 389 567 386 b 463 190 563 376 519 281 b 299 42 399 90 340 39 b 279 176 267 44 251 83 b 336 350 292 218 314 285 b 268 538 336 350 403 535 b 90 328 210 539 143 435 l 279 893 b 269 907 282 900 276 907 l 214 907 b 190 890 203 907 194 901 b -99 19 157 790 -58 146 b -85 0 -101 10 -94 0 l -32 0 b -15 13 -24 0 -18 4 l -14 17 l -14 15 b 258 497 -14 15 181 504 b 253 364 297 494 253 364 b 199 189 235 307 215 246 b 207 32 178 119 186 58 b 346 21 260 -33 346 21 l 346 21 b 488 175 389 42 436 93 b 590 365 547 267 590 365 b 583 386 594 374 590 382 z "},"i":{"ha":300,"x_min":0,"x_max":0,"o":"m 346 386 b 325 378 338 389 329 386 b 225 190 325 376 282 281 b 61 42 160 90 103 39 b 42 176 29 44 14 83 b 157 522 68 265 138 467 b 147 538 160 531 154 538 l 93 538 b 67 519 81 538 71 531 b -40 189 39 436 -6 307 b -31 32 -60 119 -51 58 b 107 21 22 -33 107 21 l 107 21 b 250 175 150 42 199 93 b 353 365 308 267 353 365 b 346 386 357 374 353 382 z m 142 567 b 186 610 167 567 186 586 b 142 654 186 635 167 654 b 99 610 118 654 99 635 b 142 567 99 586 118 567 z "},"j":{"ha":297,"x_min":0,"x_max":0,"o":"m 142 567 b 185 610 165 567 185 586 b 142 654 185 635 165 654 b 97 610 117 654 97 635 b 142 567 97 586 117 567 z m 938 -129 b 908 -162 918 -121 910 -149 b 886 -221 908 -162 904 -193 b 808 -303 863 -251 838 -279 b 661 -385 767 -339 717 -365 b 313 -406 565 -417 447 -425 b -40 -314 207 -392 89 -361 b -147 -274 -78 -301 -114 -287 b -104 -211 -132 -254 -118 -233 b 131 -262 -22 -232 57 -250 b 181 -271 147 -267 164 -269 b 258 -276 208 -275 235 -276 b 443 -217 339 -276 400 -257 b 482 -160 447 -214 469 -194 b 474 -103 485 -151 500 -107 b 431 -161 443 -99 436 -137 b 381 -222 426 -182 411 -207 b 185 -240 332 -246 268 -251 b -85 -176 101 -231 8 -204 b -72 -151 -81 -168 -76 -160 b -6 10 -43 -96 -22 -39 b 107 21 44 -18 107 21 l 107 21 b 250 175 150 42 197 93 b 353 365 308 267 351 365 b 344 386 356 374 353 382 b 325 378 338 389 328 386 b 224 192 324 376 281 281 b 60 42 160 92 103 39 b 42 176 28 44 13 83 b 157 522 68 265 138 467 b 146 538 158 531 154 538 l 92 538 b 67 519 81 538 71 531 b -40 189 38 436 -6 307 b -46 169 -42 182 -44 176 b -168 -151 -54 136 -96 -17 b -457 -83 -274 -119 -372 -90 b -660 -167 -562 -74 -629 -100 b -664 -319 -687 -225 -689 -276 b -447 -421 -611 -408 -458 -421 b -414 -422 -436 -422 -425 -422 b -218 -347 -343 -422 -278 -397 b -156 -285 -196 -329 -176 -308 b -44 -328 -121 -299 -83 -314 b 311 -419 85 -374 204 -406 b 451 -429 360 -426 407 -429 b 938 -167 678 -429 842 -342 b 938 -165 938 -167 938 -165 b 938 -129 940 -160 953 -136 z m -396 -136 b -190 -190 -329 -153 -260 -172 b -225 -242 -201 -207 -212 -225 b -315 -201 -258 -226 -289 -214 b -387 -169 -344 -189 -369 -178 b -582 -140 -467 -137 -532 -128 b -396 -136 -543 -124 -481 -114 z m -389 -362 b -617 -328 -389 -362 -531 -404 b -637 -303 -625 -321 -632 -312 b -640 -197 -654 -275 -656 -239 b -633 -185 -639 -196 -636 -190 b -393 -183 -617 -167 -557 -117 b -321 -214 -375 -190 -350 -201 b -233 -253 -294 -226 -265 -239 b -389 -362 -278 -308 -329 -350 z "},"k":{"ha":461,"x_min":0,"x_max":0,"o":"m 510 386 b 490 378 503 389 493 386 b 389 192 490 376 447 281 b 243 43 333 104 283 53 b 225 43 238 42 229 42 b 168 236 172 58 165 163 b 335 350 297 226 335 350 b 267 538 335 350 401 535 b 89 328 208 539 142 435 l 278 893 b 268 907 281 900 275 907 l 213 907 b 189 890 203 907 193 901 b -100 19 156 790 -60 146 b -86 0 -103 10 -96 0 l -33 0 b -17 13 -25 0 -19 4 l -15 17 l -15 15 b 76 225 -15 15 25 117 b 135 32 76 171 86 89 b 272 21 188 -31 269 19 b 415 175 315 43 364 94 b 518 365 474 267 518 365 b 510 386 521 374 518 382 z m 100 278 b 257 497 157 392 219 501 b 272 424 278 496 279 458 b 247 361 264 389 247 361 b 100 278 247 361 204 267 z "},"l":{"ha":296,"x_min":0,"x_max":0,"o":"m 343 386 b 324 378 336 389 326 386 b 222 192 322 376 279 281 b 58 42 158 92 101 39 b 40 176 26 44 11 83 b 278 890 68 269 243 786 b 265 908 282 899 275 908 l 214 908 b 190 892 203 908 193 901 b -42 189 43 453 -6 314 b -32 32 -62 119 -54 58 b 106 21 19 -33 106 21 l 106 21 b 249 175 149 42 196 93 b 351 365 307 267 350 365 b 343 386 354 374 351 382 z "},"m":{"ha":753,"x_min":0,"x_max":0,"o":"m 804 386 b 785 378 797 389 788 386 b 683 192 783 376 740 281 b 519 42 619 92 563 39 b 500 176 488 44 472 83 b 557 350 514 218 535 285 b 489 538 557 350 624 535 b 332 386 489 538 417 551 b 253 538 343 440 350 535 b 129 444 253 538 199 549 l 156 522 b 144 538 158 529 153 538 l 89 538 b 68 522 79 538 71 531 b -99 19 -1 315 -76 89 b -83 0 -101 10 -94 0 l -32 0 b -15 13 -24 0 -17 4 l 22 124 b 243 497 167 528 243 497 b 238 364 283 494 238 364 b 150 75 222 314 174 153 b 169 50 147 63 157 50 l 211 50 b 238 69 224 50 233 58 b 246 97 240 78 243 86 b 479 497 394 515 479 497 b 474 364 519 494 474 364 b 419 189 456 307 436 246 b 429 32 399 119 407 58 b 567 21 481 -33 567 21 l 567 21 b 710 175 610 42 657 93 b 813 365 768 267 811 365 b 804 386 815 374 813 382 z "},"n":{"ha":532,"x_min":0,"x_max":0,"o":"m 582 386 b 563 378 574 389 565 386 b 461 192 561 376 518 281 b 297 42 397 92 340 39 b 278 176 265 44 250 83 b 335 350 292 218 313 285 b 267 538 335 350 401 535 b 89 326 208 539 142 433 l 154 522 b 143 538 157 529 151 538 l 88 538 b 67 522 78 538 69 531 b -100 19 -3 315 -78 89 b -85 0 -103 10 -96 0 l -33 0 b -17 13 -25 0 -18 4 l -15 17 l -15 15 b 257 497 -15 15 179 504 b 251 364 297 494 251 364 b 197 189 233 307 214 246 b 207 32 176 119 185 58 b 344 21 258 -33 344 21 l 344 21 b 488 175 388 42 435 93 b 590 365 546 267 589 365 b 582 386 593 374 590 382 z "},"o":{"ha":454,"x_min":0,"x_max":0,"o":"m 433 282 b 378 236 421 264 401 238 b 324 275 361 235 342 247 b 322 276 324 275 322 276 b 326 296 324 288 325 294 b 294 513 344 403 335 475 b 215 538 267 538 233 539 b 26 383 100 533 26 383 b -11 293 11 354 -1 324 b 92 3 -11 293 -94 35 b 156 6 92 3 124 -4 b 188 18 167 8 178 13 b 313 239 257 60 294 171 b 375 206 333 217 354 206 b 381 206 378 206 379 206 b 446 247 404 207 425 221 b 468 282 458 264 467 279 b 508 365 493 331 508 364 b 500 386 513 374 508 382 b 481 378 493 389 483 386 b 440 296 481 378 465 343 b 433 282 439 292 436 286 z m 172 44 b 110 36 153 33 132 31 b 68 272 10 63 68 272 b 228 507 138 511 228 507 l 228 507 b 274 490 242 507 258 504 b 303 363 290 474 308 439 b 254 367 289 382 269 389 b 288 260 228 324 269 278 b 267 192 282 242 275 217 b 172 44 240 117 208 67 z "},"p":{"ha":442,"x_min":0,"x_max":0,"o":"m 492 386 b 471 378 483 389 474 386 b 410 258 471 378 446 324 b 410 258 410 258 410 258 b 244 108 410 257 340 131 b 315 260 269 150 294 201 b 242 538 369 419 328 538 b 151 499 203 538 174 519 l 161 524 b 150 538 163 531 157 538 l 94 538 b 71 521 85 538 75 531 b -158 -162 35 413 -147 -128 b -90 -329 -158 -162 -208 -317 b -83 -319 -85 -329 -82 -324 b -76 -183 -92 -301 -101 -261 l 25 119 b 100 0 26 58 47 0 b 219 75 140 0 182 26 b 368 151 269 76 321 103 b 438 243 410 194 435 240 b 499 365 474 310 499 365 b 492 386 503 374 499 382 z m 114 386 b 240 508 128 415 179 515 b 247 279 314 501 263 324 b 174 108 247 279 214 181 b 138 111 163 110 150 110 b 57 103 100 114 74 111 b 82 288 51 167 71 258 l 81 286 l 114 386 z m 96 36 b 71 51 85 36 78 42 b 71 65 69 53 68 58 b 117 78 74 72 85 81 b 151 75 129 76 142 75 b 96 36 133 50 114 33 z "},"q":{"ha":554,"x_min":0,"x_max":0,"o":"m 604 386 b 583 378 596 389 588 386 b 483 192 583 376 540 281 b 319 42 418 92 361 39 b 300 176 288 44 272 83 b 415 522 326 265 396 467 b 404 538 418 531 413 538 l 350 538 b 325 519 339 538 329 531 b 307 467 319 504 314 486 b 232 538 301 503 282 535 b 31 383 108 544 31 383 b 47 0 -53 232 -65 14 b 176 74 99 -6 143 31 b 99 -162 136 -47 103 -149 b 165 -329 99 -162 47 -317 b 172 -319 171 -329 175 -324 b 179 -183 164 -301 154 -261 l 246 15 b 365 21 297 -22 365 21 l 365 21 b 508 175 408 42 457 93 b 611 365 567 267 611 365 b 604 386 615 374 611 382 z m 58 31 b 71 272 -1 46 71 272 b 231 508 136 497 231 508 b 265 338 307 515 271 364 b 225 211 251 296 238 253 b 58 31 200 154 115 15 z "},"r":{"ha":421,"x_min":0,"x_max":0,"o":"m 244 358 b 253 376 247 364 250 369 b 249 461 264 406 263 435 b 118 572 224 515 160 553 b 92 675 125 622 124 672 b 51 633 92 675 58 676 b 58 558 51 633 44 604 b 63 468 67 526 71 501 b 18 350 47 408 18 351 b 25 329 14 343 17 333 b 32 328 26 329 29 328 b 46 336 38 328 43 331 b 94 468 47 340 79 403 b 113 540 97 478 106 507 b 135 529 119 538 126 533 b 181 499 153 519 168 508 b 175 410 213 468 175 410 b 79 189 101 297 79 189 b 94 32 63 106 72 61 b 232 21 146 -33 232 21 l 232 21 b 375 175 275 42 324 93 b 478 365 433 267 478 365 b 469 386 482 374 478 382 b 450 378 463 389 453 386 b 350 192 450 376 407 281 b 192 42 288 96 233 43 b 164 185 154 42 133 85 b 244 358 164 185 186 256 z "},"s":{"ha":290,"x_min":0,"x_max":0,"o":"m 368 376 b 347 385 364 383 356 388 b 144 286 343 383 244 349 b 110 264 132 279 121 272 b 204 522 99 397 171 488 b 199 538 211 528 207 538 l 129 538 b 96 521 117 538 104 532 b 29 251 67 481 -3 369 b 39 210 29 251 33 233 b 3 174 26 197 14 186 b -62 42 -36 131 -57 86 b -3 -89 -75 -62 -3 -89 b 135 -33 51 -111 104 -94 b 125 190 164 24 150 107 b 115 231 121 204 117 218 b 160 260 131 242 146 251 b 358 357 258 319 357 356 b 368 376 367 360 371 368 z m -28 60 b 49 176 -17 103 13 142 b 68 -12 67 117 96 38 b -32 35 26 -86 -36 -40 b -28 60 -32 42 -31 51 z "},"t":{"ha":296,"x_min":0,"x_max":0,"o":"m 388 718 l 221 718 b 279 890 247 796 269 860 b 267 908 282 899 276 908 l 215 908 b 192 892 204 908 194 901 b 133 718 169 828 150 769 l -68 718 b -83 703 -76 718 -83 711 b -68 688 -83 694 -76 688 l 122 688 b -40 189 28 404 -10 292 b -31 32 -61 119 -53 58 b 107 21 21 -33 107 21 l 107 21 b 250 175 150 42 197 93 b 353 365 308 267 351 365 b 344 386 356 374 353 382 b 325 378 336 389 328 386 b 224 190 324 376 281 281 b 60 42 160 90 103 39 b 40 176 28 44 13 83 b 211 688 60 239 146 496 l 388 688 b 403 703 396 688 403 694 b 388 718 403 711 396 718 z "},"u":{"ha":542,"x_min":0,"x_max":0,"o":"m 589 386 b 568 378 581 389 572 386 b 468 192 568 376 525 281 b 304 42 404 92 346 39 b 285 176 272 44 257 83 b 400 522 313 265 381 467 b 390 538 403 531 397 538 l 336 538 b 311 519 324 538 314 531 b 256 358 296 476 276 419 b 50 44 194 189 97 46 b 42 176 1 44 42 176 b 157 522 68 265 138 467 b 146 538 160 531 154 538 l 92 538 b 67 519 81 538 71 531 b -40 189 39 436 -6 307 b 25 0 -40 189 -99 7 b 196 153 88 -3 147 68 b 213 32 186 99 196 54 b 351 21 265 -33 351 21 l 350 21 b 493 175 394 42 442 93 b 596 365 553 267 596 365 b 589 386 600 374 596 382 z "},"v":{"ha":358,"x_min":0,"x_max":0,"o":"m 244 324 b 85 44 201 150 126 40 b 61 176 35 50 61 176 b 132 519 76 264 119 460 b 118 538 135 529 128 538 l 71 538 b 43 515 57 538 46 528 b -22 189 24 432 -3 304 b 65 0 -22 189 -58 7 b 288 356 183 -7 268 264 b 269 538 288 356 333 535 b 229 496 269 538 235 539 b 238 421 229 496 222 467 b 244 324 247 389 251 356 z "},"w":{"ha":538,"x_min":0,"x_max":0,"o":"m 449 538 b 408 496 449 538 414 539 b 417 421 408 496 403 467 b 424 324 426 389 432 356 b 279 44 382 163 322 42 b 256 176 231 49 256 176 b 318 478 271 261 306 424 b 304 496 321 488 313 496 l 258 496 b 228 472 243 496 232 486 b 189 279 217 417 203 353 b 83 44 146 89 119 42 b 58 176 33 50 58 176 b 131 518 74 263 117 457 b 115 538 132 528 125 538 l 69 538 b 40 514 56 538 43 528 b -24 189 22 431 -4 304 b 64 0 -24 189 -60 7 b 171 88 114 -3 147 32 b 261 0 179 43 203 1 b 468 356 376 -4 447 264 b 449 538 468 356 513 535 z "},"x":{"ha":385,"x_min":0,"x_max":0,"o":"m 432 386 b 413 378 425 389 415 386 b 307 186 411 378 367 278 b 193 53 265 122 226 76 b 129 176 144 26 129 176 b 125 213 128 186 126 199 b 226 356 176 260 208 318 b 251 538 226 356 313 518 b 203 506 251 538 219 547 b 193 432 203 506 190 479 b 176 336 194 399 192 364 b 119 256 157 299 138 275 b 90 518 107 350 94 471 b 68 538 89 529 79 538 l 17 538 b 0 519 7 538 0 529 b 42 190 10 438 24 307 b 6 156 31 181 18 169 b -64 38 -37 111 -60 71 b -43 0 -65 21 -64 -1 b -18 25 -43 0 -21 -3 b 7 113 -15 57 -15 83 b 49 156 21 128 35 142 b 75 58 54 128 64 90 b 158 3 93 13 117 -7 b 231 44 181 7 206 21 b 333 169 263 72 297 114 b 440 365 393 264 439 364 b 432 386 443 374 440 382 z "},"y":{"ha":539,"x_min":0,"x_max":0,"o":"m 1183 -129 b 1153 -162 1164 -121 1156 -149 b 1132 -221 1153 -162 1150 -193 b 1054 -303 1108 -251 1082 -279 b 907 -385 1011 -339 961 -365 b 558 -406 810 -417 693 -425 b 206 -314 453 -392 335 -361 b 97 -274 168 -301 132 -287 b 139 -211 113 -254 126 -233 b 375 -262 222 -232 301 -250 b 425 -271 392 -267 408 -269 b 503 -276 453 -275 479 -276 b 688 -217 583 -276 644 -257 b 726 -160 692 -214 714 -194 b 717 -103 729 -151 744 -107 b 675 -161 688 -99 681 -137 b 624 -222 671 -182 656 -207 b 429 -240 576 -246 511 -251 b 160 -176 346 -231 253 -204 b 172 -151 164 -168 168 -160 b 239 10 201 -96 222 -39 b 351 21 289 -18 351 21 l 351 21 b 493 175 394 42 442 93 b 597 365 553 267 596 365 b 589 386 600 374 596 382 b 568 378 581 389 572 386 b 468 190 568 376 525 281 b 304 42 404 90 346 39 b 285 176 272 44 257 83 b 400 522 313 265 381 467 b 390 538 403 531 397 538 l 336 538 b 311 519 325 538 314 531 b 256 358 296 476 276 419 b 50 44 194 189 97 46 b 42 176 1 44 42 176 b 157 522 68 265 138 467 b 146 538 160 531 154 538 l 92 538 b 67 519 81 538 71 531 b -40 189 39 436 -6 307 b 25 0 -40 189 -99 7 b 194 150 88 -3 146 67 b 76 -151 179 96 139 -35 b -212 -83 -29 -119 -128 -90 b -415 -167 -318 -74 -385 -100 b -419 -319 -443 -225 -444 -276 b -203 -421 -367 -408 -214 -421 b -169 -422 -192 -422 -181 -422 b 26 -347 -99 -422 -33 -397 b 89 -285 49 -329 68 -308 b 200 -328 124 -299 161 -314 b 556 -419 331 -374 450 -406 b 696 -429 606 -426 651 -429 b 1183 -167 924 -429 1086 -342 b 1183 -165 1183 -167 1183 -165 b 1183 -129 1186 -160 1197 -136 z m -151 -136 b 54 -190 -85 -153 -15 -172 b 19 -240 43 -207 32 -225 b -69 -201 -14 -226 -43 -214 b -143 -169 -99 -189 -124 -178 b -339 -142 -222 -137 -289 -128 b -151 -136 -300 -124 -237 -114 z m -144 -362 b -372 -328 -144 -362 -286 -404 b -393 -303 -381 -321 -387 -312 b -396 -197 -410 -275 -411 -239 b -392 -189 -394 -196 -393 -193 b -149 -183 -385 -179 -329 -110 b -75 -214 -129 -190 -104 -201 b 11 -253 -50 -226 -21 -239 b -144 -362 -33 -308 -85 -350 z "},"z":{"ha":481,"x_min":0,"x_max":0,"o":"m 1207 -129 b 1176 -162 1188 -121 1179 -149 b 1156 -221 1176 -162 1174 -193 b 1078 -303 1132 -251 1106 -279 b 931 -385 1035 -339 985 -365 b 582 -406 833 -417 717 -425 b 229 -314 476 -392 357 -361 b 126 -275 193 -301 158 -289 b 165 -211 140 -256 154 -233 b 394 -262 244 -231 324 -250 b 449 -271 413 -265 431 -269 b 526 -276 476 -275 503 -276 b 711 -217 607 -276 668 -257 b 750 -160 715 -214 738 -194 b 742 -103 753 -151 768 -107 b 700 -161 711 -99 704 -137 b 649 -222 694 -182 679 -207 b 453 -240 600 -246 536 -251 b 181 -176 368 -231 275 -204 b 218 -72 192 -153 206 -115 b 239 11 228 -43 233 -15 b 246 10 240 11 243 10 b 432 175 299 10 361 65 b 535 365 490 267 533 365 b 526 386 538 374 535 382 b 507 378 519 389 510 386 b 406 192 506 376 463 281 b 243 42 342 92 285 39 b 232 181 249 94 244 140 b 164 278 218 221 196 254 b 268 358 183 283 238 303 b 276 379 272 367 276 379 b 272 457 286 406 283 432 b 117 574 243 515 165 554 b 92 675 124 624 122 672 b 51 633 92 675 57 676 b 57 558 51 633 44 604 b 63 468 67 526 69 501 b 18 350 47 408 18 351 b 24 329 14 343 17 333 b 32 328 26 329 29 328 b 44 336 38 328 42 331 b 94 468 47 340 79 403 b 113 543 97 478 106 508 b 144 528 122 539 133 533 b 199 494 165 517 183 507 b 197 410 232 467 197 410 b 108 321 164 357 126 332 b 90 301 100 317 94 310 b 86 250 85 288 79 267 b 132 -61 97 224 189 182 b 99 -151 132 -61 122 -100 b -187 -83 -6 -119 -104 -90 b -392 -167 -294 -74 -361 -100 b -396 -319 -419 -225 -421 -276 b -179 -421 -343 -408 -189 -421 b -146 -422 -168 -422 -157 -422 b 32 -367 -82 -422 -22 -404 b 117 -286 64 -346 92 -318 b 224 -328 151 -300 186 -314 b 579 -419 354 -374 474 -406 b 719 -429 629 -426 675 -429 b 1207 -167 947 -429 1110 -342 b 1207 -165 1207 -165 1207 -165 b 1207 -129 1210 -160 1221 -136 z m -128 -136 b 81 -189 -62 -151 8 -171 b 49 -243 72 -207 61 -225 b -46 -201 14 -228 -18 -214 b -119 -169 -75 -189 -100 -178 b -317 -142 -200 -137 -265 -128 b -128 -136 -278 -124 -215 -115 z m -290 -364 b -369 -303 -322 -351 -353 -332 b -372 -199 -386 -275 -387 -240 b -367 -189 -371 -197 -369 -193 b -125 -183 -358 -176 -303 -111 b -51 -214 -106 -190 -81 -201 b 40 -254 -25 -226 7 -240 b -290 -364 -25 -346 -132 -424 z "},"æ":{"ha":922,"x_min":0,"x_max":0,"o":"m 861 386 b 842 378 854 389 844 386 b 735 182 842 376 794 274 b 508 38 692 119 613 13 b 453 207 443 53 444 143 b 682 421 532 206 651 283 b 626 538 707 536 626 538 b 550 519 599 539 572 532 b 551 522 550 521 550 522 b 540 538 553 531 549 538 l 486 538 b 461 519 475 538 465 531 b 443 467 456 504 450 486 b 367 538 436 503 417 535 b 165 383 244 544 165 383 b 183 0 83 232 71 14 b 343 117 250 -8 307 60 b 364 32 342 79 350 49 b 471 7 396 -8 440 -3 b 490 3 476 6 483 4 b 756 157 632 -31 744 140 b 869 365 819 253 869 364 b 861 386 872 374 869 382 z m 625 507 b 649 422 625 507 671 506 b 458 239 625 336 539 244 b 465 271 461 254 464 265 b 488 335 472 292 479 313 b 625 507 550 499 625 507 z m 361 211 b 193 31 336 154 251 15 b 207 272 135 46 207 272 b 365 508 272 497 365 508 b 400 338 443 515 407 364 b 361 211 386 296 374 253 z "},"œ":{"ha":993,"x_min":0,"x_max":0,"o":"m 928 386 b 907 378 919 389 911 386 b 800 182 907 376 861 274 b 574 38 758 119 678 13 b 519 207 510 53 510 143 b 747 421 597 206 717 283 b 693 538 774 536 693 538 b 492 383 569 544 492 383 b 492 383 492 383 492 383 b 450 513 492 443 478 486 b 372 538 424 538 390 539 b 183 383 257 533 183 383 b 144 293 168 354 154 324 b 249 3 144 293 61 35 b 311 6 249 3 281 -4 b 344 18 322 8 333 13 b 436 139 385 43 414 90 b 556 3 442 78 471 17 b 821 157 699 -31 811 140 b 936 365 886 253 935 364 b 928 386 939 374 935 382 z m 532 272 b 690 507 597 497 690 507 b 714 422 690 507 736 506 b 524 239 692 336 604 244 b 532 272 528 260 532 272 z m 329 44 b 265 36 308 33 288 31 b 225 272 165 63 225 272 b 385 507 294 511 385 507 l 385 507 b 429 490 397 507 415 504 b 460 363 447 474 465 439 b 411 367 446 382 425 389 b 443 260 385 324 425 278 b 422 192 439 242 432 217 b 329 44 397 117 364 67 z "},"@":{"ha":701,"x_min":0,"x_max":0,"o":"m 593 231 b 579 224 586 235 581 226 b 325 106 553 181 476 82 b 153 350 325 106 103 113 b 422 581 153 350 203 581 b 572 419 422 581 581 579 b 517 285 568 354 544 311 l 517 285 b 432 240 481 247 447 238 b 422 260 418 243 422 260 b 422 260 422 260 422 260 b 474 372 431 290 454 338 b 472 429 481 386 492 418 b 449 425 465 435 457 432 b 397 494 464 500 397 494 b 313 447 349 493 313 447 l 313 447 b 254 340 313 447 272 406 b 304 235 231 257 263 226 b 378 286 353 244 378 286 b 375 240 374 268 372 253 b 376 232 375 240 375 236 b 413 203 381 222 389 206 b 429 204 414 203 421 203 b 519 254 463 211 496 233 b 549 281 535 265 544 276 b 557 289 554 286 557 289 l 557 289 b 594 344 569 304 583 322 b 422 621 665 475 592 615 b 99 372 240 628 125 492 b 311 67 99 372 29 114 b 593 213 311 67 503 35 b 593 231 596 217 599 226 z m 335 272 b 311 257 335 272 321 261 b 289 260 303 253 293 250 b 342 393 282 276 310 353 b 422 453 374 435 404 461 b 431 406 436 447 432 414 b 399 350 431 406 411 375 b 335 272 399 350 369 301 z "},"+":{"ha":196,"x_min":0,"x_max":0,"o":"m 171 253 b 144 276 176 274 157 275 b 144 276 144 276 144 276 b 136 276 142 276 139 276 b 149 307 140 288 144 297 b 136 335 151 321 149 335 b 99 300 119 336 106 314 b 89 279 96 293 92 286 b 65 278 81 279 74 278 b 29 247 53 275 38 265 b 46 219 21 226 36 221 b 64 219 53 219 58 219 b 64 219 64 219 64 219 b 56 196 60 211 57 204 b 67 163 50 181 47 158 b 106 207 86 167 99 193 b 106 207 106 207 106 207 b 110 218 107 211 108 214 b 111 218 111 218 111 218 b 131 219 117 218 124 218 b 171 253 144 222 165 229 z "}," ":{"ha":344,"x_min":0,"x_max":0,"o":""},"-":{"ha":261,"x_min":0,"x_max":0,"o":"m 203 253 b 174 276 207 274 186 275 b 174 276 174 276 174 276 b 94 278 147 278 122 281 b 63 247 82 275 68 265 b 81 219 54 226 69 221 b 146 218 103 219 125 219 b 165 219 151 218 158 218 b 203 253 178 222 199 229 z "},"−":{"ha":311,"x_min":0,"x_max":0,"o":"m 228 253 b 199 276 232 274 211 275 b 199 276 199 276 199 276 b 119 278 172 278 147 281 b 88 247 107 275 93 265 b 106 219 79 226 94 221 b 171 218 128 219 150 219 b 190 219 176 218 183 218 b 228 253 203 222 224 229 z "},"×":{"ha":206,"x_min":0,"x_max":0,"o":"m 131 246 b 131 247 131 246 131 246 b 146 264 136 251 140 257 b 160 311 156 276 168 296 b 124 299 151 325 135 308 b 117 293 122 297 119 294 b 108 315 114 300 111 308 b 82 317 103 324 94 328 b 72 271 68 304 69 282 b 78 254 75 265 76 260 b 58 233 71 247 65 240 b 47 192 50 221 44 206 b 78 193 51 175 68 185 b 92 207 82 199 88 203 b 92 207 92 207 92 207 b 99 190 93 201 96 196 b 128 186 104 181 114 168 b 132 238 140 204 136 225 b 131 246 132 240 131 243 z "},"÷":{"ha":217,"x_min":0,"x_max":0,"o":"m 150 276 b 69 278 124 278 97 281 b 38 247 58 275 44 265 b 57 219 31 226 46 221 b 122 218 79 219 101 219 b 142 219 128 218 135 218 b 179 253 154 222 175 229 b 150 276 183 274 163 275 z m 124 288 b 156 322 139 288 154 303 b 129 358 157 342 146 358 b 99 322 114 358 100 342 b 124 288 96 303 108 288 z m 93 207 b 61 172 78 207 63 192 b 86 136 60 153 71 136 b 118 172 103 136 117 153 b 93 207 119 192 108 207 z "},"=":{"ha":251,"x_min":0,"x_max":0,"o":"m 150 242 b 78 243 126 243 103 246 b 49 217 67 240 54 232 b 67 192 42 199 57 192 b 125 190 86 192 106 190 b 142 192 131 190 136 190 b 175 221 154 194 172 200 b 150 242 179 240 160 242 z m 181 311 b 181 311 181 311 181 311 b 110 313 157 313 135 315 b 81 285 99 310 86 300 b 97 260 74 267 88 261 b 156 258 117 260 136 260 b 172 260 161 258 167 260 b 207 289 185 263 203 268 b 181 311 210 308 192 310 z "},",":{"ha":142,"x_min":0,"x_max":0,"o":"m 92 68 b 60 44 92 68 64 75 b 21 -40 54 11 50 -32 b 15 -49 21 -40 13 -42 b 36 -56 18 -56 29 -57 b 108 21 61 -50 100 -17 b 92 68 108 21 119 61 z "},".":{"ha":157,"x_min":0,"x_max":0,"o":"m 110 35 b 83 63 108 51 99 60 b 44 22 67 64 43 51 b 79 -4 47 -7 79 -4 b 110 35 103 -1 113 19 z "},":":{"ha":157,"x_min":0,"x_max":0,"o":"m 132 314 b 104 340 129 331 121 339 b 67 300 89 343 64 331 b 101 275 69 271 101 275 b 132 314 124 278 133 297 z m 93 208 b 67 236 92 225 82 233 b 29 196 50 238 26 225 b 63 169 31 167 63 169 b 93 208 86 172 96 193 z "},";":{"ha":176,"x_min":0,"x_max":0,"o":"m 94 225 b 63 203 94 225 67 233 b 24 117 57 168 53 125 b 18 110 24 117 15 115 b 39 101 21 101 32 100 b 111 178 64 107 103 140 b 94 225 111 178 124 218 z m 154 314 b 128 340 153 331 143 339 b 90 300 111 343 88 331 b 124 275 92 271 124 275 b 154 314 147 278 157 297 z "},"&":{"ha":494,"x_min":0,"x_max":0,"o":"m 456 142 b 447 147 456 144 450 146 b 369 169 429 149 400 154 b 367 264 381 201 378 236 b 326 304 367 264 358 289 b 304 290 307 311 304 297 b 300 226 304 275 304 251 b 294 233 299 228 297 231 b 254 317 275 263 263 290 b 265 322 258 318 263 321 l 265 322 b 265 322 265 322 265 322 b 275 325 267 322 269 324 b 275 326 275 326 275 326 b 279 328 276 326 278 326 b 282 329 281 328 281 329 b 311 344 290 333 300 338 b 381 403 335 358 363 378 b 385 408 382 404 383 407 b 407 493 411 447 408 486 b 331 557 406 522 390 557 b 199 421 268 557 211 500 b 196 343 196 411 192 381 b 38 214 103 308 56 267 b 83 81 25 176 32 113 b 204 50 106 65 143 49 b 338 117 293 50 328 99 b 340 121 339 118 340 119 b 392 99 357 111 374 103 b 399 99 393 97 396 97 b 451 131 408 101 432 111 b 456 142 456 135 457 139 z m 265 140 b 265 140 265 140 265 140 b 265 140 265 140 265 140 b 249 125 263 138 257 132 b 199 104 236 117 219 107 b 144 115 174 103 157 108 b 122 213 125 126 100 153 b 132 236 122 213 125 222 b 172 276 143 254 160 268 b 185 285 176 279 181 282 l 185 285 b 206 294 189 288 196 290 b 282 165 217 253 239 207 b 265 140 278 157 272 149 l 265 140 z m 367 500 b 367 500 367 500 367 500 b 368 464 369 496 375 482 b 339 419 363 444 347 428 b 246 361 315 397 283 378 b 254 453 242 400 249 432 b 289 504 265 481 282 499 b 339 521 311 522 329 524 b 367 500 360 517 367 500 z "},"¢":{"ha":435,"x_min":0,"x_max":0,"o":"m 388 692 b 374 743 383 724 374 743 b 374 743 374 743 374 743 b 360 767 369 751 365 760 b 360 771 360 768 358 769 l 372 807 b 369 833 375 815 374 828 b 364 836 368 836 365 836 b 357 828 361 835 358 832 l 344 792 b 342 790 343 790 343 790 b 339 790 342 789 340 790 b 286 804 319 807 299 807 b 194 728 254 796 224 771 b 128 596 169 693 146 646 b 128 596 128 596 128 596 b 97 497 128 596 113 557 b 65 260 83 440 67 354 b 89 79 64 217 67 138 b 89 75 90 78 90 76 l 65 7 b 68 -19 61 -3 63 -15 b 72 -22 69 -22 71 -22 b 81 -14 75 -22 79 -19 l 101 44 b 104 47 101 46 103 47 b 107 46 104 47 106 46 b 118 29 110 39 114 35 b 174 0 129 18 149 3 b 174 0 174 0 174 0 b 192 0 181 0 186 0 b 193 0 192 0 192 0 b 235 17 207 1 221 7 b 250 29 240 21 246 25 b 297 139 286 63 301 117 b 294 144 296 140 296 143 b 286 147 292 147 289 149 b 269 125 279 146 272 131 b 269 125 269 125 269 125 b 235 67 260 100 249 79 b 213 50 225 56 217 51 b 213 50 213 50 213 50 b 131 125 176 40 146 67 b 131 128 131 125 131 126 l 343 724 b 344 726 343 725 343 726 b 347 726 346 726 346 726 b 350 722 349 725 350 724 b 343 649 358 713 357 688 b 322 594 333 619 322 594 b 322 594 322 594 322 594 b 321 592 322 593 321 593 b 321 526 318 585 304 549 b 338 518 326 519 332 517 b 376 564 351 521 367 539 b 376 564 376 564 376 564 b 388 692 394 617 393 663 z m 317 715 l 126 181 b 124 178 126 179 125 178 b 124 178 124 178 124 178 b 121 182 122 179 121 181 b 146 428 114 251 124 336 b 224 619 167 514 200 579 b 313 719 253 665 286 704 b 315 719 314 721 315 721 b 317 715 317 718 317 717 z "},"$":{"ha":558,"x_min":0,"x_max":0,"o":"m 518 889 b 514 943 519 907 518 926 b 489 1003 508 972 497 992 b 488 1008 488 1004 488 1007 l 496 1032 b 493 1067 500 1044 499 1060 b 486 1069 490 1069 488 1069 b 476 1058 482 1068 479 1065 l 465 1029 b 461 1026 465 1026 463 1025 b 431 1036 451 1032 442 1035 b 431 1036 431 1036 431 1036 l 431 1036 l 431 1036 b 428 1036 429 1036 429 1036 b 426 1035 428 1035 426 1035 b 425 1035 426 1035 425 1035 b 425 1035 425 1035 425 1035 b 389 1025 408 1035 393 1026 b 299 808 351 1007 303 964 b 319 618 297 757 304 699 b 318 614 319 617 319 615 l 281 507 b 276 504 279 506 278 504 b 274 508 275 504 274 507 b 232 600 264 569 232 600 b 232 600 232 600 232 600 b 207 618 232 600 224 611 b 140 625 193 626 169 633 b 60 542 108 615 81 588 b 31 444 43 504 35 465 b 22 294 24 399 21 349 b 24 293 24 294 24 293 b 36 200 24 293 24 251 b 114 49 47 153 69 89 b 115 42 115 47 117 44 l 106 15 b 110 -19 101 3 103 -12 b 115 -22 111 -21 113 -22 b 125 -11 119 -22 122 -18 l 138 25 b 143 26 139 26 142 28 b 164 17 150 22 157 19 l 165 17 b 165 17 165 17 165 17 b 192 8 174 13 183 10 b 206 6 197 7 201 7 b 332 43 267 3 293 15 b 424 206 378 78 407 129 b 431 235 426 215 428 225 b 438 428 444 317 440 390 b 385 703 426 524 403 622 l 383 710 b 383 714 382 711 382 713 l 446 892 b 450 894 447 893 449 894 b 453 892 451 894 453 893 b 465 839 458 875 463 858 b 481 817 467 831 472 817 b 481 817 481 817 481 817 b 518 888 494 817 515 836 b 518 889 518 888 518 888 z m 154 151 b 151 149 154 150 153 149 b 151 149 151 149 151 149 b 147 150 150 149 149 149 b 106 388 114 197 99 276 l 106 388 b 138 531 110 456 121 504 b 163 551 149 551 161 551 b 196 533 176 551 188 546 b 196 393 214 501 207 438 b 197 368 194 388 193 375 b 204 363 199 365 201 364 b 222 363 210 361 217 361 b 226 361 224 364 225 363 b 226 356 228 360 228 358 l 154 151 z m 361 243 b 361 242 361 243 361 242 b 329 167 361 240 351 203 b 283 119 315 146 300 129 b 235 104 268 110 251 104 b 214 107 228 104 221 106 b 176 122 200 110 188 115 b 175 129 175 124 174 126 l 325 550 b 329 553 325 553 328 553 b 332 549 331 553 332 551 b 339 521 335 540 336 531 b 361 401 347 479 356 439 b 361 401 361 401 361 401 b 361 243 365 375 374 307 z m 432 932 l 375 774 b 372 772 375 772 374 772 b 371 772 372 772 372 772 b 368 775 369 772 368 774 b 364 796 367 783 365 790 b 364 796 364 796 364 796 b 365 878 357 836 364 874 b 365 878 365 878 365 878 b 368 893 365 883 367 888 b 368 893 368 893 368 893 b 401 944 371 904 382 939 b 431 939 413 949 422 946 b 432 932 432 938 432 935 z "},"€":{"ha":543,"x_min":0,"x_max":0,"o":"m 425 633 b 474 760 447 675 464 717 b 485 861 482 793 486 828 b 472 953 485 918 472 953 b 472 953 472 953 472 953 b 429 1021 460 983 446 1007 b 383 1035 414 1031 400 1036 b 383 1035 383 1035 383 1035 b 376 1035 382 1035 379 1035 b 233 885 317 1025 261 938 b 200 813 226 874 214 847 b 183 764 194 796 189 779 b 178 747 182 760 179 753 b 139 610 168 718 153 671 b 135 607 139 608 136 607 l 67 607 b 54 582 60 607 54 596 b 60 563 54 574 56 567 b 65 558 61 561 63 558 l 122 558 b 126 557 124 558 125 558 b 126 553 126 556 126 554 b 118 497 124 535 121 517 b 114 494 117 496 115 494 l 46 494 b 33 469 40 494 33 483 b 39 450 33 461 36 454 b 46 446 40 447 43 446 l 106 446 b 108 444 107 446 108 446 b 110 440 110 443 110 442 b 108 431 110 438 110 435 b 103 283 104 381 101 331 b 103 283 103 283 103 283 b 104 250 103 283 103 269 b 107 229 104 249 106 240 b 108 215 107 224 107 219 b 133 101 110 206 117 151 b 228 7 143 75 172 14 b 229 7 228 7 228 7 b 242 7 233 7 238 7 b 242 7 242 7 242 7 b 346 75 276 11 311 33 b 347 75 347 75 347 75 b 357 96 347 76 353 82 b 358 186 363 117 368 151 b 357 190 358 189 357 190 b 351 186 356 190 354 189 b 267 99 321 143 293 114 b 200 97 242 85 219 83 b 156 214 176 114 160 154 b 175 443 150 275 157 354 b 179 447 176 446 178 447 l 244 447 b 257 471 251 447 257 458 b 251 492 257 479 256 486 b 246 494 250 493 249 494 l 193 494 b 189 497 192 494 190 496 b 189 501 189 499 189 500 b 203 554 193 519 199 538 b 207 558 204 557 206 558 l 263 558 b 275 582 269 558 275 569 b 269 603 275 590 274 597 b 264 606 268 604 267 606 l 225 606 b 221 608 224 606 222 607 b 221 613 221 610 219 611 b 225 626 224 621 225 625 b 225 628 225 626 225 628 b 414 935 282 789 363 921 b 443 928 425 938 435 935 b 433 833 454 915 451 885 b 407 763 422 797 407 764 b 406 763 406 763 406 763 b 386 638 406 763 368 683 l 386 636 b 399 617 390 628 394 622 b 425 633 401 614 411 611 z "},"£":{"ha":619,"x_min":0,"x_max":0,"o":"m 490 1033 b 490 1033 490 1033 490 1033 b 490 1033 490 1033 490 1033 b 340 924 457 1035 404 1017 b 256 753 310 881 282 824 b 250 736 254 747 253 742 b 217 621 242 713 229 672 b 217 621 217 621 217 621 l 217 619 b 214 610 215 617 215 613 b 210 607 214 608 213 607 l 132 607 b 119 582 125 607 119 596 b 125 563 119 574 122 567 b 132 558 126 561 129 558 l 197 558 b 200 557 199 558 200 558 b 201 553 201 556 201 554 b 192 497 199 535 194 517 b 189 494 192 496 190 494 l 113 494 b 100 469 106 494 100 483 b 106 450 100 461 101 454 b 111 446 107 447 108 446 l 179 446 b 183 444 181 446 182 446 b 183 440 183 443 183 442 b 181 414 183 432 182 422 b 175 276 176 367 175 321 b 175 276 175 276 175 276 b 178 243 175 276 175 263 b 179 222 178 242 178 233 b 188 169 181 204 183 186 b 186 165 188 168 188 167 b 176 161 185 161 181 161 b 171 160 175 161 172 161 b 171 160 171 160 171 160 b 167 158 169 158 168 157 b 153 161 161 160 156 160 b 88 149 118 165 96 154 b 88 149 88 149 88 149 b 29 39 58 132 39 94 b 29 39 29 39 29 39 b 26 8 29 39 28 28 b 47 -37 26 -8 31 -36 b 76 -17 61 -39 68 -29 b 138 29 92 14 113 29 b 232 8 172 31 204 18 b 256 0 240 6 249 3 b 278 -6 264 -3 271 -4 b 281 -6 279 -6 279 -6 b 283 -7 281 -6 282 -7 b 290 -8 286 -8 289 -8 b 294 -10 292 -8 293 -8 b 296 -10 294 -10 296 -10 b 307 -12 300 -11 304 -11 b 357 -7 326 -14 343 -12 b 369 0 361 -6 365 -3 l 369 0 b 369 0 369 0 369 0 b 413 76 393 15 407 40 b 414 136 415 99 417 118 b 407 156 413 150 410 156 b 401 146 407 156 404 153 b 394 128 400 139 397 132 b 272 125 382 104 340 103 b 261 128 272 125 267 126 b 246 132 253 129 247 131 b 243 136 244 132 243 133 b 251 443 231 204 226 322 b 256 447 251 446 254 447 l 319 447 b 332 471 326 447 332 458 b 328 492 333 479 331 486 b 321 494 326 493 324 494 l 269 494 b 265 497 268 494 267 496 b 265 501 265 499 265 500 b 279 556 269 519 275 538 b 283 558 281 557 282 558 l 339 558 b 351 582 344 558 350 569 b 346 603 351 590 349 597 b 339 606 344 604 342 606 l 301 606 b 299 608 300 606 299 607 b 297 613 297 610 297 611 b 300 621 300 618 300 621 b 399 826 326 696 361 769 b 493 925 433 882 468 918 b 519 919 504 928 513 926 b 511 828 532 908 529 879 b 483 757 500 792 485 757 b 483 757 483 757 483 757 b 464 632 483 756 446 678 l 464 632 b 476 611 468 624 472 617 b 503 628 479 608 489 606 b 563 829 539 694 558 763 b 563 831 563 831 563 831 b 533 1006 568 913 558 972 b 490 1033 514 1033 492 1033 z "},"!":{"ha":406,"x_min":0,"x_max":0,"o":"m 72 107 b 13 53 49 107 22 82 b 38 -1 4 22 15 -1 b 97 53 61 -1 88 22 b 72 107 107 82 96 107 z m 375 1029 b 335 979 364 1029 347 1004 b 311 931 322 956 311 931 b 297 897 307 919 303 908 b 283 858 293 885 288 872 b 267 815 278 844 272 831 b 258 792 264 807 261 800 b 250 768 256 783 253 776 b 181 560 226 703 203 631 b 121 361 158 488 138 419 b 100 285 113 333 106 307 b 92 256 97 274 94 264 b 86 233 90 247 88 239 b 81 149 75 182 76 158 b 92 142 85 139 92 142 b 150 240 104 143 126 182 b 229 457 175 299 203 376 b 269 581 243 499 257 540 b 307 696 282 621 294 660 b 338 792 318 732 329 764 b 350 829 342 806 346 818 b 360 857 354 840 357 850 b 374 899 365 872 369 886 b 381 917 376 906 378 911 b 385 935 382 924 383 929 b 396 988 392 956 394 974 b 375 1029 399 1015 392 1028 z "},"?":{"ha":560,"x_min":0,"x_max":0,"o":"m 376 1038 b 153 793 376 1038 214 1014 b 219 625 117 667 190 636 b 253 635 229 621 240 625 b 321 728 283 658 307 689 b 315 740 324 736 321 742 b 257 736 301 735 278 729 b 228 844 232 746 211 779 b 365 1001 269 1001 365 1001 b 435 846 475 1013 435 846 b 149 361 389 660 276 564 b 83 147 86 265 68 185 b 106 160 88 138 103 146 b 188 306 114 197 149 254 b 508 785 258 397 458 624 b 376 1038 556 943 488 1046 z m 86 100 b 31 49 64 100 39 76 b 54 -1 22 21 32 -1 b 108 49 75 -1 100 21 b 86 100 118 76 107 100 z "},"/":{"ha":482,"x_min":0,"x_max":0,"o":"m 453 1049 b 413 1003 431 1054 417 1017 b 246 621 383 893 318 754 l 189 517 b 7 33 93 339 11 151 b 31 3 8 19 14 4 b 64 65 50 1 58 43 b 231 446 93 175 158 313 l 288 549 b 458 957 365 693 433 843 b 453 1049 468 1006 478 1044 z "},"\\":{"ha":486,"x_min":0,"x_max":0,"o":"m 31 1049 b 25 957 6 1044 15 1006 b 196 549 50 843 118 693 l 253 446 b 419 65 325 313 390 175 b 453 3 425 43 433 1 b 476 33 469 4 475 19 b 294 517 472 151 390 339 l 238 621 b 71 1003 165 754 100 893 b 31 1049 67 1017 53 1054 z "},"[":{"ha":438,"x_min":0,"x_max":0,"o":"m 124 8 b 142 47 143 13 142 47 b 133 65 142 57 136 63 b 101 160 118 76 100 103 b 326 879 104 251 263 701 b 413 992 379 1019 396 963 b 407 1043 433 1033 407 1043 b 325 1013 367 1056 342 1038 b 285 942 308 990 293 960 b 282 936 285 940 283 938 b 278 925 279 931 278 926 b 69 64 228 811 19 288 b 114 7 75 46 86 11 b 125 7 117 7 121 7 l 124 8 z "},"]":{"ha":439,"x_min":0,"x_max":0,"o":"m 314 1046 b 296 1007 294 1042 296 1007 b 304 989 297 997 301 992 b 338 894 321 978 339 953 b 111 175 335 803 176 353 b 26 63 60 35 43 92 b 32 11 4 21 32 11 b 114 42 72 -1 97 17 b 153 113 131 64 144 94 b 156 118 154 114 156 117 b 160 129 158 124 160 128 b 369 990 211 243 419 767 b 325 1047 364 1008 351 1043 b 314 1047 321 1047 318 1047 l 314 1046 z "},"*":{"ha":221,"x_min":0,"x_max":0,"o":"m 188 1100 b 182 1104 188 1103 183 1103 b 163 1104 175 1104 169 1104 b 165 1110 165 1107 165 1110 b 164 1144 172 1133 164 1144 b 156 1144 161 1150 156 1144 b 144 1136 151 1142 149 1139 b 144 1139 144 1138 144 1139 b 124 1168 138 1163 124 1168 b 117 1161 119 1169 117 1161 b 106 1129 113 1150 110 1139 b 99 1139 103 1133 101 1136 b 92 1146 96 1143 92 1146 b 58 1146 69 1154 58 1146 b 58 1136 54 1143 58 1136 b 79 1106 65 1125 72 1115 b 61 1104 71 1104 65 1104 b 53 1101 57 1104 53 1101 b 35 1071 33 1086 35 1071 b 43 1065 35 1065 43 1065 b 58 1067 47 1065 53 1065 b 54 1038 51 1056 54 1043 b 57 1029 54 1033 56 1031 b 64 1031 58 1028 63 1029 b 78 1040 68 1033 74 1036 b 90 1011 78 1025 86 1015 b 97 1006 93 1007 94 1006 b 101 1010 100 1006 101 1008 b 115 1044 107 1022 111 1033 b 121 1036 117 1042 119 1039 b 154 1025 131 1022 149 1024 b 163 1026 158 1025 161 1025 b 163 1033 164 1029 163 1032 b 143 1068 156 1046 149 1057 b 157 1068 147 1068 153 1068 b 185 1092 175 1069 182 1086 b 188 1100 188 1096 188 1099 z "},"'":{"ha":158,"x_min":0,"x_max":0,"o":"m 104 1158 b 67 1133 104 1158 72 1168 b 24 1036 61 1094 56 1046 b 17 1028 24 1036 14 1035 b 42 1019 19 1019 33 1017 b 124 1106 69 1025 113 1063 b 104 1158 124 1106 136 1151 z "},"\"":{"ha":236,"x_min":0,"x_max":0,"o":"m 107 1153 b 72 1129 107 1153 76 1161 b 32 1040 67 1093 63 1050 b 26 1032 32 1040 24 1039 b 49 1025 29 1025 40 1024 b 124 1104 74 1031 114 1065 b 107 1153 124 1104 135 1146 z m 181 1124 b 146 1100 181 1124 151 1132 b 107 1011 140 1064 136 1019 b 100 1003 107 1011 97 1008 b 122 994 103 994 115 993 b 197 1074 149 1000 188 1035 b 181 1124 197 1074 210 1117 z "},"`":{"ha":206,"x_min":0,"x_max":0,"o":"m 90 1132 b 28 1124 90 1132 50 1157 b 171 1049 14 1103 68 1026 b 193 1072 171 1049 204 1057 b 143 1086 185 1082 164 1071 b 90 1132 121 1103 110 1121 z "},"´":{"ha":204,"x_min":0,"x_max":0,"o":"m 114 1132 b 61 1086 94 1121 83 1103 b 11 1072 40 1071 19 1082 b 33 1049 1 1057 33 1049 b 176 1124 136 1026 190 1103 b 114 1132 154 1157 114 1132 z "},"ˆ":{"ha":321,"x_min":0,"x_max":0,"o":"m 271 1075 b 228 1093 265 1085 246 1076 b 186 1142 210 1110 203 1129 b 165 1151 186 1142 176 1149 b 160 1151 164 1151 161 1151 b 154 1153 158 1153 156 1153 b 132 1146 142 1151 132 1146 b 82 1107 114 1138 103 1119 b 36 1096 61 1093 44 1106 b 53 1072 25 1083 53 1072 b 153 1081 96 1058 129 1067 b 250 1054 174 1063 206 1049 b 271 1075 250 1054 279 1060 z "},"˚":{"ha":208,"x_min":0,"x_max":0,"o":"m 104 1175 b 54 1126 76 1175 54 1154 b 104 1078 54 1100 76 1078 b 156 1126 133 1078 156 1100 b 104 1175 156 1154 133 1175 z m 104 1104 b 82 1126 93 1104 82 1114 b 104 1149 82 1139 93 1149 b 128 1126 117 1149 128 1139 b 104 1104 128 1114 117 1104 z "},"˜":{"ha":258,"x_min":0,"x_max":0,"o":"m 196 1103 b 92 1146 182 1117 143 1157 b 22 1107 46 1136 22 1119 b 40 1088 22 1107 18 1081 b 117 1072 69 1096 103 1089 b 207 1064 128 1060 158 1040 b 228 1092 207 1064 228 1075 b 196 1103 226 1108 208 1089 z "},"¨":{"ha":411,"x_min":0,"x_max":0,"o":"m 140 1133 b 101 1093 119 1133 101 1115 b 140 1053 101 1071 119 1053 b 179 1093 163 1053 179 1071 b 140 1133 179 1115 163 1133 z m 271 1133 b 232 1093 250 1133 232 1115 b 271 1053 232 1071 250 1053 b 311 1093 293 1053 311 1071 b 271 1133 311 1115 293 1133 z "},"ß":{"ha":765,"x_min":0,"x_max":0,"o":"m 665 910 b 535 1029 622 983 565 1017 b 329 969 458 1061 388 1042 b 263 853 285 917 264 856 b 246 803 258 840 253 824 b 104 375 207 685 132 467 b 72 249 92 333 82 299 b 74 131 64 201 64 160 l 74 131 b 113 90 83 108 96 93 b 125 96 118 89 122 92 b 129 114 129 100 131 107 b 179 325 125 146 149 229 b 311 715 203 404 311 713 l 311 715 b 524 968 313 718 401 1026 b 619 861 564 949 599 910 b 639 628 646 800 653 721 b 576 458 639 626 626 542 b 467 340 547 408 510 369 b 279 285 414 306 351 286 b 265 286 274 285 269 286 b 251 292 257 290 251 292 b 228 274 240 294 231 286 b 228 274 228 274 228 274 b 242 239 225 260 231 244 b 258 233 246 238 251 236 b 267 231 261 233 264 232 b 321 176 279 222 303 204 b 343 57 343 142 350 101 b 310 -26 343 56 336 14 b 167 -90 276 -79 228 -100 b 139 -82 157 -89 147 -86 b 104 -44 119 -75 107 -61 b 115 -3 101 -31 106 -15 b 264 4 138 26 188 43 b 278 4 268 3 274 3 b 289 21 283 8 288 14 b 276 54 292 35 286 50 b 163 79 235 76 196 85 b 86 36 131 75 104 60 b 65 -56 68 10 60 -22 b 129 -133 72 -92 94 -119 b 194 -147 150 -142 171 -147 b 199 -147 196 -147 197 -147 b 246 -142 214 -147 231 -146 b 356 -85 286 -133 325 -112 b 431 63 397 -46 424 4 b 414 163 435 99 429 132 b 360 232 401 189 383 211 b 382 235 367 233 375 233 b 592 333 439 244 522 269 b 717 625 665 403 708 500 b 665 910 725 740 708 836 z "},"#":{"ha":350,"x_min":0,"x_max":0,"o":"m 288 236 b 278 251 290 244 285 249 b 264 257 271 256 264 257 b 256 258 261 257 258 258 b 244 260 251 260 249 260 b 232 263 240 261 236 261 b 225 263 229 263 228 263 b 222 263 224 263 222 263 b 235 299 226 275 231 286 b 247 331 239 310 243 319 b 250 331 249 331 249 331 b 261 331 254 331 257 331 b 269 329 264 329 267 329 b 281 329 274 329 278 329 b 286 329 283 329 285 329 b 292 329 288 329 290 329 b 308 332 299 329 304 331 b 326 354 318 336 324 343 b 317 369 329 361 324 367 b 304 374 311 372 304 374 b 294 376 301 375 297 375 b 283 378 292 376 288 378 b 271 379 279 378 275 379 b 267 381 269 379 268 379 b 268 386 267 382 268 383 b 275 401 271 392 272 397 b 279 413 276 406 278 410 b 286 431 282 419 285 425 b 289 438 288 433 288 435 b 292 444 290 440 290 443 b 297 467 294 454 296 461 b 288 481 299 478 294 482 b 268 460 282 481 274 469 b 257 438 261 449 257 438 b 250 424 254 433 253 429 b 243 408 247 419 246 414 b 235 390 240 403 238 396 b 232 382 233 388 232 385 b 196 382 219 382 208 382 b 183 382 192 382 188 382 b 188 394 185 386 186 390 b 193 406 190 399 192 403 b 200 424 196 413 197 418 b 203 431 201 426 201 429 b 206 439 203 433 204 436 b 211 460 208 447 210 454 b 200 475 211 471 208 475 b 182 453 196 474 188 464 b 171 432 175 442 171 432 b 164 418 168 428 165 422 b 157 401 161 413 158 407 b 149 383 154 396 151 390 b 147 381 149 382 147 382 b 138 381 144 381 140 381 b 114 379 129 379 121 379 b 106 378 111 378 108 378 b 99 376 103 376 100 376 b 69 364 82 374 74 368 b 65 356 65 358 65 356 b 89 338 64 347 74 342 b 128 333 100 335 113 333 b 107 278 121 314 114 296 b 101 263 106 272 103 268 b 99 263 100 263 100 263 b 75 261 90 263 82 261 b 67 260 72 261 69 260 b 60 258 64 260 61 260 b 31 246 43 256 35 250 b 26 238 26 242 26 238 b 50 221 24 229 33 224 b 85 215 60 218 71 217 b 78 196 82 208 81 203 b 67 164 74 185 71 174 b 64 153 65 160 65 156 b 61 143 63 149 61 146 b 58 110 56 122 56 114 b 63 108 60 107 63 108 b 92 150 69 110 79 126 b 118 214 100 168 110 190 b 149 214 129 214 139 214 b 168 214 156 214 161 214 b 164 203 167 210 165 206 b 154 171 160 190 157 181 b 150 158 153 167 151 163 b 147 150 149 156 147 153 b 144 117 142 129 142 119 b 149 114 146 113 149 114 b 178 157 156 117 165 132 b 201 213 185 172 193 192 b 211 213 206 213 208 213 b 221 213 215 213 218 213 b 229 213 225 213 228 213 b 242 211 233 211 238 211 b 247 211 243 211 246 211 b 253 211 249 211 250 211 b 269 215 258 213 264 213 b 288 236 278 219 285 226 z m 157 265 b 139 264 151 265 144 264 b 149 292 142 274 146 283 b 164 332 154 306 158 318 b 188 331 172 331 179 331 b 211 331 196 331 203 331 b 193 283 206 315 199 300 b 186 265 190 278 189 271 b 157 265 176 265 167 265 z "},"%":{"ha":297,"x_min":0,"x_max":0,"o":"m 274 736 b 242 697 267 739 253 718 b 221 656 231 676 221 656 b 208 626 218 647 214 638 b 194 593 204 617 200 606 b 179 556 189 582 185 569 b 171 536 176 549 174 543 b 163 515 168 529 165 522 b 117 389 140 458 139 451 b 69 261 93 326 88 313 b 46 193 60 236 53 213 b 38 167 43 183 40 175 b 31 147 35 160 32 153 b 17 69 17 101 15 79 b 22 61 17 58 22 61 b 71 142 31 60 47 92 b 128 281 93 192 101 208 b 165 379 142 317 153 343 b 188 438 179 414 181 417 b 218 521 197 469 210 497 b 232 554 224 533 228 544 b 240 578 235 564 239 571 b 256 614 246 592 251 603 b 261 631 257 619 260 625 b 267 646 263 636 265 640 b 281 693 274 665 278 681 b 274 736 286 719 283 733 z m 110 526 b 157 586 132 526 153 553 b 124 646 161 619 146 646 b 76 586 101 646 81 619 b 110 526 72 553 88 526 z m 99 586 b 121 614 101 601 111 613 b 135 586 131 614 138 601 b 113 558 133 571 122 558 b 99 586 103 558 96 571 z m 199 304 b 151 243 176 303 156 276 b 185 183 147 210 163 183 b 232 243 207 183 228 211 b 199 304 236 276 221 304 z m 210 243 b 188 217 207 229 197 217 b 174 243 178 217 171 228 b 196 271 176 258 186 271 b 210 243 206 271 213 258 z "},"Ø":{"ha":958,"x_min":0,"x_max":0,"o":"m 1469 908 b 1456 867 1447 908 1451 879 b 1453 819 1456 867 1463 842 b 1399 749 1443 796 1425 772 b 1167 667 1347 704 1268 676 b 1006 679 1118 661 1064 665 b 918 706 978 686 947 694 l 960 751 l 960 753 b 963 754 961 753 961 754 b 954 793 969 764 968 782 b 915 778 944 803 924 785 l 911 775 b 865 726 904 767 888 749 l 846 736 l 801 757 b 911 879 853 792 893 835 b 913 999 933 931 933 971 b 775 1035 874 1047 785 1036 b 600 968 768 1033 697 1026 b 531 919 576 954 553 938 b 232 1019 458 965 318 1047 b 172 961 204 1011 183 992 b 175 875 161 933 161 904 b 219 815 183 856 199 835 b 310 749 239 797 268 772 l 349 728 b 247 565 313 679 279 625 b 121 217 178 436 136 319 b 140 -1 108 131 114 57 l 111 -31 l 106 -35 b 64 -81 96 -44 78 -60 b 57 -106 58 -87 53 -103 b 114 -103 71 -118 99 -114 l 169 -50 b 229 -106 186 -72 206 -90 b 342 -143 261 -125 300 -139 b 393 -146 360 -146 376 -146 b 622 -68 479 -146 557 -119 b 771 138 700 -7 746 78 b 842 450 800 211 835 336 b 828 611 844 513 840 567 l 907 694 b 1003 667 940 682 972 674 b 1128 650 1046 656 1088 650 b 1168 653 1142 650 1154 651 b 1408 739 1272 663 1354 692 b 1483 875 1463 785 1479 839 b 1469 908 1485 882 1486 908 z m 796 579 b 742 222 801 511 796 399 b 671 54 742 222 719 136 b 472 -107 626 -21 563 -85 b 346 -112 433 -117 390 -118 b 314 -107 335 -111 324 -110 b 208 -14 258 -92 226 -58 b 796 579 303 78 604 382 z m 778 654 l 782 643 b 193 49 615 474 333 189 b 258 403 175 200 258 403 b 343 575 288 472 315 529 b 426 699 372 621 400 661 b 496 683 449 692 471 686 b 556 679 515 681 535 679 b 704 707 604 679 656 689 b 718 713 708 708 713 711 b 778 654 740 701 761 686 z m 236 1006 b 518 910 314 1032 447 956 b 431 828 488 886 458 858 b 368 753 408 804 388 779 b 188 961 156 856 182 946 b 236 1006 197 985 214 999 z m 888 981 b 897 960 892 975 896 968 b 894 926 897 956 899 943 b 885 894 893 917 889 906 b 765 776 869 861 836 818 b 588 883 697 813 636 851 b 847 1003 729 1014 824 1007 b 888 981 864 999 879 992 z m 447 728 b 576 874 494 788 538 836 b 750 768 625 842 685 804 l 724 756 b 447 728 724 756 581 685 z m 806 667 b 751 728 792 692 774 713 b 789 749 764 733 776 740 l 839 724 b 854 717 844 721 849 718 z "},"ø":{"ha":454,"x_min":0,"x_max":0,"o":"m 308 535 b 310 539 310 536 310 538 b 293 586 315 553 315 578 b 271 561 274 594 275 569 l 257 533 b 215 538 240 538 225 538 b 26 383 100 533 26 383 b -11 293 11 354 -1 324 b 0 58 -11 293 -58 143 b -1 57 0 57 -1 57 l -6 49 b -22 11 -14 35 -14 43 b -18 -22 -26 0 -25 -19 b 26 8 4 -31 14 -12 l 35 24 b 92 3 50 14 68 7 b 156 6 92 3 124 -4 b 188 18 167 8 178 13 b 313 239 257 60 294 171 b 375 206 333 217 354 206 l 381 206 b 446 247 404 207 425 221 b 468 282 458 264 467 279 b 508 365 493 331 508 364 b 500 386 513 374 508 382 b 481 378 493 389 483 386 b 440 296 481 378 465 343 l 433 282 b 378 236 421 264 401 238 b 324 275 361 235 342 247 l 322 276 b 326 296 324 288 325 294 b 297 508 343 399 335 471 z m 172 44 b 110 36 153 33 132 31 b 65 72 89 42 75 54 l 67 75 b 283 478 99 128 225 357 b 303 363 296 458 307 424 b 254 367 289 382 269 389 b 288 260 228 324 269 278 l 267 192 b 172 44 240 117 208 67 z m 68 272 b 228 507 138 511 228 507 b 243 506 232 507 238 507 b 51 149 196 411 111 256 b 68 272 50 210 68 272 z "},"Ç":{"ha":911,"x_min":0,"x_max":0,"o":"m 1469 908 b 1456 867 1447 908 1451 879 b 1453 819 1456 867 1463 842 b 1399 749 1443 796 1425 772 b 1167 667 1347 704 1268 676 b 1006 679 1118 661 1064 665 b 846 736 956 692 901 711 l 801 757 b 911 879 853 792 893 835 b 913 999 933 931 933 971 b 775 1035 874 1047 785 1036 b 600 968 768 1033 697 1026 b 531 919 576 954 553 938 b 232 1019 458 965 318 1047 b 172 961 204 1011 183 992 b 175 875 161 933 161 904 b 219 815 183 856 199 835 b 310 749 239 797 268 772 l 349 728 b 247 565 313 679 279 625 b 121 214 178 436 135 317 b 150 -21 107 119 117 40 b 343 -143 188 -92 257 -136 b 353 -144 346 -143 349 -144 l 356 -160 l 356 -161 b 349 -176 357 -165 351 -172 b 343 -190 346 -179 342 -185 b 349 -197 344 -193 346 -196 b 358 -200 351 -199 354 -200 b 364 -199 360 -200 361 -200 b 354 -225 363 -210 357 -221 l 353 -226 b 339 -244 349 -233 343 -240 b 317 -254 338 -246 326 -254 l 315 -254 b 308 -251 310 -254 310 -251 b 319 -229 307 -249 310 -236 b 331 -212 326 -224 331 -218 b 325 -204 331 -208 328 -206 b 317 -201 322 -203 319 -201 b 299 -210 310 -201 303 -206 b 282 -247 281 -225 282 -246 b 300 -271 283 -260 290 -267 b 315 -274 304 -272 310 -274 b 328 -272 319 -274 324 -272 b 342 -268 335 -271 340 -269 b 383 -242 357 -264 372 -254 l 394 -229 l 397 -222 b 404 -192 401 -217 406 -204 b 399 -175 403 -186 401 -181 l 393 -168 b 399 -153 396 -162 400 -156 l 397 -146 b 638 -65 490 -144 571 -117 b 774 122 693 -21 739 43 b 810 265 793 167 806 218 b 786 407 814 321 806 369 b 675 488 764 450 726 478 b 618 475 668 490 621 500 b 683 439 614 442 661 440 b 742 418 683 439 721 439 b 760 393 749 411 754 403 b 746 135 797 322 779 213 b 618 -40 713 60 671 0 b 392 -115 556 -90 481 -115 b 346 -112 376 -115 361 -114 b 258 403 57 -82 258 403 b 335 557 282 461 306 510 b 426 697 367 610 397 657 b 496 683 449 692 471 686 b 556 679 515 681 535 679 b 704 707 604 679 656 689 b 789 749 735 718 763 732 l 839 724 b 1003 667 897 697 951 678 b 1128 650 1046 656 1088 650 b 1168 653 1142 650 1154 651 b 1408 739 1272 663 1354 692 b 1483 875 1463 785 1479 839 b 1469 908 1485 882 1486 908 z m 236 1006 b 518 910 314 1032 447 956 b 431 828 488 886 458 858 b 368 753 408 804 388 779 b 188 961 156 856 182 946 b 236 1006 197 985 214 999 z m 888 981 b 897 960 892 975 896 968 b 894 926 897 956 899 943 b 885 894 893 917 889 906 b 765 776 869 861 836 818 b 588 883 697 813 636 851 b 847 1003 729 1013 822 1007 b 888 981 864 999 879 992 z m 449 726 b 576 874 494 788 538 836 b 750 768 625 842 685 804 l 724 756 b 449 726 724 756 581 685 z "},"ç":{"ha":418,"x_min":0,"x_max":0,"o":"m 140 -35 b 135 -19 140 -29 138 -24 b 129 -12 133 -17 132 -14 b 132 -1 131 -8 132 -4 b 360 157 256 0 349 142 b 474 365 424 253 474 364 b 467 386 478 374 474 382 b 446 378 458 389 449 386 b 339 182 446 376 400 274 b 113 38 296 119 217 13 b 71 272 10 63 71 272 b 229 507 136 497 229 507 b 274 426 269 510 278 469 b 292 408 274 417 282 408 b 308 426 301 410 308 417 b 231 538 311 476 299 533 b 29 383 108 544 29 383 b -10 293 14 354 1 324 b 88 4 -10 293 -90 40 l 93 -4 b 94 -6 94 -4 94 -6 b 88 -19 94 -10 90 -17 b 82 -33 85 -22 82 -28 b 88 -40 83 -36 85 -39 b 96 -43 90 -42 93 -43 b 101 -42 97 -43 100 -42 b 93 -67 101 -51 96 -62 l 92 -68 b 78 -85 88 -75 82 -81 b 56 -94 76 -86 67 -94 b 49 -92 50 -94 50 -93 b 60 -69 47 -89 50 -78 b 69 -54 67 -65 69 -60 b 65 -46 69 -50 67 -47 b 57 -44 63 -44 60 -44 b 39 -51 50 -44 43 -49 b 24 -87 22 -67 24 -86 l 24 -89 b 42 -111 25 -99 31 -107 b 56 -112 46 -112 50 -112 b 67 -111 60 -112 63 -112 b 81 -108 74 -111 79 -108 b 121 -82 96 -104 111 -94 b 132 -69 125 -79 128 -75 l 135 -64 b 140 -35 138 -58 142 -46 z "},"Ÿ":{"ha":1274,"x_min":0,"x_max":0,"o":"m 1747 -422 b 1174 -178 1544 -418 1364 -301 b 975 -53 1110 -136 1043 -93 b 994 -11 982 -39 988 -25 b 1111 -79 1029 -31 1069 -54 b 1688 -317 1283 -183 1506 -317 b 1821 -285 1735 -317 1781 -307 l 1821 -285 b 1838 -274 1826 -282 1832 -278 b 1847 -225 1849 -261 1861 -240 b 1781 -258 1824 -201 1794 -242 b 1742 -281 1781 -258 1767 -275 b 1483 -242 1672 -294 1588 -282 b 1126 -53 1361 -194 1236 -119 b 1006 17 1083 -28 1042 -3 b 1074 249 1035 89 1057 167 b 1094 344 1079 281 1086 313 b 1221 688 1125 458 1167 574 b 1251 753 1231 710 1240 731 b 1417 885 1319 797 1376 843 b 1485 999 1474 943 1485 979 b 1468 1031 1485 1013 1479 1024 b 1408 1022 1453 1040 1432 1038 b 1351 981 1397 1015 1376 1001 b 1144 717 1300 936 1217 853 b 964 544 1078 660 1018 600 b 782 382 894 475 836 414 b 686 360 744 360 714 351 b 833 915 585 401 783 817 b 906 1036 922 954 946 1025 b 825 957 878 1043 844 994 b 800 949 818 954 810 951 b 567 910 731 925 635 915 b 392 869 494 904 436 892 b 308 796 353 851 325 826 b 308 672 289 757 289 711 b 360 635 311 667 333 622 b 343 706 389 649 356 689 b 331 771 343 706 318 735 b 335 781 332 775 333 778 b 568 879 356 819 413 868 b 789 913 672 888 742 900 b 657 713 757 871 703 794 b 583 519 618 639 592 574 b 626 358 571 447 585 394 b 707 326 651 336 678 326 b 797 356 735 326 765 336 b 900 438 831 375 864 404 b 1099 621 949 483 1039 565 b 1074 553 1090 599 1082 576 b 968 224 1007 381 968 224 b 917 61 956 172 939 117 b 692 108 829 99 767 108 b 700 197 700 139 703 169 b 583 339 696 243 672 307 b 399 346 521 361 458 363 b 265 267 353 332 307 304 b 157 124 196 203 158 128 b 115 -232 86 -15 72 -135 b 246 -376 140 -290 186 -339 b 331 -415 289 -403 326 -414 b 471 -437 378 -429 425 -437 b 525 -433 489 -437 507 -436 b 703 -371 588 -426 647 -406 b 936 -126 792 -318 872 -235 b 969 -65 947 -107 958 -86 b 1167 -189 1038 -106 1103 -147 b 1747 -436 1358 -314 1539 -432 b 1774 -437 1749 -436 1758 -437 b 1918 -417 1806 -437 1860 -435 b 2047 -347 1969 -401 2013 -378 b 2128 -201 2089 -310 2115 -260 b 2129 -194 2129 -199 2129 -196 b 2118 -167 2131 -185 2131 -168 b 2099 -207 2096 -164 2097 -193 b 2094 -260 2099 -207 2106 -235 b 2038 -336 2081 -289 2061 -315 b 1914 -404 2006 -367 1964 -389 b 1764 -424 1851 -422 1792 -424 l 1747 -422 z m 1451 1006 b 1454 999 1453 1004 1454 1004 b 1396 907 1454 983 1439 951 b 1282 811 1365 876 1328 843 b 1315 869 1293 831 1304 850 l 1315 869 b 1357 931 1328 892 1343 914 b 1376 954 1364 940 1371 947 b 1400 976 1383 961 1392 969 b 1451 1006 1431 1006 1447 1008 z m 904 33 b 888 -6 900 21 893 8 b 839 19 872 3 856 11 b 675 63 783 46 728 60 b 681 78 676 68 679 72 b 904 33 757 79 818 71 z m 640 63 b 550 46 611 61 581 56 b 647 76 581 60 614 71 b 640 63 644 71 643 67 z m 460 -33 b 463 -26 460 -32 463 -29 b 535 26 471 -15 490 10 b 633 47 568 39 601 46 b 531 -69 606 -4 568 -49 b 481 -76 515 -78 494 -86 b 460 -33 469 -68 453 -56 z m 143 -219 b 132 -31 119 -165 115 -101 b 336 251 140 4 183 149 b 617 288 336 251 499 364 b 669 193 649 265 667 233 b 658 108 672 167 668 138 b 525 68 615 104 568 90 b 432 -24 475 42 442 8 b 463 -101 422 -53 433 -81 b 546 -96 490 -121 524 -110 b 656 25 585 -74 625 -29 b 668 49 660 33 664 40 b 833 7 722 47 776 33 b 882 -18 849 -1 865 -10 b 682 -281 832 -122 764 -221 b 267 -342 682 -281 481 -424 b 208 -310 247 -335 226 -324 b 143 -219 183 -286 160 -257 z m 1089 1104 b 1050 1064 1068 1104 1050 1086 b 1089 1024 1050 1042 1068 1024 b 1128 1064 1111 1024 1128 1042 b 1089 1104 1128 1086 1111 1104 z m 1219 1104 b 1181 1064 1199 1104 1181 1086 b 1219 1024 1181 1042 1199 1024 b 1260 1064 1242 1024 1260 1042 b 1219 1104 1260 1086 1242 1104 z "},"À":{"ha":1711,"x_min":0,"x_max":0,"o":"m 1501 -81 b 1638 -147 1546 -136 1603 -147 b 1647 -147 1642 -147 1644 -147 b 1689 -119 1663 -146 1693 -142 b 1618 -103 1685 -86 1638 -99 b 1560 -93 1618 -103 1588 -111 b 1526 -62 1547 -85 1536 -75 b 1506 310 1457 25 1475 185 b 1519 308 1510 310 1515 308 b 1540 301 1528 306 1535 304 b 1563 279 1540 301 1564 293 b 1560 271 1561 276 1561 274 b 1571 251 1558 263 1563 254 b 1589 261 1578 249 1588 253 b 1593 279 1592 267 1593 274 b 1588 300 1593 286 1592 293 b 1578 314 1586 304 1582 310 b 1565 324 1574 317 1569 321 b 1539 335 1557 328 1549 332 b 1513 340 1531 336 1522 339 b 1763 918 1581 600 1694 810 b 1799 964 1769 926 1782 944 b 1872 1028 1863 968 1894 1003 b 1744 996 1850 1053 1779 1017 l 1740 996 b 1697 1001 1729 997 1715 999 b 1303 1028 1613 1011 1454 1029 b 1146 1018 1244 1028 1192 1025 b 740 965 1083 1014 919 1000 b 392 868 606 939 489 907 b 122 700 269 821 179 764 b 53 500 69 640 47 574 b 256 285 61 399 128 328 b 288 0 231 171 242 75 b 429 -119 319 -51 368 -92 b 513 -144 475 -139 511 -144 b 579 -147 513 -144 535 -149 b 1068 178 776 -151 956 11 b 1071 182 1069 179 1069 181 b 1199 114 1129 167 1174 146 b 1213 90 1204 106 1210 99 b 1207 36 1221 69 1207 36 b 1214 -8 1201 24 1193 -6 b 1235 24 1231 -11 1233 19 b 1210 122 1239 63 1231 96 b 1079 194 1183 156 1138 178 b 1149 301 1106 233 1129 269 b 1213 304 1168 301 1189 303 b 1419 315 1289 311 1360 315 b 1433 315 1424 315 1429 315 b 1489 -64 1407 126 1446 1 b 1501 -81 1489 -64 1496 -75 z m 1001 381 l 1001 381 l 1001 381 b 990 399 1003 389 997 396 b 971 388 982 400 974 396 l 971 388 b 971 379 971 386 971 383 b 972 368 971 376 971 372 b 983 346 974 361 976 354 b 1003 328 988 339 994 333 b 1054 308 1015 321 1031 314 b 1069 306 1058 308 1064 307 b 1006 210 1047 272 1026 240 b 760 233 933 222 849 228 b 818 358 782 268 801 310 b 817 632 860 478 860 571 b 693 703 774 697 700 703 b 499 663 624 710 557 696 b 371 547 451 636 408 597 b 281 375 308 465 282 381 b 258 299 271 349 264 322 b 132 367 204 317 164 339 b 67 501 93 403 71 447 b 133 690 61 571 83 633 b 396 856 188 753 276 808 b 743 951 493 893 610 925 b 1033 994 853 972 956 986 b 922 933 986 979 949 958 b 871 804 886 900 868 856 b 918 706 871 797 874 743 b 1018 674 943 685 976 674 b 1065 678 1033 674 1049 675 b 1075 679 1067 678 1071 679 b 1075 679 1075 679 1075 679 b 1075 679 1075 679 1075 679 b 1111 714 1089 683 1114 692 b 1038 719 1106 747 1057 726 b 965 713 1038 719 992 704 l 965 713 b 938 729 956 717 946 722 b 901 804 903 758 901 804 b 901 806 901 804 901 806 b 943 911 900 849 913 883 b 1674 972 1078 1038 1493 994 b 1594 933 1650 963 1624 950 b 1418 797 1533 899 1475 853 b 1221 546 1349 728 1282 643 b 1185 490 1208 526 1197 508 b 1088 335 1150 435 1118 382 b 1060 339 1076 336 1067 338 b 1025 350 1044 342 1033 346 b 1011 360 1019 354 1014 357 b 1003 371 1007 364 1004 368 b 1001 381 1000 376 1001 381 z m 718 236 b 497 253 643 240 568 244 b 500 278 497 260 499 268 b 535 339 508 315 535 339 b 543 407 546 356 574 390 b 496 369 517 421 496 369 b 472 294 496 369 479 333 b 467 256 469 281 467 268 b 304 285 408 263 354 272 b 376 451 318 335 340 390 b 719 667 376 451 515 714 b 792 615 742 661 771 646 b 818 526 808 592 817 563 b 789 368 819 482 810 429 b 725 236 771 314 749 269 b 718 236 722 236 719 236 z m 715 222 b 668 176 700 204 685 189 b 554 156 622 146 581 147 b 506 200 553 156 521 165 b 497 239 500 211 497 224 b 715 222 568 231 642 226 z m 517 -114 b 319 7 513 -114 389 -94 b 300 271 310 25 261 115 b 465 242 351 258 407 249 b 478 186 467 221 471 203 b 547 126 500 139 543 126 b 685 151 593 113 642 122 b 751 219 708 168 731 192 b 997 197 839 215 924 210 b 847 10 944 121 896 60 b 517 -114 746 -93 647 -129 z m 1419 346 b 1210 335 1358 346 1286 342 b 1168 332 1194 333 1181 332 b 1236 444 1213 403 1236 444 b 1325 588 1267 494 1300 549 b 1753 965 1500 851 1717 950 b 1754 965 1753 965 1753 965 b 1492 553 1685 901 1567 771 b 1438 346 1465 478 1449 408 b 1419 346 1432 346 1425 346 z m 1707 1164 b 1644 1156 1707 1164 1667 1189 b 1788 1081 1631 1135 1685 1058 b 1810 1104 1788 1081 1821 1089 b 1760 1118 1801 1114 1781 1103 b 1707 1164 1738 1135 1726 1153 z "},"Á":{"ha":1711,"x_min":0,"x_max":0,"o":"m 1501 -81 b 1638 -147 1546 -136 1603 -147 b 1647 -147 1642 -147 1644 -147 b 1689 -119 1663 -146 1693 -142 b 1618 -103 1685 -86 1638 -99 b 1560 -93 1618 -103 1588 -111 b 1526 -62 1547 -85 1536 -75 b 1506 310 1457 25 1475 185 b 1519 308 1510 310 1515 308 b 1540 301 1528 306 1535 304 b 1563 279 1540 301 1564 293 b 1560 271 1561 276 1561 274 b 1571 251 1558 263 1563 254 b 1589 261 1578 249 1588 253 b 1593 279 1592 267 1593 274 b 1588 300 1593 286 1592 293 b 1578 314 1586 304 1582 310 b 1565 324 1574 317 1569 321 b 1539 335 1557 328 1549 332 b 1513 340 1531 336 1522 339 b 1763 918 1581 600 1694 810 b 1799 964 1769 926 1782 944 b 1872 1028 1863 968 1894 1003 b 1744 996 1850 1053 1779 1017 l 1740 996 b 1697 1001 1729 997 1715 999 b 1303 1028 1613 1011 1454 1029 b 1146 1018 1244 1028 1192 1025 b 740 965 1083 1014 919 1000 b 392 868 606 939 489 907 b 122 700 269 821 179 764 b 53 500 69 640 47 574 b 256 285 61 399 128 328 b 288 0 231 171 242 75 b 429 -119 319 -51 368 -92 b 513 -144 475 -139 511 -144 b 579 -147 513 -144 535 -149 b 1068 178 776 -151 956 11 b 1071 182 1069 179 1069 181 b 1199 114 1129 167 1174 146 b 1213 90 1204 106 1210 99 b 1207 36 1221 69 1207 36 b 1214 -8 1201 24 1193 -6 b 1235 24 1231 -11 1233 19 b 1210 122 1239 63 1231 96 b 1079 194 1183 156 1138 178 b 1149 301 1106 233 1129 269 b 1213 304 1168 301 1189 303 b 1419 315 1289 311 1360 315 b 1433 315 1424 315 1429 315 b 1489 -64 1407 126 1446 1 b 1501 -81 1489 -64 1496 -75 z m 1001 381 l 1001 381 l 1001 381 b 990 399 1003 389 997 396 b 971 388 982 400 974 396 l 971 388 b 971 379 971 386 971 383 b 972 368 971 376 971 372 b 983 346 974 361 976 354 b 1003 328 988 339 994 333 b 1054 308 1015 321 1031 314 b 1069 306 1058 308 1064 307 b 1006 210 1047 272 1026 240 b 760 233 933 222 849 228 b 818 358 782 268 801 310 b 817 632 860 478 860 571 b 693 703 774 697 700 703 b 499 663 624 710 557 696 b 371 547 451 636 408 597 b 281 375 308 465 282 381 b 258 299 271 349 264 322 b 132 367 204 317 164 339 b 67 501 93 403 71 447 b 133 690 61 571 83 633 b 396 856 188 753 276 808 b 743 951 493 893 610 925 b 1033 994 853 972 956 986 b 922 933 986 979 949 958 b 871 804 886 900 868 856 b 918 706 871 797 874 743 b 1018 674 943 685 976 674 b 1065 678 1033 674 1049 675 b 1075 679 1067 678 1071 679 b 1075 679 1075 679 1075 679 b 1075 679 1075 679 1075 679 b 1111 714 1089 683 1114 692 b 1038 719 1106 747 1057 726 b 965 713 1038 719 992 704 l 965 713 b 938 729 956 717 946 722 b 901 804 903 758 901 804 b 901 806 901 804 901 806 b 943 911 900 849 913 883 b 1674 972 1078 1038 1493 994 b 1594 933 1650 963 1624 950 b 1418 797 1533 899 1475 853 b 1221 546 1349 728 1282 643 b 1185 490 1208 526 1197 508 b 1088 335 1150 435 1118 382 b 1060 339 1076 336 1067 338 b 1025 350 1044 342 1033 346 b 1011 360 1019 354 1014 357 b 1003 371 1007 364 1004 368 b 1001 381 1000 376 1001 381 z m 718 236 b 497 253 643 240 568 244 b 500 278 497 260 499 268 b 535 339 508 315 535 339 b 543 407 546 356 574 390 b 496 369 517 421 496 369 b 472 294 496 369 479 333 b 467 256 469 281 467 268 b 304 285 408 263 354 272 b 376 451 318 335 340 390 b 719 667 376 451 515 714 b 792 615 742 661 771 646 b 818 526 808 592 817 563 b 789 368 819 482 810 429 b 725 236 771 314 749 269 b 718 236 722 236 719 236 z m 715 222 b 668 176 700 204 685 189 b 554 156 622 146 581 147 b 506 200 553 156 521 165 b 497 239 500 211 497 224 b 715 222 568 231 642 226 z m 517 -114 b 319 7 513 -114 389 -94 b 300 271 310 25 261 115 b 465 242 351 258 407 249 b 478 186 467 221 471 203 b 547 126 500 139 543 126 b 685 151 593 113 642 122 b 751 219 708 168 731 192 b 997 197 839 215 924 210 b 847 10 944 121 896 60 b 517 -114 746 -93 647 -129 z m 1419 346 b 1210 335 1358 346 1286 342 b 1168 332 1194 333 1181 332 b 1236 444 1213 403 1236 444 b 1325 588 1267 494 1300 549 b 1753 965 1500 851 1717 950 b 1754 965 1753 965 1753 965 b 1492 553 1685 901 1567 771 b 1438 346 1465 478 1449 408 b 1419 346 1432 346 1425 346 z m 1796 1168 b 1743 1122 1776 1157 1765 1139 b 1693 1108 1722 1107 1701 1118 b 1715 1085 1683 1093 1715 1085 b 1858 1160 1818 1063 1872 1139 b 1796 1168 1836 1193 1796 1168 z "},"Â":{"ha":1711,"x_min":0,"x_max":0,"o":"m 1501 -81 b 1638 -147 1546 -136 1603 -147 b 1647 -147 1642 -147 1644 -147 b 1689 -119 1663 -146 1693 -142 b 1618 -103 1685 -86 1638 -99 b 1560 -93 1618 -103 1588 -111 b 1526 -62 1547 -85 1536 -75 b 1506 310 1457 25 1475 185 b 1519 308 1510 310 1515 308 b 1540 301 1528 306 1535 304 b 1563 279 1540 301 1564 293 b 1560 271 1561 276 1561 274 b 1571 251 1558 263 1563 254 b 1589 261 1578 249 1588 253 b 1593 279 1592 267 1593 274 b 1588 300 1593 286 1592 293 b 1578 314 1586 304 1582 310 b 1565 324 1574 317 1569 321 b 1539 335 1557 328 1549 332 b 1513 340 1531 336 1522 339 b 1763 918 1581 600 1694 810 b 1799 964 1769 926 1782 944 b 1872 1028 1863 968 1894 1003 b 1744 996 1850 1053 1779 1017 l 1740 996 b 1697 1001 1729 997 1715 999 b 1303 1028 1613 1011 1454 1029 b 1146 1018 1244 1028 1192 1025 b 740 965 1083 1014 919 1000 b 392 868 606 939 489 907 b 122 700 269 821 179 764 b 53 500 69 640 47 574 b 256 285 61 399 128 328 b 288 0 231 171 242 75 b 429 -119 319 -51 368 -92 b 513 -144 475 -139 511 -144 b 579 -147 513 -144 535 -149 b 1068 178 776 -151 956 11 b 1071 182 1069 179 1069 181 b 1199 114 1129 167 1174 146 b 1213 90 1204 106 1210 99 b 1207 36 1221 69 1207 36 b 1214 -8 1201 24 1193 -6 b 1235 24 1231 -11 1233 19 b 1210 122 1239 63 1231 96 b 1079 194 1183 156 1138 178 b 1149 301 1106 233 1129 269 b 1213 304 1168 301 1189 303 b 1419 315 1289 311 1360 315 b 1433 315 1424 315 1429 315 b 1489 -64 1407 126 1446 1 b 1501 -81 1489 -64 1496 -75 z m 1001 381 l 1001 381 l 1001 381 b 990 399 1003 389 997 396 b 971 388 982 400 974 396 l 971 388 b 971 379 971 386 971 383 b 972 368 971 376 971 372 b 983 346 974 361 976 354 b 1003 328 988 339 994 333 b 1054 308 1015 321 1031 314 b 1069 306 1058 308 1064 307 b 1006 210 1047 272 1026 240 b 760 233 933 222 849 228 b 818 358 782 268 801 310 b 817 632 860 478 860 571 b 693 703 774 697 700 703 b 499 663 624 710 557 696 b 371 547 451 636 408 597 b 281 375 308 465 282 381 b 258 299 271 349 264 322 b 132 367 204 317 164 339 b 67 501 93 403 71 447 b 133 690 61 571 83 633 b 396 856 188 753 276 808 b 743 951 493 893 610 925 b 1033 994 853 972 956 986 b 922 933 986 979 949 958 b 871 804 886 900 868 856 b 918 706 871 797 874 743 b 1018 674 943 685 976 674 b 1065 678 1033 674 1049 675 b 1075 679 1067 678 1071 679 b 1075 679 1075 679 1075 679 b 1075 679 1075 679 1075 679 b 1111 714 1089 683 1114 692 b 1038 719 1106 747 1057 726 b 965 713 1038 719 992 704 l 965 713 b 938 729 956 717 946 722 b 901 804 903 758 901 804 b 901 806 901 804 901 806 b 943 911 900 849 913 883 b 1674 972 1078 1038 1493 994 b 1594 933 1650 963 1624 950 b 1418 797 1533 899 1475 853 b 1221 546 1349 728 1282 643 b 1185 490 1208 526 1197 508 b 1088 335 1150 435 1118 382 b 1060 339 1076 336 1067 338 b 1025 350 1044 342 1033 346 b 1011 360 1019 354 1014 357 b 1003 371 1007 364 1004 368 b 1001 381 1000 376 1001 381 z m 718 236 b 497 253 643 240 568 244 b 500 278 497 260 499 268 b 535 339 508 315 535 339 b 543 407 546 356 574 390 b 496 369 517 421 496 369 b 472 294 496 369 479 333 b 467 256 469 281 467 268 b 304 285 408 263 354 272 b 376 451 318 335 340 390 b 719 667 376 451 515 714 b 792 615 742 661 771 646 b 818 526 808 592 817 563 b 789 368 819 482 810 429 b 725 236 771 314 749 269 b 718 236 722 236 719 236 z m 715 222 b 668 176 700 204 685 189 b 554 156 622 146 581 147 b 506 200 553 156 521 165 b 497 239 500 211 497 224 b 715 222 568 231 642 226 z m 517 -114 b 319 7 513 -114 389 -94 b 300 271 310 25 261 115 b 465 242 351 258 407 249 b 478 186 467 221 471 203 b 547 126 500 139 543 126 b 685 151 593 113 642 122 b 751 219 708 168 731 192 b 997 197 839 215 924 210 b 847 10 944 121 896 60 b 517 -114 746 -93 647 -129 z m 1419 346 b 1210 335 1358 346 1286 342 b 1168 332 1194 333 1181 332 b 1236 444 1213 403 1236 444 b 1325 588 1267 494 1300 549 b 1753 965 1500 851 1717 950 b 1754 965 1753 965 1753 965 b 1492 553 1685 901 1567 771 b 1438 346 1465 478 1449 408 b 1419 346 1432 346 1425 346 z m 1881 1099 b 1838 1117 1875 1108 1856 1100 b 1796 1165 1819 1133 1813 1153 b 1775 1175 1796 1165 1786 1172 b 1769 1175 1774 1175 1771 1175 b 1764 1176 1768 1176 1765 1176 b 1742 1169 1751 1175 1742 1169 b 1692 1131 1724 1161 1713 1143 b 1646 1119 1671 1117 1654 1129 b 1663 1096 1635 1107 1663 1096 b 1763 1104 1706 1082 1739 1090 b 1860 1078 1783 1086 1815 1072 b 1881 1099 1860 1078 1889 1083 z "},"Ã":{"ha":1711,"x_min":0,"x_max":0,"o":"m 1501 -81 b 1638 -147 1546 -136 1603 -147 b 1647 -147 1642 -147 1644 -147 b 1689 -119 1663 -146 1693 -142 b 1618 -103 1685 -86 1638 -99 b 1560 -93 1618 -103 1588 -111 b 1526 -62 1547 -85 1536 -75 b 1506 310 1457 25 1475 185 b 1519 308 1510 310 1515 308 b 1540 301 1528 306 1535 304 b 1563 279 1540 301 1564 293 b 1560 271 1561 276 1561 274 b 1571 251 1558 263 1563 254 b 1589 261 1578 249 1588 253 b 1593 279 1592 267 1593 274 b 1588 300 1593 286 1592 293 b 1578 314 1586 304 1582 310 b 1565 324 1574 317 1569 321 b 1539 335 1557 328 1549 332 b 1513 340 1531 336 1522 339 b 1763 918 1581 600 1694 810 b 1799 964 1769 926 1782 944 b 1872 1028 1863 968 1894 1003 b 1744 996 1850 1053 1779 1017 l 1740 996 b 1697 1001 1729 997 1715 999 b 1303 1028 1613 1011 1454 1029 b 1146 1018 1244 1028 1192 1025 b 740 965 1083 1014 919 1000 b 392 868 606 939 489 907 b 122 700 269 821 179 764 b 53 500 69 640 47 574 b 256 285 61 399 128 328 b 288 0 231 171 242 75 b 429 -119 319 -51 368 -92 b 513 -144 475 -139 511 -144 b 579 -147 513 -144 535 -149 b 1068 178 776 -151 956 11 b 1071 182 1069 179 1069 181 b 1199 114 1129 167 1174 146 b 1213 90 1204 106 1210 99 b 1207 36 1221 69 1207 36 b 1214 -8 1201 24 1193 -6 b 1235 24 1231 -11 1233 19 b 1210 122 1239 63 1231 96 b 1079 194 1183 156 1138 178 b 1149 301 1106 233 1129 269 b 1213 304 1168 301 1189 303 b 1419 315 1289 311 1360 315 b 1433 315 1424 315 1429 315 b 1489 -64 1407 126 1446 1 b 1501 -81 1489 -64 1496 -75 z m 1001 381 l 1001 381 l 1001 381 b 990 399 1003 389 997 396 b 971 388 982 400 974 396 l 971 388 b 971 379 971 386 971 383 b 972 368 971 376 971 372 b 983 346 974 361 976 354 b 1003 328 988 339 994 333 b 1054 308 1015 321 1031 314 b 1069 306 1058 308 1064 307 b 1006 210 1047 272 1026 240 b 760 233 933 222 849 228 b 818 358 782 268 801 310 b 817 632 860 478 860 571 b 693 703 774 697 700 703 b 499 663 624 710 557 696 b 371 547 451 636 408 597 b 281 375 308 465 282 381 b 258 299 271 349 264 322 b 132 367 204 317 164 339 b 67 501 93 403 71 447 b 133 690 61 571 83 633 b 396 856 188 753 276 808 b 743 951 493 893 610 925 b 1033 994 853 972 956 986 b 922 933 986 979 949 958 b 871 804 886 900 868 856 b 918 706 871 797 874 743 b 1018 674 943 685 976 674 b 1065 678 1033 674 1049 675 b 1075 679 1067 678 1071 679 b 1075 679 1075 679 1075 679 b 1075 679 1075 679 1075 679 b 1111 714 1089 683 1114 692 b 1038 719 1106 747 1057 726 b 965 713 1038 719 992 704 l 965 713 b 938 729 956 717 946 722 b 901 804 903 758 901 804 b 901 806 901 804 901 806 b 943 911 900 849 913 883 b 1674 972 1078 1038 1493 994 b 1594 933 1650 963 1624 950 b 1418 797 1533 899 1475 853 b 1221 546 1349 728 1282 643 b 1185 490 1208 526 1197 508 b 1088 335 1150 435 1118 382 b 1060 339 1076 336 1067 338 b 1025 350 1044 342 1033 346 b 1011 360 1019 354 1014 357 b 1003 371 1007 364 1004 368 b 1001 381 1000 376 1001 381 z m 718 236 b 497 253 643 240 568 244 b 500 278 497 260 499 268 b 535 339 508 315 535 339 b 543 407 546 356 574 390 b 496 369 517 421 496 369 b 472 294 496 369 479 333 b 467 256 469 281 467 268 b 304 285 408 263 354 272 b 376 451 318 335 340 390 b 719 667 376 451 515 714 b 792 615 742 661 771 646 b 818 526 808 592 817 563 b 789 368 819 482 810 429 b 725 236 771 314 749 269 b 718 236 722 236 719 236 z m 715 222 b 668 176 700 204 685 189 b 554 156 622 146 581 147 b 506 200 553 156 521 165 b 497 239 500 211 497 224 b 715 222 568 231 642 226 z m 517 -114 b 319 7 513 -114 389 -94 b 300 271 310 25 261 115 b 465 242 351 258 407 249 b 478 186 467 221 471 203 b 547 126 500 139 543 126 b 685 151 593 113 642 122 b 751 219 708 168 731 192 b 997 197 839 215 924 210 b 847 10 944 121 896 60 b 517 -114 746 -93 647 -129 z m 1419 346 b 1210 335 1358 346 1286 342 b 1168 332 1194 333 1181 332 b 1236 444 1213 403 1236 444 b 1325 588 1267 494 1300 549 b 1753 965 1500 851 1717 950 b 1754 965 1753 965 1753 965 b 1492 553 1685 901 1567 771 b 1438 346 1465 478 1449 408 b 1419 346 1432 346 1425 346 z m 1846 1121 b 1742 1164 1832 1135 1793 1175 b 1672 1125 1696 1154 1672 1138 b 1690 1106 1672 1125 1668 1099 b 1767 1090 1719 1114 1753 1107 b 1857 1082 1778 1078 1808 1058 b 1878 1110 1857 1082 1878 1093 b 1846 1121 1876 1126 1858 1107 z "},"Ä":{"ha":1711,"x_min":0,"x_max":0,"o":"m 1501 -81 b 1638 -147 1546 -136 1603 -147 b 1647 -147 1642 -147 1644 -147 b 1689 -119 1663 -146 1693 -142 b 1618 -103 1685 -86 1638 -99 b 1560 -93 1618 -103 1588 -111 b 1526 -62 1547 -85 1536 -75 b 1506 310 1457 25 1475 185 b 1519 308 1510 310 1515 308 b 1540 301 1528 306 1535 304 b 1563 279 1540 301 1564 293 b 1560 271 1561 276 1561 274 b 1571 251 1558 263 1563 254 b 1589 261 1578 249 1588 253 b 1593 279 1592 267 1593 274 b 1588 300 1593 286 1592 293 b 1578 314 1586 304 1582 310 b 1565 324 1574 317 1569 321 b 1539 335 1557 328 1549 332 b 1513 340 1531 336 1522 339 b 1763 918 1581 600 1694 810 b 1799 964 1769 926 1782 944 b 1872 1028 1863 968 1894 1003 b 1744 996 1850 1053 1779 1017 l 1740 996 b 1697 1001 1729 997 1715 999 b 1303 1028 1613 1011 1454 1029 b 1146 1018 1244 1028 1192 1025 b 740 965 1083 1014 919 1000 b 392 868 606 939 489 907 b 122 700 269 821 179 764 b 53 500 69 640 47 574 b 256 285 61 399 128 328 b 288 0 231 171 242 75 b 429 -119 319 -51 368 -92 b 513 -144 475 -139 511 -144 b 579 -147 513 -144 535 -149 b 1068 178 776 -151 956 11 b 1071 182 1069 179 1069 181 b 1199 114 1129 167 1174 146 b 1213 90 1204 106 1210 99 b 1207 36 1221 69 1207 36 b 1214 -8 1201 24 1193 -6 b 1235 24 1231 -11 1233 19 b 1210 122 1239 63 1231 96 b 1079 194 1183 156 1138 178 b 1149 301 1106 233 1129 269 b 1213 304 1168 301 1189 303 b 1419 315 1289 311 1360 315 b 1433 315 1424 315 1429 315 b 1489 -64 1407 126 1446 1 b 1501 -81 1489 -64 1496 -75 z m 1001 381 l 1001 381 l 1001 381 b 990 399 1003 389 997 396 b 971 388 982 400 974 396 l 971 388 b 971 379 971 386 971 383 b 972 368 971 376 971 372 b 983 346 974 361 976 354 b 1003 328 988 339 994 333 b 1054 308 1015 321 1031 314 b 1069 306 1058 308 1064 307 b 1006 210 1047 272 1026 240 b 760 233 933 222 849 228 b 818 358 782 268 801 310 b 817 632 860 478 860 571 b 693 703 774 697 700 703 b 499 663 624 710 557 696 b 371 547 451 636 408 597 b 281 375 308 465 282 381 b 258 299 271 349 264 322 b 132 367 204 317 164 339 b 67 501 93 403 71 447 b 133 690 61 571 83 633 b 396 856 188 753 276 808 b 743 951 493 893 610 925 b 1033 994 853 972 956 986 b 922 933 986 979 949 958 b 871 804 886 900 868 856 b 918 706 871 797 874 743 b 1018 674 943 685 976 674 b 1065 678 1033 674 1049 675 b 1075 679 1067 678 1071 679 b 1075 679 1075 679 1075 679 b 1075 679 1075 679 1075 679 b 1111 714 1089 683 1114 692 b 1038 719 1106 747 1057 726 b 965 713 1038 719 992 704 l 965 713 b 938 729 956 717 946 722 b 901 804 903 758 901 804 b 901 806 901 804 901 806 b 943 911 900 849 913 883 b 1674 972 1078 1038 1493 994 b 1594 933 1650 963 1624 950 b 1418 797 1533 899 1475 853 b 1221 546 1349 728 1282 643 b 1185 490 1208 526 1197 508 b 1088 335 1150 435 1118 382 b 1060 339 1076 336 1067 338 b 1025 350 1044 342 1033 346 b 1011 360 1019 354 1014 357 b 1003 371 1007 364 1004 368 b 1001 381 1000 376 1001 381 z m 718 236 b 497 253 643 240 568 244 b 500 278 497 260 499 268 b 535 339 508 315 535 339 b 543 407 546 356 574 390 b 496 369 517 421 496 369 b 472 294 496 369 479 333 b 467 256 469 281 467 268 b 304 285 408 263 354 272 b 376 451 318 335 340 390 b 719 667 376 451 515 714 b 792 615 742 661 771 646 b 818 526 808 592 817 563 b 789 368 819 482 810 429 b 725 236 771 314 749 269 b 718 236 722 236 719 236 z m 715 222 b 668 176 700 204 685 189 b 554 156 622 146 581 147 b 506 200 553 156 521 165 b 497 239 500 211 497 224 b 715 222 568 231 642 226 z m 517 -114 b 319 7 513 -114 389 -94 b 300 271 310 25 261 115 b 465 242 351 258 407 249 b 478 186 467 221 471 203 b 547 126 500 139 543 126 b 685 151 593 113 642 122 b 751 219 708 168 731 192 b 997 197 839 215 924 210 b 847 10 944 121 896 60 b 517 -114 746 -93 647 -129 z m 1419 346 b 1210 335 1358 346 1286 342 b 1168 332 1194 333 1181 332 b 1236 444 1213 403 1236 444 b 1325 588 1267 494 1300 549 b 1753 965 1500 851 1717 950 b 1754 965 1753 965 1753 965 b 1492 553 1685 901 1567 771 b 1438 346 1465 478 1449 408 b 1419 346 1432 346 1425 346 z m 1726 1150 b 1688 1110 1706 1150 1688 1132 b 1726 1069 1688 1088 1706 1069 b 1765 1110 1749 1069 1765 1088 b 1726 1150 1765 1132 1749 1150 z m 1857 1150 b 1818 1110 1836 1150 1818 1132 b 1857 1069 1818 1088 1836 1069 b 1897 1110 1879 1069 1897 1088 b 1857 1150 1897 1132 1879 1150 z "},"Å":{"ha":1711,"x_min":0,"x_max":0,"o":"m 1501 -81 b 1638 -147 1546 -136 1603 -147 b 1647 -147 1642 -147 1644 -147 b 1689 -119 1663 -146 1693 -142 b 1618 -103 1685 -86 1638 -99 b 1560 -93 1618 -103 1588 -111 b 1526 -62 1547 -85 1536 -75 b 1506 310 1457 25 1475 185 b 1519 308 1510 310 1515 308 b 1540 301 1528 306 1535 304 b 1563 279 1540 301 1564 293 b 1560 271 1561 276 1561 274 b 1571 251 1558 263 1563 254 b 1589 261 1578 249 1588 253 b 1593 279 1592 267 1593 274 b 1588 300 1593 286 1592 293 b 1578 314 1586 304 1582 310 b 1565 324 1574 317 1569 321 b 1539 335 1557 328 1549 332 b 1513 340 1531 336 1522 339 b 1763 918 1581 600 1694 810 b 1799 964 1769 926 1782 944 b 1872 1028 1863 968 1894 1003 b 1744 996 1850 1053 1779 1017 l 1740 996 b 1697 1001 1729 997 1715 999 b 1303 1028 1613 1011 1454 1029 b 1146 1018 1244 1028 1192 1025 b 740 965 1083 1014 919 1000 b 392 868 606 939 489 907 b 122 700 269 821 179 764 b 53 500 69 640 47 574 b 256 285 61 399 128 328 b 288 0 231 171 242 75 b 429 -119 319 -51 368 -92 b 513 -144 475 -139 511 -144 b 579 -147 513 -144 535 -149 b 1068 178 776 -151 956 11 b 1071 182 1069 179 1069 181 b 1199 114 1129 167 1174 146 b 1213 90 1204 106 1210 99 b 1207 36 1221 69 1207 36 b 1214 -8 1201 24 1193 -6 b 1235 24 1231 -11 1233 19 b 1210 122 1239 63 1231 96 b 1079 194 1183 156 1138 178 b 1149 301 1106 233 1129 269 b 1213 304 1168 301 1189 303 b 1419 315 1289 311 1360 315 b 1433 315 1424 315 1429 315 b 1489 -64 1407 126 1446 1 b 1501 -81 1489 -64 1496 -75 z m 1001 381 l 1001 381 l 1001 381 b 990 399 1003 389 997 396 b 971 388 982 400 974 396 l 971 388 b 971 379 971 386 971 383 b 972 368 971 376 971 372 b 983 346 974 361 976 354 b 1003 328 988 339 994 333 b 1054 308 1015 321 1031 314 b 1069 306 1058 308 1064 307 b 1006 210 1047 272 1026 240 b 760 233 933 222 849 228 b 818 358 782 268 801 310 b 817 632 860 478 860 571 b 693 703 774 697 700 703 b 499 663 624 710 557 696 b 371 547 451 636 408 597 b 281 375 308 465 282 381 b 258 299 271 349 264 322 b 132 367 204 317 164 339 b 67 501 93 403 71 447 b 133 690 61 571 83 633 b 396 856 188 753 276 808 b 743 951 493 893 610 925 b 1033 994 853 972 956 986 b 922 933 986 979 949 958 b 871 804 886 900 868 856 b 918 706 871 797 874 743 b 1018 674 943 685 976 674 b 1065 678 1033 674 1049 675 b 1075 679 1067 678 1071 679 b 1075 679 1075 679 1075 679 b 1075 679 1075 679 1075 679 b 1111 714 1089 683 1114 692 b 1038 719 1106 747 1057 726 b 965 713 1038 719 992 704 l 965 713 b 938 729 956 717 946 722 b 901 804 903 758 901 804 b 901 806 901 804 901 806 b 943 911 900 849 913 883 b 1674 972 1078 1038 1493 994 b 1594 933 1650 963 1624 950 b 1418 797 1533 899 1475 853 b 1221 546 1349 728 1282 643 b 1185 490 1208 526 1197 508 b 1088 335 1150 435 1118 382 b 1060 339 1076 336 1067 338 b 1025 350 1044 342 1033 346 b 1011 360 1019 354 1014 357 b 1003 371 1007 364 1004 368 b 1001 381 1000 376 1001 381 z m 718 236 b 497 253 643 240 568 244 b 500 278 497 260 499 268 b 535 339 508 315 535 339 b 543 407 546 356 574 390 b 496 369 517 421 496 369 b 472 294 496 369 479 333 b 467 256 469 281 467 268 b 304 285 408 263 354 272 b 376 451 318 335 340 390 b 719 667 376 451 515 714 b 792 615 742 661 771 646 b 818 526 808 592 817 563 b 789 368 819 482 810 429 b 725 236 771 314 749 269 b 718 236 722 236 719 236 z m 715 222 b 668 176 700 204 685 189 b 554 156 622 146 581 147 b 506 200 553 156 521 165 b 497 239 500 211 497 224 b 715 222 568 231 642 226 z m 517 -114 b 319 7 513 -114 389 -94 b 300 271 310 25 261 115 b 465 242 351 258 407 249 b 478 186 467 221 471 203 b 547 126 500 139 543 126 b 685 151 593 113 642 122 b 751 219 708 168 731 192 b 997 197 839 215 924 210 b 847 10 944 121 896 60 b 517 -114 746 -93 647 -129 z m 1419 346 b 1210 335 1358 346 1286 342 b 1168 332 1194 333 1181 332 b 1236 444 1213 403 1236 444 b 1325 588 1267 494 1300 549 b 1753 965 1500 851 1717 950 b 1754 965 1753 965 1753 965 b 1492 553 1685 901 1567 771 b 1438 346 1465 478 1449 408 b 1419 346 1432 346 1425 346 z m 1804 1169 b 1754 1121 1776 1169 1754 1149 b 1804 1072 1754 1094 1776 1072 b 1856 1121 1833 1072 1856 1094 b 1804 1169 1856 1149 1833 1169 z m 1804 1099 b 1782 1121 1793 1099 1782 1108 b 1804 1143 1782 1133 1793 1143 b 1828 1121 1817 1143 1828 1133 b 1804 1099 1828 1108 1817 1099 z "},"È":{"ha":908,"x_min":0,"x_max":0,"o":"m 635 622 b 565 679 594 628 574 651 b 753 735 629 683 694 703 b 775 749 761 739 768 744 b 826 724 792 740 810 732 b 989 667 883 697 939 678 b 1114 650 1033 656 1075 650 b 1154 653 1128 650 1142 651 b 1394 739 1260 663 1340 692 b 1471 875 1449 785 1465 839 b 1471 875 1471 875 1471 875 b 1457 908 1471 882 1474 908 b 1442 867 1435 908 1439 879 b 1440 819 1442 867 1449 842 b 1386 749 1429 796 1413 772 b 1153 667 1333 704 1256 676 b 993 679 1104 661 1050 665 b 832 736 943 692 889 711 b 789 757 818 743 803 750 b 899 879 840 792 879 836 b 899 999 921 931 921 971 b 763 1035 861 1047 771 1036 b 651 997 757 1033 707 1028 b 546 901 618 979 578 949 l 538 906 b 218 1019 476 946 314 1050 b 160 961 190 1011 171 992 b 161 875 147 933 149 904 b 285 758 179 835 221 796 b 375 715 331 732 371 717 b 510 679 379 714 436 689 b 533 644 517 665 525 653 b 567 617 544 633 556 624 b 446 588 533 611 492 603 b 274 496 382 565 324 535 b 128 311 213 446 163 385 b 82 132 99 249 83 188 b 117 -8 82 79 93 33 b 329 -143 160 -85 239 -135 b 383 -146 349 -146 367 -146 b 636 -65 481 -146 565 -119 b 781 122 714 -8 758 68 b 794 401 814 199 838 318 b 679 482 771 444 732 472 b 578 474 678 483 633 492 b 417 314 528 458 460 418 b 393 233 415 311 401 276 b 400 110 382 181 385 139 b 442 85 408 96 424 72 b 429 157 469 103 440 140 b 419 215 429 157 414 174 b 422 226 421 219 421 222 b 444 301 431 268 444 301 b 444 301 444 301 444 301 b 586 444 475 376 522 425 b 674 453 633 460 674 453 b 724 433 693 449 710 443 b 746 183 743 421 803 361 b 401 -115 679 -24 518 -110 b 367 -115 390 -115 378 -115 b 193 254 60 -100 193 254 b 615 590 296 540 544 585 b 640 592 625 592 633 593 b 743 610 704 560 756 579 b 647 622 735 632 682 628 l 635 622 z m 875 981 b 871 892 889 963 888 932 b 757 774 853 849 811 807 b 596 868 697 804 643 839 b 807 1006 664 1003 786 1007 b 875 981 832 1004 861 999 z m 539 889 b 501 796 524 863 510 832 b 504 694 492 754 494 721 b 381 728 433 704 381 728 b 381 728 381 728 381 728 b 174 881 379 729 215 790 b 172 956 163 906 163 932 b 222 1006 182 982 199 999 b 531 894 313 1035 471 933 l 539 889 z m 707 747 b 560 710 660 725 608 713 b 576 821 556 764 576 821 b 590 856 581 833 585 846 b 743 765 635 828 688 796 b 707 747 731 757 718 751 z m 847 1167 b 785 1158 847 1167 807 1192 b 928 1083 771 1138 825 1061 b 950 1107 928 1083 961 1092 b 900 1121 942 1117 921 1106 b 847 1167 878 1138 867 1156 z "},"É":{"ha":908,"x_min":0,"x_max":0,"o":"m 635 622 b 565 679 594 628 574 651 b 753 735 629 683 694 703 b 775 749 761 739 768 744 b 826 724 792 740 810 732 b 989 667 883 697 939 678 b 1114 650 1033 656 1075 650 b 1154 653 1128 650 1142 651 b 1394 739 1260 663 1340 692 b 1471 875 1449 785 1465 839 b 1471 875 1471 875 1471 875 b 1457 908 1471 882 1474 908 b 1442 867 1435 908 1439 879 b 1440 819 1442 867 1449 842 b 1386 749 1429 796 1413 772 b 1153 667 1333 704 1256 676 b 993 679 1104 661 1050 665 b 832 736 943 692 889 711 b 789 757 818 743 803 750 b 899 879 840 792 879 836 b 899 999 921 931 921 971 b 763 1035 861 1047 771 1036 b 651 997 757 1033 707 1028 b 546 901 618 979 578 949 l 538 906 b 218 1019 476 946 314 1050 b 160 961 190 1011 171 992 b 161 875 147 933 149 904 b 285 758 179 835 221 796 b 375 715 331 732 371 717 b 510 679 379 714 436 689 b 533 644 517 665 525 653 b 567 617 544 633 556 624 b 446 588 533 611 492 603 b 274 496 382 565 324 535 b 128 311 213 446 163 385 b 82 132 99 249 83 188 b 117 -8 82 79 93 33 b 329 -143 160 -85 239 -135 b 383 -146 349 -146 367 -146 b 636 -65 481 -146 565 -119 b 781 122 714 -8 758 68 b 794 401 814 199 838 318 b 679 482 771 444 732 472 b 578 474 678 483 633 492 b 417 314 528 458 460 418 b 393 233 415 311 401 276 b 400 110 382 181 385 139 b 442 85 408 96 424 72 b 429 157 469 103 440 140 b 419 215 429 157 414 174 b 422 226 421 219 421 222 b 444 301 431 268 444 301 b 444 301 444 301 444 301 b 586 444 475 376 522 425 b 674 453 633 460 674 453 b 724 433 693 449 710 443 b 746 183 743 421 803 361 b 401 -115 679 -24 518 -110 b 367 -115 390 -115 378 -115 b 193 254 60 -100 193 254 b 615 590 296 540 544 585 b 640 592 625 592 633 593 b 743 610 704 560 756 579 b 647 622 735 632 682 628 l 635 622 z m 875 981 b 871 892 889 963 888 932 b 757 774 853 849 811 807 b 596 868 697 804 643 839 b 807 1006 664 1003 786 1007 b 875 981 832 1004 861 999 z m 539 889 b 501 796 524 863 510 832 b 504 694 492 754 494 721 b 381 728 433 704 381 728 b 381 728 381 728 381 728 b 174 881 379 729 215 790 b 172 956 163 906 163 932 b 222 1006 182 982 199 999 b 531 894 313 1035 471 933 l 539 889 z m 707 747 b 560 710 660 725 608 713 b 576 821 556 764 576 821 b 590 856 581 833 585 846 b 743 765 635 828 688 796 b 707 747 731 757 718 751 z m 921 1168 b 868 1122 901 1157 890 1139 b 818 1108 847 1107 826 1118 b 840 1085 808 1093 840 1085 b 983 1160 943 1063 997 1139 b 921 1168 961 1193 921 1168 z "},"Ê":{"ha":908,"x_min":0,"x_max":0,"o":"m 635 622 b 565 679 594 628 574 651 b 753 735 629 683 694 703 b 775 749 761 739 768 744 b 826 724 792 740 810 732 b 989 667 883 697 939 678 b 1114 650 1033 656 1075 650 b 1154 653 1128 650 1142 651 b 1394 739 1260 663 1340 692 b 1471 875 1449 785 1465 839 b 1471 875 1471 875 1471 875 b 1457 908 1471 882 1474 908 b 1442 867 1435 908 1439 879 b 1440 819 1442 867 1449 842 b 1386 749 1429 796 1413 772 b 1153 667 1333 704 1256 676 b 993 679 1104 661 1050 665 b 832 736 943 692 889 711 b 789 757 818 743 803 750 b 899 879 840 792 879 836 b 899 999 921 931 921 971 b 763 1035 861 1047 771 1036 b 651 997 757 1033 707 1028 b 546 901 618 979 578 949 l 538 906 b 218 1019 476 946 314 1050 b 160 961 190 1011 171 992 b 161 875 147 933 149 904 b 285 758 179 835 221 796 b 375 715 331 732 371 717 b 510 679 379 714 436 689 b 533 644 517 665 525 653 b 567 617 544 633 556 624 b 446 588 533 611 492 603 b 274 496 382 565 324 535 b 128 311 213 446 163 385 b 82 132 99 249 83 188 b 117 -8 82 79 93 33 b 329 -143 160 -85 239 -135 b 383 -146 349 -146 367 -146 b 636 -65 481 -146 565 -119 b 781 122 714 -8 758 68 b 794 401 814 199 838 318 b 679 482 771 444 732 472 b 578 474 678 483 633 492 b 417 314 528 458 460 418 b 393 233 415 311 401 276 b 400 110 382 181 385 139 b 442 85 408 96 424 72 b 429 157 469 103 440 140 b 419 215 429 157 414 174 b 422 226 421 219 421 222 b 444 301 431 268 444 301 b 444 301 444 301 444 301 b 586 444 475 376 522 425 b 674 453 633 460 674 453 b 724 433 693 449 710 443 b 746 183 743 421 803 361 b 401 -115 679 -24 518 -110 b 367 -115 390 -115 378 -115 b 193 254 60 -100 193 254 b 615 590 296 540 544 585 b 640 592 625 592 633 593 b 743 610 704 560 756 579 b 647 622 735 632 682 628 l 635 622 z m 875 981 b 871 892 889 963 888 932 b 757 774 853 849 811 807 b 596 868 697 804 643 839 b 807 1006 664 1003 786 1007 b 875 981 832 1004 861 999 z m 539 889 b 501 796 524 863 510 832 b 504 694 492 754 494 721 b 381 728 433 704 381 728 b 381 728 381 728 381 728 b 174 881 379 729 215 790 b 172 956 163 906 163 932 b 222 1006 182 982 199 999 b 531 894 313 1035 471 933 l 539 889 z m 707 747 b 560 710 660 725 608 713 b 576 821 556 764 576 821 b 590 856 581 833 585 846 b 743 765 635 828 688 796 b 707 747 731 757 718 751 z m 1014 1089 b 971 1107 1008 1099 989 1090 b 929 1156 953 1124 946 1143 b 908 1165 929 1156 919 1163 b 903 1165 907 1165 904 1165 b 897 1167 901 1167 899 1167 b 875 1160 885 1165 875 1160 b 825 1121 857 1151 846 1133 b 779 1110 804 1107 788 1119 b 796 1086 768 1097 796 1086 b 896 1094 839 1072 872 1081 b 993 1068 917 1076 949 1063 b 1014 1089 993 1068 1022 1074 z "},"Ë":{"ha":908,"x_min":0,"x_max":0,"o":"m 635 622 b 565 679 594 628 574 651 b 753 735 629 683 694 703 b 775 749 761 739 768 744 b 826 724 792 740 810 732 b 989 667 883 697 939 678 b 1114 650 1033 656 1075 650 b 1154 653 1128 650 1142 651 b 1394 739 1260 663 1340 692 b 1471 875 1449 785 1465 839 b 1471 875 1471 875 1471 875 b 1457 908 1471 882 1474 908 b 1442 867 1435 908 1439 879 b 1440 819 1442 867 1449 842 b 1386 749 1429 796 1413 772 b 1153 667 1333 704 1256 676 b 993 679 1104 661 1050 665 b 832 736 943 692 889 711 b 789 757 818 743 803 750 b 899 879 840 792 879 836 b 899 999 921 931 921 971 b 763 1035 861 1047 771 1036 b 651 997 757 1033 707 1028 b 546 901 618 979 578 949 l 538 906 b 218 1019 476 946 314 1050 b 160 961 190 1011 171 992 b 161 875 147 933 149 904 b 285 758 179 835 221 796 b 375 715 331 732 371 717 b 510 679 379 714 436 689 b 533 644 517 665 525 653 b 567 617 544 633 556 624 b 446 588 533 611 492 603 b 274 496 382 565 324 535 b 128 311 213 446 163 385 b 82 132 99 249 83 188 b 117 -8 82 79 93 33 b 329 -143 160 -85 239 -135 b 383 -146 349 -146 367 -146 b 636 -65 481 -146 565 -119 b 781 122 714 -8 758 68 b 794 401 814 199 838 318 b 679 482 771 444 732 472 b 578 474 678 483 633 492 b 417 314 528 458 460 418 b 393 233 415 311 401 276 b 400 110 382 181 385 139 b 442 85 408 96 424 72 b 429 157 469 103 440 140 b 419 215 429 157 414 174 b 422 226 421 219 421 222 b 444 301 431 268 444 301 b 444 301 444 301 444 301 b 586 444 475 376 522 425 b 674 453 633 460 674 453 b 724 433 693 449 710 443 b 746 183 743 421 803 361 b 401 -115 679 -24 518 -110 b 367 -115 390 -115 378 -115 b 193 254 60 -100 193 254 b 615 590 296 540 544 585 b 640 592 625 592 633 593 b 743 610 704 560 756 579 b 647 622 735 632 682 628 l 635 622 z m 875 981 b 871 892 889 963 888 932 b 757 774 853 849 811 807 b 596 868 697 804 643 839 b 807 1006 664 1003 786 1007 b 875 981 832 1004 861 999 z m 539 889 b 501 796 524 863 510 832 b 504 694 492 754 494 721 b 381 728 433 704 381 728 b 381 728 381 728 381 728 b 174 881 379 729 215 790 b 172 956 163 906 163 932 b 222 1006 182 982 199 999 b 531 894 313 1035 471 933 l 539 889 z m 707 747 b 560 710 660 725 608 713 b 576 821 556 764 576 821 b 590 856 581 833 585 846 b 743 765 635 828 688 796 b 707 747 731 757 718 751 z m 806 1158 b 767 1118 785 1158 767 1140 b 806 1078 767 1096 785 1078 b 844 1118 828 1078 844 1096 b 806 1158 844 1140 828 1158 z m 936 1158 b 897 1118 915 1158 897 1140 b 936 1078 897 1096 915 1078 b 976 1118 958 1078 976 1096 b 936 1158 976 1140 958 1158 z "},"Ì":{"ha":1124,"x_min":0,"x_max":0,"o":"m 1249 1036 b 1179 956 1219 1043 1194 993 b 1157 947 1172 953 1165 950 b 931 910 1090 925 997 915 b 881 904 913 908 896 907 b 499 867 807 903 653 894 b 197 774 374 844 272 814 b 46 589 104 725 53 663 b 82 464 42 544 54 503 b 149 397 99 442 121 419 b 144 372 146 383 144 375 b 199 7 114 222 132 99 b 357 -115 246 -60 311 -96 b 446 -140 406 -135 442 -140 b 521 -146 472 -144 497 -146 b 614 -135 554 -146 585 -143 b 754 -60 665 -122 711 -97 b 857 63 790 -28 824 13 b 944 -31 899 33 929 4 b 939 -82 954 -54 939 -82 b 946 -126 933 -94 925 -124 b 965 -103 958 -129 964 -112 b 946 -3 972 -68 965 -35 b 864 74 928 24 901 49 b 979 307 903 136 940 213 b 1094 656 982 315 1029 422 b 1199 918 1126 771 1164 858 b 1249 1036 1278 957 1290 1025 z m 1108 793 b 788 118 1068 692 921 331 b 618 193 736 144 679 168 b 683 360 647 232 669 289 b 649 631 708 478 696 569 b 514 703 596 697 519 703 b 322 661 442 710 378 694 b 211 546 279 635 242 596 b 153 411 179 496 163 446 b 93 472 128 432 108 451 b 60 588 67 510 57 547 b 204 763 65 656 114 715 b 500 853 276 800 376 831 b 804 888 613 874 724 883 b 765 872 790 883 778 878 b 689 801 728 854 703 831 b 681 726 679 778 675 753 b 704 669 685 707 692 688 b 758 633 708 663 735 621 b 732 704 788 647 747 688 b 710 767 732 704 706 732 b 717 788 711 774 714 781 b 932 879 733 824 785 868 b 1163 918 1047 888 1119 903 b 1118 821 1147 889 1133 856 b 1108 793 1115 811 1111 803 z m 376 269 b 376 274 376 271 376 272 b 535 210 428 251 482 231 b 578 193 550 204 564 199 b 549 168 569 183 560 175 b 451 156 511 146 475 149 b 392 206 450 156 413 165 b 376 269 382 224 376 244 l 376 269 z m 540 222 b 379 288 486 244 431 265 b 403 339 385 319 403 339 b 403 407 413 356 436 390 b 361 369 375 421 361 369 b 347 301 361 369 350 338 b 201 378 294 325 244 350 b 201 378 201 378 201 378 b 229 451 208 401 218 426 b 535 668 229 451 329 707 b 624 611 558 663 596 647 b 654 365 667 557 676 475 b 608 233 643 313 628 268 b 588 204 601 222 594 213 b 540 222 572 211 557 217 z m 239 6 b 214 47 233 13 224 26 b 197 364 188 103 154 210 b 347 286 242 336 293 311 b 365 190 344 250 350 217 b 443 126 392 140 439 126 b 565 143 474 118 518 114 b 608 181 581 153 596 165 b 779 107 671 157 729 132 b 701 3 753 64 726 29 b 271 -26 553 -150 360 -101 b 239 6 260 -17 249 -7 z m 1242 1169 b 1179 1161 1242 1169 1201 1194 b 1322 1086 1165 1140 1219 1064 b 1344 1110 1322 1086 1356 1094 b 1294 1124 1336 1119 1315 1108 b 1242 1169 1272 1140 1261 1158 z "},"Í":{"ha":1124,"x_min":0,"x_max":0,"o":"m 1249 1036 b 1179 956 1219 1043 1194 993 b 1157 947 1172 953 1165 950 b 931 910 1090 925 997 915 b 881 904 913 908 896 907 b 499 867 807 903 653 894 b 197 774 374 844 272 814 b 46 589 104 725 53 663 b 82 464 42 544 54 503 b 149 397 99 442 121 419 b 144 372 146 383 144 375 b 199 7 114 222 132 99 b 357 -115 246 -60 311 -96 b 446 -140 406 -135 442 -140 b 521 -146 472 -144 497 -146 b 614 -135 554 -146 585 -143 b 754 -60 665 -122 711 -97 b 857 63 790 -28 824 13 b 944 -31 899 33 929 4 b 939 -82 954 -54 939 -82 b 946 -126 933 -94 925 -124 b 965 -103 958 -129 964 -112 b 946 -3 972 -68 965 -35 b 864 74 928 24 901 49 b 979 307 903 136 940 213 b 1094 656 982 315 1029 422 b 1199 918 1126 771 1164 858 b 1249 1036 1278 957 1290 1025 z m 1108 793 b 788 118 1068 692 921 331 b 618 193 736 144 679 168 b 683 360 647 232 669 289 b 649 631 708 478 696 569 b 514 703 596 697 519 703 b 322 661 442 710 378 694 b 211 546 279 635 242 596 b 153 411 179 496 163 446 b 93 472 128 432 108 451 b 60 588 67 510 57 547 b 204 763 65 656 114 715 b 500 853 276 800 376 831 b 804 888 613 874 724 883 b 765 872 790 883 778 878 b 689 801 728 854 703 831 b 681 726 679 778 675 753 b 704 669 685 707 692 688 b 758 633 708 663 735 621 b 732 704 788 647 747 688 b 710 767 732 704 706 732 b 717 788 711 774 714 781 b 932 879 733 824 785 868 b 1163 918 1047 888 1119 903 b 1118 821 1147 889 1133 856 b 1108 793 1115 811 1111 803 z m 376 269 b 376 274 376 271 376 272 b 535 210 428 251 482 231 b 578 193 550 204 564 199 b 549 168 569 183 560 175 b 451 156 511 146 475 149 b 392 206 450 156 413 165 b 376 269 382 224 376 244 l 376 269 z m 540 222 b 379 288 486 244 431 265 b 403 339 385 319 403 339 b 403 407 413 356 436 390 b 361 369 375 421 361 369 b 347 301 361 369 350 338 b 201 378 294 325 244 350 b 201 378 201 378 201 378 b 229 451 208 401 218 426 b 535 668 229 451 329 707 b 624 611 558 663 596 647 b 654 365 667 557 676 475 b 608 233 643 313 628 268 b 588 204 601 222 594 213 b 540 222 572 211 557 217 z m 239 6 b 214 47 233 13 224 26 b 197 364 188 103 154 210 b 347 286 242 336 293 311 b 365 190 344 250 350 217 b 443 126 392 140 439 126 b 565 143 474 118 518 114 b 608 181 581 153 596 165 b 779 107 671 157 729 132 b 701 3 753 64 726 29 b 271 -26 553 -150 360 -101 b 239 6 260 -17 249 -7 z m 1282 1172 b 1229 1126 1263 1161 1251 1143 b 1179 1113 1208 1111 1188 1122 b 1201 1089 1169 1097 1201 1089 b 1344 1164 1304 1067 1358 1143 b 1282 1172 1322 1197 1282 1172 z "},"Î":{"ha":1124,"x_min":0,"x_max":0,"o":"m 1249 1036 b 1179 956 1219 1043 1194 993 b 1157 947 1172 953 1165 950 b 931 910 1090 925 997 915 b 881 904 913 908 896 907 b 499 867 807 903 653 894 b 197 774 374 844 272 814 b 46 589 104 725 53 663 b 82 464 42 544 54 503 b 149 397 99 442 121 419 b 144 372 146 383 144 375 b 199 7 114 222 132 99 b 357 -115 246 -60 311 -96 b 446 -140 406 -135 442 -140 b 521 -146 472 -144 497 -146 b 614 -135 554 -146 585 -143 b 754 -60 665 -122 711 -97 b 857 63 790 -28 824 13 b 944 -31 899 33 929 4 b 939 -82 954 -54 939 -82 b 946 -126 933 -94 925 -124 b 965 -103 958 -129 964 -112 b 946 -3 972 -68 965 -35 b 864 74 928 24 901 49 b 979 307 903 136 940 213 b 1094 656 982 315 1029 422 b 1199 918 1126 771 1164 858 b 1249 1036 1278 957 1290 1025 z m 1108 793 b 788 118 1068 692 921 331 b 618 193 736 144 679 168 b 683 360 647 232 669 289 b 649 631 708 478 696 569 b 514 703 596 697 519 703 b 322 661 442 710 378 694 b 211 546 279 635 242 596 b 153 411 179 496 163 446 b 93 472 128 432 108 451 b 60 588 67 510 57 547 b 204 763 65 656 114 715 b 500 853 276 800 376 831 b 804 888 613 874 724 883 b 765 872 790 883 778 878 b 689 801 728 854 703 831 b 681 726 679 778 675 753 b 704 669 685 707 692 688 b 758 633 708 663 735 621 b 732 704 788 647 747 688 b 710 767 732 704 706 732 b 717 788 711 774 714 781 b 932 879 733 824 785 868 b 1163 918 1047 888 1119 903 b 1118 821 1147 889 1133 856 b 1108 793 1115 811 1111 803 z m 376 269 b 376 274 376 271 376 272 b 535 210 428 251 482 231 b 578 193 550 204 564 199 b 549 168 569 183 560 175 b 451 156 511 146 475 149 b 392 206 450 156 413 165 b 376 269 382 224 376 244 l 376 269 z m 540 222 b 379 288 486 244 431 265 b 403 339 385 319 403 339 b 403 407 413 356 436 390 b 361 369 375 421 361 369 b 347 301 361 369 350 338 b 201 378 294 325 244 350 b 201 378 201 378 201 378 b 229 451 208 401 218 426 b 535 668 229 451 329 707 b 624 611 558 663 596 647 b 654 365 667 557 676 475 b 608 233 643 313 628 268 b 588 204 601 222 594 213 b 540 222 572 211 557 217 z m 239 6 b 214 47 233 13 224 26 b 197 364 188 103 154 210 b 347 286 242 336 293 311 b 365 190 344 250 350 217 b 443 126 392 140 439 126 b 565 143 474 118 518 114 b 608 181 581 153 596 165 b 779 107 671 157 729 132 b 701 3 753 64 726 29 b 271 -26 553 -150 360 -101 b 239 6 260 -17 249 -7 z m 1381 1096 b 1338 1114 1375 1106 1356 1097 b 1296 1163 1319 1131 1313 1150 b 1275 1172 1296 1163 1286 1169 b 1269 1172 1274 1172 1271 1172 b 1264 1174 1268 1174 1265 1174 b 1242 1167 1251 1172 1242 1167 b 1192 1128 1224 1158 1213 1140 b 1146 1117 1171 1114 1154 1126 b 1163 1093 1135 1104 1163 1093 b 1263 1101 1206 1079 1239 1088 b 1360 1075 1283 1083 1315 1069 b 1381 1096 1360 1075 1389 1081 z "},"Ï":{"ha":1124,"x_min":0,"x_max":0,"o":"m 1249 1036 b 1179 956 1219 1043 1194 993 b 1157 947 1172 953 1165 950 b 931 910 1090 925 997 915 b 881 904 913 908 896 907 b 499 867 807 903 653 894 b 197 774 374 844 272 814 b 46 589 104 725 53 663 b 82 464 42 544 54 503 b 149 397 99 442 121 419 b 144 372 146 383 144 375 b 199 7 114 222 132 99 b 357 -115 246 -60 311 -96 b 446 -140 406 -135 442 -140 b 521 -146 472 -144 497 -146 b 614 -135 554 -146 585 -143 b 754 -60 665 -122 711 -97 b 857 63 790 -28 824 13 b 944 -31 899 33 929 4 b 939 -82 954 -54 939 -82 b 946 -126 933 -94 925 -124 b 965 -103 958 -129 964 -112 b 946 -3 972 -68 965 -35 b 864 74 928 24 901 49 b 979 307 903 136 940 213 b 1094 656 982 315 1029 422 b 1199 918 1126 771 1164 858 b 1249 1036 1278 957 1290 1025 z m 1108 793 b 788 118 1068 692 921 331 b 618 193 736 144 679 168 b 683 360 647 232 669 289 b 649 631 708 478 696 569 b 514 703 596 697 519 703 b 322 661 442 710 378 694 b 211 546 279 635 242 596 b 153 411 179 496 163 446 b 93 472 128 432 108 451 b 60 588 67 510 57 547 b 204 763 65 656 114 715 b 500 853 276 800 376 831 b 804 888 613 874 724 883 b 765 872 790 883 778 878 b 689 801 728 854 703 831 b 681 726 679 778 675 753 b 704 669 685 707 692 688 b 758 633 708 663 735 621 b 732 704 788 647 747 688 b 710 767 732 704 706 732 b 717 788 711 774 714 781 b 932 879 733 824 785 868 b 1163 918 1047 888 1119 903 b 1118 821 1147 889 1133 856 b 1108 793 1115 811 1111 803 z m 376 269 b 376 274 376 271 376 272 b 535 210 428 251 482 231 b 578 193 550 204 564 199 b 549 168 569 183 560 175 b 451 156 511 146 475 149 b 392 206 450 156 413 165 b 376 269 382 224 376 244 l 376 269 z m 540 222 b 379 288 486 244 431 265 b 403 339 385 319 403 339 b 403 407 413 356 436 390 b 361 369 375 421 361 369 b 347 301 361 369 350 338 b 201 378 294 325 244 350 b 201 378 201 378 201 378 b 229 451 208 401 218 426 b 535 668 229 451 329 707 b 624 611 558 663 596 647 b 654 365 667 557 676 475 b 608 233 643 313 628 268 b 588 204 601 222 594 213 b 540 222 572 211 557 217 z m 239 6 b 214 47 233 13 224 26 b 197 364 188 103 154 210 b 347 286 242 336 293 311 b 365 190 344 250 350 217 b 443 126 392 140 439 126 b 565 143 474 118 518 114 b 608 181 581 153 596 165 b 779 107 671 157 729 132 b 701 3 753 64 726 29 b 271 -26 553 -150 360 -101 b 239 6 260 -17 249 -7 z m 1199 1157 b 1160 1117 1178 1157 1160 1139 b 1199 1076 1160 1094 1178 1076 b 1238 1117 1221 1076 1238 1094 b 1199 1157 1238 1139 1221 1157 z m 1329 1157 b 1290 1117 1308 1157 1290 1139 b 1329 1076 1290 1094 1308 1076 b 1369 1117 1351 1076 1369 1094 b 1329 1157 1369 1139 1351 1157 z "},"Ñ":{"ha":1604,"x_min":0,"x_max":0,"o":"m 1776 1024 b 1410 528 1675 988 1515 856 b 1364 331 1386 457 1372 390 b 1333 449 1356 367 1344 406 b 1275 935 1307 549 1246 739 b 1311 1036 1333 974 1344 1026 b 1231 957 1283 1043 1251 994 b 972 910 1194 942 1118 921 b 911 903 950 908 929 906 b 538 843 847 897 694 882 b 243 733 417 814 318 776 b 76 536 149 678 93 611 b 96 421 67 494 74 456 b 119 392 103 410 110 400 b 114 375 115 382 114 376 b 121 1 61 219 64 94 b 263 -115 153 -49 201 -90 b 346 -140 307 -135 342 -140 b 421 -146 371 -144 396 -146 b 514 -135 453 -146 483 -143 b 664 -60 567 -122 617 -97 b 839 138 724 -14 781 50 b 871 131 850 135 860 133 b 1292 31 1015 100 1165 68 b 1306 26 1296 29 1301 28 b 1308 -17 1307 11 1308 -3 b 1349 -143 1308 -17 1310 -137 b 1406 -7 1382 -147 1406 -140 b 1515 -56 1449 -22 1485 -39 b 1560 -103 1535 -68 1560 -103 b 1601 -118 1569 -114 1589 -135 b 1590 -89 1610 -107 1597 -96 b 1406 8 1549 -54 1489 -22 b 1406 53 1406 24 1406 38 b 1414 133 1407 72 1410 101 b 1558 697 1429 271 1468 481 b 1804 1000 1608 819 1693 971 b 1850 1004 1821 1004 1836 1006 b 1903 978 1885 1003 1903 978 b 1969 947 1917 961 1946 924 b 1960 990 1983 961 1971 979 b 1946 1001 1956 994 1950 997 l 1946 1001 b 1796 1029 1917 1021 1865 1047 b 1776 1024 1789 1028 1782 1026 z m 108 428 b 89 533 86 461 81 496 b 250 721 106 604 160 668 b 540 829 324 764 422 800 b 821 879 643 856 746 871 b 797 869 813 876 806 874 b 714 796 758 851 731 826 b 715 672 694 757 694 711 b 765 635 717 667 739 622 b 749 706 796 649 761 689 b 736 771 749 706 724 735 b 742 781 738 775 739 778 b 975 879 761 819 818 868 b 1207 917 1088 888 1160 903 b 1132 788 1182 879 1157 835 b 751 171 1078 688 906 379 b 578 211 692 183 633 197 b 651 358 606 249 631 297 b 650 632 693 478 693 571 b 526 703 607 697 533 703 b 331 663 456 710 390 696 b 204 547 285 636 242 597 b 125 406 163 493 138 439 b 108 428 118 413 113 421 z m 332 269 b 392 249 350 263 371 256 b 535 207 436 233 485 221 b 500 176 524 196 513 185 b 388 156 456 146 414 147 b 388 156 388 156 388 156 b 339 199 388 156 356 164 b 332 269 331 218 328 242 z m 335 283 b 368 339 344 317 368 339 b 376 407 379 356 407 390 b 329 369 350 421 329 369 b 306 294 329 369 313 333 b 167 368 250 317 203 340 b 210 451 179 394 193 422 b 553 667 210 451 349 714 b 625 615 575 661 604 646 b 651 526 642 592 650 563 b 622 368 653 482 643 429 b 546 219 601 304 575 256 b 335 283 469 239 397 260 z m 154 7 b 135 47 150 14 142 26 b 161 354 117 100 100 206 b 210 324 176 344 192 333 b 303 281 236 308 267 294 b 311 186 296 244 299 213 b 379 126 333 139 376 126 b 518 151 426 113 475 122 b 568 199 536 164 553 179 b 742 158 625 185 683 171 b 613 11 696 97 651 46 b 200 -43 446 -132 283 -108 b 154 7 183 -29 168 -14 z m 1296 44 b 874 144 1169 81 1019 114 b 847 150 865 146 856 149 b 939 306 876 196 907 247 b 1103 654 943 314 1006 419 b 1225 889 1144 751 1188 831 b 1251 429 1218 806 1214 643 b 1304 42 1282 256 1297 131 b 1296 44 1301 42 1299 43 z m 1644 1135 b 1540 1178 1631 1149 1592 1189 b 1471 1139 1494 1168 1471 1151 b 1489 1119 1471 1139 1467 1113 b 1565 1104 1518 1128 1551 1121 b 1656 1096 1576 1092 1607 1072 b 1676 1124 1656 1096 1676 1107 b 1644 1135 1675 1140 1657 1121 z "},"Ò":{"ha":958,"x_min":0,"x_max":0,"o":"m 1469 908 b 1456 867 1447 908 1451 879 b 1453 819 1456 867 1463 842 b 1399 749 1443 796 1425 772 b 1167 667 1347 704 1268 676 b 1006 679 1118 661 1064 665 b 846 736 956 692 901 711 b 801 757 831 743 817 750 b 911 879 853 792 893 835 b 913 999 933 931 933 971 b 775 1035 874 1047 785 1036 b 600 968 768 1033 697 1026 b 531 919 576 954 553 938 b 232 1019 458 965 318 1047 b 172 961 204 1011 183 992 b 175 875 161 933 161 904 b 219 815 183 856 199 835 b 310 749 239 797 268 772 b 349 728 322 742 335 735 b 247 565 313 679 279 625 b 121 217 178 436 136 319 b 149 -17 107 124 117 44 b 229 -106 168 -54 196 -83 b 342 -143 261 -125 300 -139 b 393 -146 360 -146 376 -146 b 622 -68 479 -146 557 -119 b 771 138 700 -7 746 78 b 842 450 800 211 835 336 b 825 619 844 517 840 574 b 751 728 811 668 786 704 b 789 749 764 733 776 740 b 839 724 806 740 822 732 b 1003 667 897 697 951 678 b 1128 650 1046 656 1088 650 b 1168 653 1142 650 1154 651 b 1408 739 1272 663 1354 692 b 1483 875 1463 785 1479 839 b 1483 875 1483 875 1483 875 b 1469 908 1485 882 1486 908 z m 447 728 b 576 874 494 788 538 836 b 750 768 625 842 685 804 b 724 756 742 764 733 760 b 447 728 724 756 581 685 z m 888 981 b 897 960 892 975 896 968 b 894 926 897 956 899 943 b 885 894 893 917 889 906 b 765 776 869 861 836 818 b 588 883 697 813 636 851 b 847 1003 729 1014 824 1007 b 888 981 864 999 879 992 z m 236 1006 b 518 910 314 1032 447 956 b 431 828 488 886 458 858 b 368 753 408 804 388 779 b 188 961 156 856 182 946 b 236 1006 197 985 214 999 z m 778 654 b 790 617 782 647 786 635 b 742 222 803 558 808 438 b 671 54 742 222 719 136 b 472 -107 626 -21 563 -85 b 346 -112 433 -117 390 -118 b 314 -107 335 -111 324 -110 b 258 403 74 -44 258 403 b 343 575 288 472 315 529 b 426 699 372 621 400 661 b 496 683 449 692 471 686 b 556 679 515 681 535 679 b 704 707 604 679 656 689 b 718 713 708 708 713 711 b 778 654 740 701 761 686 z m 849 1175 b 786 1167 849 1175 808 1200 b 929 1092 772 1146 826 1069 b 951 1115 929 1092 963 1100 b 901 1129 943 1125 922 1114 b 849 1175 879 1146 868 1164 z "},"Ó":{"ha":958,"x_min":0,"x_max":0,"o":"m 1469 908 b 1456 867 1447 908 1451 879 b 1453 819 1456 867 1463 842 b 1399 749 1443 796 1425 772 b 1167 667 1347 704 1268 676 b 1006 679 1118 661 1064 665 b 846 736 956 692 901 711 b 801 757 831 743 817 750 b 911 879 853 792 893 835 b 913 999 933 931 933 971 b 775 1035 874 1047 785 1036 b 600 968 768 1033 697 1026 b 531 919 576 954 553 938 b 232 1019 458 965 318 1047 b 172 961 204 1011 183 992 b 175 875 161 933 161 904 b 219 815 183 856 199 835 b 310 749 239 797 268 772 b 349 728 322 742 335 735 b 247 565 313 679 279 625 b 121 217 178 436 136 319 b 149 -17 107 124 117 44 b 229 -106 168 -54 196 -83 b 342 -143 261 -125 300 -139 b 393 -146 360 -146 376 -146 b 622 -68 479 -146 557 -119 b 771 138 700 -7 746 78 b 842 450 800 211 835 336 b 825 619 844 517 840 574 b 751 728 811 668 786 704 b 789 749 764 733 776 740 b 839 724 806 740 822 732 b 1003 667 897 697 951 678 b 1128 650 1046 656 1088 650 b 1168 653 1142 650 1154 651 b 1408 739 1272 663 1354 692 b 1483 875 1463 785 1479 839 b 1483 875 1483 875 1483 875 b 1469 908 1485 882 1486 908 z m 447 728 b 576 874 494 788 538 836 b 750 768 625 842 685 804 b 724 756 742 764 733 760 b 447 728 724 756 581 685 z m 888 981 b 897 960 892 975 896 968 b 894 926 897 956 899 943 b 885 894 893 917 889 906 b 765 776 869 861 836 818 b 588 883 697 813 636 851 b 847 1003 729 1014 824 1007 b 888 981 864 999 879 992 z m 236 1006 b 518 910 314 1032 447 956 b 431 828 488 886 458 858 b 368 753 408 804 388 779 b 188 961 156 856 182 946 b 236 1006 197 985 214 999 z m 778 654 b 790 617 782 647 786 635 b 742 222 803 558 808 438 b 671 54 742 222 719 136 b 472 -107 626 -21 563 -85 b 346 -112 433 -117 390 -118 b 314 -107 335 -111 324 -110 b 258 403 74 -44 258 403 b 343 575 288 472 315 529 b 426 699 372 621 400 661 b 496 683 449 692 471 686 b 556 679 515 681 535 679 b 704 707 604 679 656 689 b 718 713 708 708 713 711 b 778 654 740 701 761 686 z m 906 1181 b 853 1135 886 1169 875 1151 b 803 1121 832 1119 811 1131 b 825 1097 793 1106 825 1097 b 968 1172 928 1075 982 1151 b 906 1181 946 1206 906 1181 z "}}}
